STARTFONT 2.1
COMMENT from SHARP X680x0 ROMFONT
FONT -FontForge-X680x0-Medium-R-Normal--16-150-75-75-C-160-JISX0208.1983-0
SIZE 16 75 75
FONTBOUNDINGBOX 16 16 0 -2
COMMENT STARTPROPERTIES 18
FOUNDRY "FontForge"
FAMILY_NAME "Fixed"
WEIGHT_NAME "Medium"
SLANT "R"
SETWIDTH_NAME "Normal"
ADD_STYLE_NAME ""
PIXEL_SIZE 16
POINT_SIZE 150
RESOLUTION_X 75
RESOLUTION_Y 75
SPACING "C"
AVERAGE_WIDTH 160
CHARSET_REGISTRY "JISX0208.1983"
CHARSET_ENCODING "0"
FONT_ASCENT 14
FONT_DESCENT 2
DEFAULT_CHAR 8481
FONTNAME_REGISTRY ""
ENDPROPERTIES
CHARS 14902
STARTCHAR (for_rename)
ENCODING 1
SWIDTH 512 0
DWIDTH 8 0
BBX 8 16 0 -2
BITMAP
38
44
40
38
04
44
38
00
11
11
11
1F
11
11
11
00
ENDCHAR
STARTCHAR (for_rename)
ENCODING 2
SWIDTH 512 0
DWIDTH 8 0
BBX 8 16 0 -2
BITMAP
38
44
40
38
04
44
38
00
11
11
0A
04
0A
11
11
00
ENDCHAR
STARTCHAR (for_rename)
ENCODING 3
SWIDTH 512 0
DWIDTH 8 0
BBX 8 16 0 -2
BITMAP
7C
40
40
78
40
40
7C
00
11
11
0A
04
0A
11
11
00
ENDCHAR
STARTCHAR (for_rename)
ENCODING 4
SWIDTH 512 0
DWIDTH 8 0
BBX 8 16 0 -2
BITMAP
7C
40
40
78
40
40
7C
00
1F
04
04
04
04
04
04
00
ENDCHAR
STARTCHAR (for_rename)
ENCODING 5
SWIDTH 512 0
DWIDTH 8 0
BBX 8 16 0 -2
BITMAP
7C
40
40
78
40
40
7C
00
0E
11
11
11
15
12
0D
00
ENDCHAR
STARTCHAR (for_rename)
ENCODING 6
SWIDTH 512 0
DWIDTH 8 0
BBX 8 16 0 -2
BITMAP
10
28
44
7C
44
44
44
00
11
12
14
18
14
12
11
00
ENDCHAR
STARTCHAR (for_rename)
ENCODING 7
SWIDTH 512 0
DWIDTH 8 0
BBX 8 16 0 -2
BITMAP
78
44
44
78
44
44
78
00
10
10
10
10
10
10
1F
00
ENDCHAR
STARTCHAR (for_rename)
ENCODING 8
SWIDTH 512 0
DWIDTH 8 0
BBX 8 16 0 -2
BITMAP
78
44
44
78
44
44
78
00
0E
11
10
0E
01
11
0E
00
ENDCHAR
STARTCHAR (for_rename)
ENCODING 9
SWIDTH 512 0
DWIDTH 8 0
BBX 8 16 0 -2
BITMAP
44
44
44
7C
44
44
44
00
1F
04
04
04
04
04
04
00
ENDCHAR
STARTCHAR (for_rename)
ENCODING 10
SWIDTH 512 0
DWIDTH 8 0
BBX 8 16 0 -2
BITMAP
40
40
40
40
40
40
7C
00
1F
10
10
1E
10
10
10
00
ENDCHAR
STARTCHAR (for_rename)
ENCODING 11
SWIDTH 512 0
DWIDTH 8 0
BBX 8 16 0 -2
BITMAP
44
44
44
7C
44
44
44
00
11
1B
1B
15
15
11
11
00
ENDCHAR
STARTCHAR (for_rename)
ENCODING 12
SWIDTH 512 0
DWIDTH 8 0
BBX 8 16 0 -2
BITMAP
38
44
40
40
40
44
38
00
10
10
10
10
10
10
1F
00
ENDCHAR
STARTCHAR (for_rename)
ENCODING 13
SWIDTH 512 0
DWIDTH 8 0
BBX 8 16 0 -2
BITMAP
38
44
40
40
40
44
38
00
1E
11
11
1E
14
12
11
00
ENDCHAR
STARTCHAR (for_rename)
ENCODING 14
SWIDTH 512 0
DWIDTH 8 0
BBX 8 16 0 -2
BITMAP
38
44
40
38
04
44
38
00
0E
11
11
11
11
11
0E
00
ENDCHAR
STARTCHAR (for_rename)
ENCODING 15
SWIDTH 512 0
DWIDTH 8 0
BBX 8 16 0 -2
BITMAP
38
44
40
38
04
44
38
00
0E
04
04
04
04
04
0E
00
ENDCHAR
STARTCHAR (for_rename)
ENCODING 16
SWIDTH 512 0
DWIDTH 8 0
BBX 8 16 0 -2
BITMAP
78
44
44
44
44
44
78
00
1F
10
10
1E
10
10
1F
00
ENDCHAR
STARTCHAR (for_rename)
ENCODING 17
SWIDTH 512 0
DWIDTH 8 0
BBX 8 16 0 -2
BITMAP
78
44
44
44
44
44
78
00
04
0C
04
04
04
04
0E
00
ENDCHAR
STARTCHAR (for_rename)
ENCODING 18
SWIDTH 512 0
DWIDTH 8 0
BBX 8 16 0 -2
BITMAP
78
44
44
44
44
44
78
00
0E
11
01
02
04
08
1F
00
ENDCHAR
STARTCHAR (for_rename)
ENCODING 19
SWIDTH 512 0
DWIDTH 8 0
BBX 8 16 0 -2
BITMAP
78
44
44
44
44
44
78
00
0E
11
01
0E
01
11
0E
00
ENDCHAR
STARTCHAR (for_rename)
ENCODING 20
SWIDTH 512 0
DWIDTH 8 0
BBX 8 16 0 -2
BITMAP
78
44
44
44
44
44
78
00
02
04
0A
12
1F
02
02
00
ENDCHAR
STARTCHAR (for_rename)
ENCODING 21
SWIDTH 512 0
DWIDTH 8 0
BBX 8 16 0 -2
BITMAP
44
44
64
54
4C
44
44
00
11
12
14
18
14
12
11
00
ENDCHAR
STARTCHAR (for_rename)
ENCODING 22
SWIDTH 512 0
DWIDTH 8 0
BBX 8 16 0 -2
BITMAP
38
44
40
38
04
44
38
00
11
11
19
15
13
11
11
00
ENDCHAR
STARTCHAR (for_rename)
ENCODING 23
SWIDTH 512 0
DWIDTH 8 0
BBX 8 16 0 -2
BITMAP
7C
40
40
78
40
40
7C
00
1E
11
11
1E
11
11
1E
00
ENDCHAR
STARTCHAR (for_rename)
ENCODING 24
SWIDTH 512 0
DWIDTH 8 0
BBX 8 16 0 -2
BITMAP
38
44
40
40
40
44
38
00
11
11
19
15
13
11
11
00
ENDCHAR
STARTCHAR (for_rename)
ENCODING 25
SWIDTH 512 0
DWIDTH 8 0
BBX 8 16 0 -2
BITMAP
7C
40
40
78
40
40
7C
00
11
1B
1B
15
15
11
11
00
ENDCHAR
STARTCHAR (for_rename)
ENCODING 26
SWIDTH 512 0
DWIDTH 8 0
BBX 8 16 0 -2
BITMAP
38
44
40
38
04
44
38
00
1E
11
11
1E
11
11
1E
00
ENDCHAR
STARTCHAR (for_rename)
ENCODING 27
SWIDTH 512 0
DWIDTH 8 0
BBX 8 16 0 -2
BITMAP
7C
40
40
78
40
40
7C
00
0E
11
10
10
10
11
0E
00
ENDCHAR
STARTCHAR (for_rename)
ENCODING 28
SWIDTH 512 0
DWIDTH 8 0
BBX 8 16 0 -2
BITMAP
00
00
08
08
04
04
7E
04
04
08
08
00
00
00
00
00
ENDCHAR
STARTCHAR (for_rename)
ENCODING 29
SWIDTH 512 0
DWIDTH 8 0
BBX 8 16 0 -2
BITMAP
00
00
10
10
20
20
7E
20
20
10
10
00
00
00
00
00
ENDCHAR
STARTCHAR (for_rename)
ENCODING 30
SWIDTH 512 0
DWIDTH 8 0
BBX 8 16 0 -2
BITMAP
00
00
08
08
1C
1C
2A
2A
08
08
08
08
08
08
00
00
ENDCHAR
STARTCHAR (for_rename)
ENCODING 31
SWIDTH 512 0
DWIDTH 8 0
BBX 8 16 0 -2
BITMAP
00
00
08
08
08
08
08
08
2A
2A
1C
1C
08
08
00
00
ENDCHAR
STARTCHAR (for_rename)
ENCODING 33
SWIDTH 512 0
DWIDTH 8 0
BBX 8 16 0 -2
BITMAP
00
00
00
10
10
10
10
10
10
10
00
00
10
10
00
00
ENDCHAR
STARTCHAR (for_rename)
ENCODING 34
SWIDTH 512 0
DWIDTH 8 0
BBX 8 16 0 -2
BITMAP
00
00
00
36
36
12
24
00
00
00
00
00
00
00
00
00
ENDCHAR
STARTCHAR (for_rename)
ENCODING 35
SWIDTH 512 0
DWIDTH 8 0
BBX 8 16 0 -2
BITMAP
00
00
00
22
22
7F
22
22
22
22
22
7F
22
22
00
00
ENDCHAR
STARTCHAR (for_rename)
ENCODING 36
SWIDTH 512 0
DWIDTH 8 0
BBX 8 16 0 -2
BITMAP
00
00
08
08
3E
49
49
48
3E
09
49
49
3E
08
08
00
ENDCHAR
STARTCHAR (for_rename)
ENCODING 37
SWIDTH 512 0
DWIDTH 8 0
BBX 8 16 0 -2
BITMAP
00
00
00
20
50
51
22
04
08
10
22
45
05
02
00
00
ENDCHAR
STARTCHAR (for_rename)
ENCODING 38
SWIDTH 512 0
DWIDTH 8 0
BBX 8 16 0 -2
BITMAP
00
00
00
38
44
44
44
28
10
28
45
42
46
39
00
00
ENDCHAR
STARTCHAR (for_rename)
ENCODING 39
SWIDTH 512 0
DWIDTH 8 0
BBX 8 16 0 -2
BITMAP
00
00
00
18
18
08
10
00
00
00
00
00
00
00
00
00
ENDCHAR
STARTCHAR (for_rename)
ENCODING 40
SWIDTH 512 0
DWIDTH 8 0
BBX 8 16 0 -2
BITMAP
00
00
00
02
04
04
08
08
08
08
08
04
04
02
00
00
ENDCHAR
STARTCHAR (for_rename)
ENCODING 41
SWIDTH 512 0
DWIDTH 8 0
BBX 8 16 0 -2
BITMAP
00
00
00
20
10
10
08
08
08
08
08
10
10
20
00
00
ENDCHAR
STARTCHAR (for_rename)
ENCODING 42
SWIDTH 512 0
DWIDTH 8 0
BBX 8 16 0 -2
BITMAP
00
00
00
00
00
00
08
2A
1C
2A
08
00
00
00
00
00
ENDCHAR
STARTCHAR (for_rename)
ENCODING 43
SWIDTH 512 0
DWIDTH 8 0
BBX 8 16 0 -2
BITMAP
00
00
00
00
00
08
08
08
7F
08
08
08
00
00
00
00
ENDCHAR
STARTCHAR (for_rename)
ENCODING 44
SWIDTH 512 0
DWIDTH 8 0
BBX 8 16 0 -2
BITMAP
00
00
00
00
00
00
00
00
00
00
00
18
18
08
10
00
ENDCHAR
STARTCHAR (for_rename)
ENCODING 45
SWIDTH 512 0
DWIDTH 8 0
BBX 8 16 0 -2
BITMAP
00
00
00
00
00
00
00
00
7F
00
00
00
00
00
00
00
ENDCHAR
STARTCHAR (for_rename)
ENCODING 46
SWIDTH 512 0
DWIDTH 8 0
BBX 8 16 0 -2
BITMAP
00
00
00
00
00
00
00
00
00
00
00
00
18
18
00
00
ENDCHAR
STARTCHAR (for_rename)
ENCODING 47
SWIDTH 512 0
DWIDTH 8 0
BBX 8 16 0 -2
BITMAP
00
00
00
00
00
01
02
04
08
10
20
40
00
00
00
00
ENDCHAR
STARTCHAR (for_rename)
ENCODING 48
SWIDTH 512 0
DWIDTH 8 0
BBX 8 16 0 -2
BITMAP
00
00
00
3E
43
43
45
45
49
51
51
61
61
3E
00
00
ENDCHAR
STARTCHAR (for_rename)
ENCODING 49
SWIDTH 512 0
DWIDTH 8 0
BBX 8 16 0 -2
BITMAP
00
00
00
08
18
28
08
08
08
08
08
08
08
1C
00
00
ENDCHAR
STARTCHAR (for_rename)
ENCODING 50
SWIDTH 512 0
DWIDTH 8 0
BBX 8 16 0 -2
BITMAP
00
00
00
1C
22
41
41
01
06
18
20
40
40
7F
00
00
ENDCHAR
STARTCHAR (for_rename)
ENCODING 51
SWIDTH 512 0
DWIDTH 8 0
BBX 8 16 0 -2
BITMAP
00
00
00
1C
22
41
01
02
1C
02
01
41
22
1C
00
00
ENDCHAR
STARTCHAR (for_rename)
ENCODING 52
SWIDTH 512 0
DWIDTH 8 0
BBX 8 16 0 -2
BITMAP
00
00
00
02
06
0A
0A
12
12
22
22
7F
02
02
00
00
ENDCHAR
STARTCHAR (for_rename)
ENCODING 53
SWIDTH 512 0
DWIDTH 8 0
BBX 8 16 0 -2
BITMAP
00
00
00
7E
40
40
40
5C
62
01
01
41
22
1C
00
00
ENDCHAR
STARTCHAR (for_rename)
ENCODING 54
SWIDTH 512 0
DWIDTH 8 0
BBX 8 16 0 -2
BITMAP
00
00
00
1C
22
41
40
5C
62
41
41
41
22
1C
00
00
ENDCHAR
STARTCHAR (for_rename)
ENCODING 55
SWIDTH 512 0
DWIDTH 8 0
BBX 8 16 0 -2
BITMAP
00
00
00
7F
41
42
04
04
08
08
08
08
08
08
00
00
ENDCHAR
STARTCHAR (for_rename)
ENCODING 56
SWIDTH 512 0
DWIDTH 8 0
BBX 8 16 0 -2
BITMAP
00
00
00
1C
22
41
41
22
1C
22
41
41
22
1C
00
00
ENDCHAR
STARTCHAR (for_rename)
ENCODING 57
SWIDTH 512 0
DWIDTH 8 0
BBX 8 16 0 -2
BITMAP
00
00
00
1C
22
41
41
41
23
1D
01
41
22
1C
00
00
ENDCHAR
STARTCHAR (for_rename)
ENCODING 58
SWIDTH 512 0
DWIDTH 8 0
BBX 8 16 0 -2
BITMAP
00
00
00
00
00
00
18
18
00
00
00
18
18
00
00
00
ENDCHAR
STARTCHAR (for_rename)
ENCODING 59
SWIDTH 512 0
DWIDTH 8 0
BBX 8 16 0 -2
BITMAP
00
00
00
00
00
00
18
18
00
00
00
18
18
08
10
00
ENDCHAR
STARTCHAR (for_rename)
ENCODING 60
SWIDTH 512 0
DWIDTH 8 0
BBX 8 16 0 -2
BITMAP
00
00
00
00
02
04
08
10
20
10
08
04
02
00
00
00
ENDCHAR
STARTCHAR (for_rename)
ENCODING 61
SWIDTH 512 0
DWIDTH 8 0
BBX 8 16 0 -2
BITMAP
00
00
00
00
00
00
00
7F
00
00
7F
00
00
00
00
00
ENDCHAR
STARTCHAR (for_rename)
ENCODING 62
SWIDTH 512 0
DWIDTH 8 0
BBX 8 16 0 -2
BITMAP
00
00
00
00
20
10
08
04
02
04
08
10
20
00
00
00
ENDCHAR
STARTCHAR (for_rename)
ENCODING 63
SWIDTH 512 0
DWIDTH 8 0
BBX 8 16 0 -2
BITMAP
00
00
00
1C
22
41
41
01
06
08
08
00
08
08
00
00
ENDCHAR
STARTCHAR (for_rename)
ENCODING 64
SWIDTH 512 0
DWIDTH 8 0
BBX 8 16 0 -2
BITMAP
00
00
00
1C
22
41
01
31
49
49
49
49
49
36
00
00
ENDCHAR
STARTCHAR (for_rename)
ENCODING 65
SWIDTH 512 0
DWIDTH 8 0
BBX 8 16 0 -2
BITMAP
00
00
00
08
14
22
41
41
41
41
7F
41
41
41
00
00
ENDCHAR
STARTCHAR (for_rename)
ENCODING 66
SWIDTH 512 0
DWIDTH 8 0
BBX 8 16 0 -2
BITMAP
00
00
00
7C
42
41
41
42
7C
42
41
41
42
7C
00
00
ENDCHAR
STARTCHAR (for_rename)
ENCODING 67
SWIDTH 512 0
DWIDTH 8 0
BBX 8 16 0 -2
BITMAP
00
00
00
1C
22
41
40
40
40
40
40
41
22
1C
00
00
ENDCHAR
STARTCHAR (for_rename)
ENCODING 68
SWIDTH 512 0
DWIDTH 8 0
BBX 8 16 0 -2
BITMAP
00
00
00
7C
22
21
21
21
21
21
21
21
22
7C
00
00
ENDCHAR
STARTCHAR (for_rename)
ENCODING 69
SWIDTH 512 0
DWIDTH 8 0
BBX 8 16 0 -2
BITMAP
00
00
00
7F
40
40
40
40
7E
40
40
40
40
7F
00
00
ENDCHAR
STARTCHAR (for_rename)
ENCODING 70
SWIDTH 512 0
DWIDTH 8 0
BBX 8 16 0 -2
BITMAP
00
00
00
7F
40
40
40
40
7E
40
40
40
40
40
00
00
ENDCHAR
STARTCHAR (for_rename)
ENCODING 71
SWIDTH 512 0
DWIDTH 8 0
BBX 8 16 0 -2
BITMAP
00
00
00
1C
22
41
40
40
47
41
41
41
23
1D
00
00
ENDCHAR
STARTCHAR (for_rename)
ENCODING 72
SWIDTH 512 0
DWIDTH 8 0
BBX 8 16 0 -2
BITMAP
00
00
00
41
41
41
41
41
7F
41
41
41
41
41
00
00
ENDCHAR
STARTCHAR (for_rename)
ENCODING 73
SWIDTH 512 0
DWIDTH 8 0
BBX 8 16 0 -2
BITMAP
00
00
00
1C
08
08
08
08
08
08
08
08
08
1C
00
00
ENDCHAR
STARTCHAR (for_rename)
ENCODING 74
SWIDTH 512 0
DWIDTH 8 0
BBX 8 16 0 -2
BITMAP
00
00
00
07
02
02
02
02
02
02
02
42
44
38
00
00
ENDCHAR
STARTCHAR (for_rename)
ENCODING 75
SWIDTH 512 0
DWIDTH 8 0
BBX 8 16 0 -2
BITMAP
00
00
00
41
42
44
48
50
60
50
48
44
42
41
00
00
ENDCHAR
STARTCHAR (for_rename)
ENCODING 76
SWIDTH 512 0
DWIDTH 8 0
BBX 8 16 0 -2
BITMAP
00
00
00
20
20
20
20
20
20
20
20
20
20
3F
00
00
ENDCHAR
STARTCHAR (for_rename)
ENCODING 77
SWIDTH 512 0
DWIDTH 8 0
BBX 8 16 0 -2
BITMAP
00
00
00
41
63
55
49
49
41
41
41
41
41
41
00
00
ENDCHAR
STARTCHAR (for_rename)
ENCODING 78
SWIDTH 512 0
DWIDTH 8 0
BBX 8 16 0 -2
BITMAP
00
00
00
41
61
51
51
49
49
45
45
43
41
41
00
00
ENDCHAR
STARTCHAR (for_rename)
ENCODING 79
SWIDTH 512 0
DWIDTH 8 0
BBX 8 16 0 -2
BITMAP
00
00
00
1C
22
41
41
41
41
41
41
41
22
1C
00
00
ENDCHAR
STARTCHAR (for_rename)
ENCODING 80
SWIDTH 512 0
DWIDTH 8 0
BBX 8 16 0 -2
BITMAP
00
00
00
7C
42
41
41
41
42
7C
40
40
40
40
00
00
ENDCHAR
STARTCHAR (for_rename)
ENCODING 81
SWIDTH 512 0
DWIDTH 8 0
BBX 8 16 0 -2
BITMAP
00
00
00
1C
22
41
41
41
41
41
5D
63
22
1D
00
00
ENDCHAR
STARTCHAR (for_rename)
ENCODING 82
SWIDTH 512 0
DWIDTH 8 0
BBX 8 16 0 -2
BITMAP
00
00
00
7C
42
41
41
42
7C
48
44
42
42
41
00
00
ENDCHAR
STARTCHAR (for_rename)
ENCODING 83
SWIDTH 512 0
DWIDTH 8 0
BBX 8 16 0 -2
BITMAP
00
00
00
1C
22
41
40
20
1C
02
01
41
22
1C
00
00
ENDCHAR
STARTCHAR (for_rename)
ENCODING 84
SWIDTH 512 0
DWIDTH 8 0
BBX 8 16 0 -2
BITMAP
00
00
00
7F
08
08
08
08
08
08
08
08
08
08
00
00
ENDCHAR
STARTCHAR (for_rename)
ENCODING 85
SWIDTH 512 0
DWIDTH 8 0
BBX 8 16 0 -2
BITMAP
00
00
00
41
41
41
41
41
41
41
41
41
41
3E
00
00
ENDCHAR
STARTCHAR (for_rename)
ENCODING 86
SWIDTH 512 0
DWIDTH 8 0
BBX 8 16 0 -2
BITMAP
00
00
00
41
41
41
41
41
41
41
41
22
14
08
00
00
ENDCHAR
STARTCHAR (for_rename)
ENCODING 87
SWIDTH 512 0
DWIDTH 8 0
BBX 8 16 0 -2
BITMAP
00
00
00
41
41
41
41
41
49
49
55
55
22
22
00
00
ENDCHAR
STARTCHAR (for_rename)
ENCODING 88
SWIDTH 512 0
DWIDTH 8 0
BBX 8 16 0 -2
BITMAP
00
00
00
41
41
41
22
14
08
14
22
41
41
41
00
00
ENDCHAR
STARTCHAR (for_rename)
ENCODING 89
SWIDTH 512 0
DWIDTH 8 0
BBX 8 16 0 -2
BITMAP
00
00
00
41
41
41
22
14
08
08
08
08
08
08
00
00
ENDCHAR
STARTCHAR (for_rename)
ENCODING 90
SWIDTH 512 0
DWIDTH 8 0
BBX 8 16 0 -2
BITMAP
00
00
00
7F
01
01
02
04
08
10
20
40
40
7F
00
00
ENDCHAR
STARTCHAR (for_rename)
ENCODING 91
SWIDTH 512 0
DWIDTH 8 0
BBX 8 16 0 -2
BITMAP
00
00
00
0E
08
08
08
08
08
08
08
08
08
0E
00
00
ENDCHAR
STARTCHAR (for_rename)
ENCODING 92
SWIDTH 512 0
DWIDTH 8 0
BBX 8 16 0 -2
BITMAP
00
00
00
41
22
14
08
7F
08
08
7F
08
08
08
00
00
ENDCHAR
STARTCHAR (for_rename)
ENCODING 93
SWIDTH 512 0
DWIDTH 8 0
BBX 8 16 0 -2
BITMAP
00
00
00
38
08
08
08
08
08
08
08
08
08
38
00
00
ENDCHAR
STARTCHAR (for_rename)
ENCODING 94
SWIDTH 512 0
DWIDTH 8 0
BBX 8 16 0 -2
BITMAP
00
00
00
08
14
22
41
00
00
00
00
00
00
00
00
00
ENDCHAR
STARTCHAR (for_rename)
ENCODING 95
SWIDTH 512 0
DWIDTH 8 0
BBX 8 16 0 -2
BITMAP
00
00
00
00
00
00
00
00
00
00
00
00
00
7F
00
00
ENDCHAR
STARTCHAR (for_rename)
ENCODING 96
SWIDTH 512 0
DWIDTH 8 0
BBX 8 16 0 -2
BITMAP
10
18
0C
04
00
00
00
00
00
00
00
00
00
00
00
00
ENDCHAR
STARTCHAR (for_rename)
ENCODING 97
SWIDTH 512 0
DWIDTH 8 0
BBX 8 16 0 -2
BITMAP
00
00
00
00
00
00
3C
42
02
3E
42
42
46
3A
00
00
ENDCHAR
STARTCHAR (for_rename)
ENCODING 98
SWIDTH 512 0
DWIDTH 8 0
BBX 8 16 0 -2
BITMAP
00
00
00
20
20
20
2C
32
21
21
21
21
32
2C
00
00
ENDCHAR
STARTCHAR (for_rename)
ENCODING 99
SWIDTH 512 0
DWIDTH 8 0
BBX 8 16 0 -2
BITMAP
00
00
00
00
00
00
1C
22
41
40
40
41
22
1C
00
00
ENDCHAR
STARTCHAR (for_rename)
ENCODING 100
SWIDTH 512 0
DWIDTH 8 0
BBX 8 16 0 -2
BITMAP
00
00
00
02
02
02
1A
26
42
42
42
42
26
1A
00
00
ENDCHAR
STARTCHAR (for_rename)
ENCODING 101
SWIDTH 512 0
DWIDTH 8 0
BBX 8 16 0 -2
BITMAP
00
00
00
00
00
00
1C
22
41
7F
40
41
22
1C
00
00
ENDCHAR
STARTCHAR (for_rename)
ENCODING 102
SWIDTH 512 0
DWIDTH 8 0
BBX 8 16 0 -2
BITMAP
00
00
00
0C
12
10
3C
10
10
10
10
10
10
10
00
00
ENDCHAR
STARTCHAR (for_rename)
ENCODING 103
SWIDTH 512 0
DWIDTH 8 0
BBX 8 16 0 -2
BITMAP
00
00
00
00
00
00
1D
23
41
41
41
23
1D
41
22
1C
ENDCHAR
STARTCHAR (for_rename)
ENCODING 104
SWIDTH 512 0
DWIDTH 8 0
BBX 8 16 0 -2
BITMAP
00
00
00
20
20
20
2C
32
21
21
21
21
21
21
00
00
ENDCHAR
STARTCHAR (for_rename)
ENCODING 105
SWIDTH 512 0
DWIDTH 8 0
BBX 8 16 0 -2
BITMAP
00
00
00
08
08
00
00
08
08
08
08
08
08
08
00
00
ENDCHAR
STARTCHAR (for_rename)
ENCODING 106
SWIDTH 512 0
DWIDTH 8 0
BBX 8 16 0 -2
BITMAP
00
00
00
04
04
00
00
04
04
04
04
04
04
04
24
18
ENDCHAR
STARTCHAR (for_rename)
ENCODING 107
SWIDTH 512 0
DWIDTH 8 0
BBX 8 16 0 -2
BITMAP
00
00
00
20
20
20
21
22
24
28
38
24
22
21
00
00
ENDCHAR
STARTCHAR (for_rename)
ENCODING 108
SWIDTH 512 0
DWIDTH 8 0
BBX 8 16 0 -2
BITMAP
00
00
00
18
08
08
08
08
08
08
08
08
08
08
00
00
ENDCHAR
STARTCHAR (for_rename)
ENCODING 109
SWIDTH 512 0
DWIDTH 8 0
BBX 8 16 0 -2
BITMAP
00
00
00
00
00
00
76
49
49
49
49
49
49
49
00
00
ENDCHAR
STARTCHAR (for_rename)
ENCODING 110
SWIDTH 512 0
DWIDTH 8 0
BBX 8 16 0 -2
BITMAP
00
00
00
00
00
00
2E
31
21
21
21
21
21
21
00
00
ENDCHAR
STARTCHAR (for_rename)
ENCODING 111
SWIDTH 512 0
DWIDTH 8 0
BBX 8 16 0 -2
BITMAP
00
00
00
00
00
00
1C
22
41
41
41
41
22
1C
00
00
ENDCHAR
STARTCHAR (for_rename)
ENCODING 112
SWIDTH 512 0
DWIDTH 8 0
BBX 8 16 0 -2
BITMAP
00
00
00
00
00
00
2C
32
21
21
21
21
32
2C
20
20
ENDCHAR
STARTCHAR (for_rename)
ENCODING 113
SWIDTH 512 0
DWIDTH 8 0
BBX 8 16 0 -2
BITMAP
00
00
00
00
00
00
1A
26
42
42
42
42
26
1A
02
02
ENDCHAR
STARTCHAR (for_rename)
ENCODING 114
SWIDTH 512 0
DWIDTH 8 0
BBX 8 16 0 -2
BITMAP
00
00
00
00
00
00
2C
32
20
20
20
20
20
20
00
00
ENDCHAR
STARTCHAR (for_rename)
ENCODING 115
SWIDTH 512 0
DWIDTH 8 0
BBX 8 16 0 -2
BITMAP
00
00
00
00
00
00
3E
41
40
3E
01
01
41
3E
00
00
ENDCHAR
STARTCHAR (for_rename)
ENCODING 116
SWIDTH 512 0
DWIDTH 8 0
BBX 8 16 0 -2
BITMAP
00
00
00
10
10
10
7C
10
10
10
10
10
12
0C
00
00
ENDCHAR
STARTCHAR (for_rename)
ENCODING 117
SWIDTH 512 0
DWIDTH 8 0
BBX 8 16 0 -2
BITMAP
00
00
00
00
00
00
42
42
42
42
42
42
46
3A
00
00
ENDCHAR
STARTCHAR (for_rename)
ENCODING 118
SWIDTH 512 0
DWIDTH 8 0
BBX 8 16 0 -2
BITMAP
00
00
00
00
00
00
41
41
22
22
14
14
08
08
00
00
ENDCHAR
STARTCHAR (for_rename)
ENCODING 119
SWIDTH 512 0
DWIDTH 8 0
BBX 8 16 0 -2
BITMAP
00
00
00
00
00
00
41
41
41
49
49
55
22
22
00
00
ENDCHAR
STARTCHAR (for_rename)
ENCODING 120
SWIDTH 512 0
DWIDTH 8 0
BBX 8 16 0 -2
BITMAP
00
00
00
00
00
00
41
22
14
08
08
14
22
41
00
00
ENDCHAR
STARTCHAR (for_rename)
ENCODING 121
SWIDTH 512 0
DWIDTH 8 0
BBX 8 16 0 -2
BITMAP
00
00
00
00
00
00
21
21
21
21
21
11
0A
04
08
30
ENDCHAR
STARTCHAR (for_rename)
ENCODING 122
SWIDTH 512 0
DWIDTH 8 0
BBX 8 16 0 -2
BITMAP
00
00
00
00
00
00
7F
02
04
08
10
20
40
7F
00
00
ENDCHAR
STARTCHAR (for_rename)
ENCODING 123
SWIDTH 512 0
DWIDTH 8 0
BBX 8 16 0 -2
BITMAP
00
00
00
06
08
08
08
08
10
08
08
08
08
06
00
00
ENDCHAR
STARTCHAR (for_rename)
ENCODING 124
SWIDTH 512 0
DWIDTH 8 0
BBX 8 16 0 -2
BITMAP
00
00
08
08
08
08
00
00
00
00
08
08
08
08
00
00
ENDCHAR
STARTCHAR (for_rename)
ENCODING 125
SWIDTH 512 0
DWIDTH 8 0
BBX 8 16 0 -2
BITMAP
00
00
00
30
08
08
08
08
04
08
08
08
08
30
00
00
ENDCHAR
STARTCHAR (for_rename)
ENCODING 126
SWIDTH 512 0
DWIDTH 8 0
BBX 8 16 0 -2
BITMAP
00
00
00
30
49
06
00
00
00
00
00
00
00
00
00
00
ENDCHAR
STARTCHAR (for_rename)
ENCODING 128
SWIDTH 512 0
DWIDTH 8 0
BBX 8 16 0 -2
BITMAP
00
00
00
00
00
00
00
00
00
00
00
00
00
00
FF
FF
ENDCHAR
STARTCHAR (for_rename)
ENCODING 129
SWIDTH 512 0
DWIDTH 8 0
BBX 8 16 0 -2
BITMAP
00
00
00
00
00
00
00
00
00
00
00
00
FF
FF
FF
FF
ENDCHAR
STARTCHAR (for_rename)
ENCODING 130
SWIDTH 512 0
DWIDTH 8 0
BBX 8 16 0 -2
BITMAP
00
00
00
00
00
00
00
00
00
00
FF
FF
FF
FF
FF
FF
ENDCHAR
STARTCHAR (for_rename)
ENCODING 131
SWIDTH 512 0
DWIDTH 8 0
BBX 8 16 0 -2
BITMAP
00
00
00
00
00
00
00
00
FF
FF
FF
FF
FF
FF
FF
FF
ENDCHAR
STARTCHAR (for_rename)
ENCODING 132
SWIDTH 512 0
DWIDTH 8 0
BBX 8 16 0 -2
BITMAP
00
00
00
00
00
00
FF
FF
FF
FF
FF
FF
FF
FF
FF
FF
ENDCHAR
STARTCHAR (for_rename)
ENCODING 133
SWIDTH 512 0
DWIDTH 8 0
BBX 8 16 0 -2
BITMAP
00
00
00
00
FF
FF
FF
FF
FF
FF
FF
FF
FF
FF
FF
FF
ENDCHAR
STARTCHAR (for_rename)
ENCODING 134
SWIDTH 512 0
DWIDTH 8 0
BBX 8 16 0 -2
BITMAP
00
00
FF
FF
FF
FF
FF
FF
FF
FF
FF
FF
FF
FF
FF
FF
ENDCHAR
STARTCHAR (for_rename)
ENCODING 135
SWIDTH 512 0
DWIDTH 8 0
BBX 8 16 0 -2
BITMAP
FF
FF
FF
FF
FF
FF
FF
FF
FF
FF
FF
FF
FF
FF
FF
FF
ENDCHAR
STARTCHAR (for_rename)
ENCODING 136
SWIDTH 512 0
DWIDTH 8 0
BBX 8 16 0 -2
BITMAP
80
80
80
80
80
80
80
80
80
80
80
80
80
80
80
80
ENDCHAR
STARTCHAR (for_rename)
ENCODING 137
SWIDTH 512 0
DWIDTH 8 0
BBX 8 16 0 -2
BITMAP
C0
C0
C0
C0
C0
C0
C0
C0
C0
C0
C0
C0
C0
C0
C0
C0
ENDCHAR
STARTCHAR (for_rename)
ENCODING 138
SWIDTH 512 0
DWIDTH 8 0
BBX 8 16 0 -2
BITMAP
E0
E0
E0
E0
E0
E0
E0
E0
E0
E0
E0
E0
E0
E0
E0
E0
ENDCHAR
STARTCHAR (for_rename)
ENCODING 139
SWIDTH 512 0
DWIDTH 8 0
BBX 8 16 0 -2
BITMAP
F0
F0
F0
F0
F0
F0
F0
F0
F0
F0
F0
F0
F0
F0
F0
F0
ENDCHAR
STARTCHAR (for_rename)
ENCODING 140
SWIDTH 512 0
DWIDTH 8 0
BBX 8 16 0 -2
BITMAP
F8
F8
F8
F8
F8
F8
F8
F8
F8
F8
F8
F8
F8
F8
F8
F8
ENDCHAR
STARTCHAR (for_rename)
ENCODING 141
SWIDTH 512 0
DWIDTH 8 0
BBX 8 16 0 -2
BITMAP
FC
FC
FC
FC
FC
FC
FC
FC
FC
FC
FC
FC
FC
FC
FC
FC
ENDCHAR
STARTCHAR (for_rename)
ENCODING 142
SWIDTH 512 0
DWIDTH 8 0
BBX 8 16 0 -2
BITMAP
FE
FE
FE
FE
FE
FE
FE
FE
FE
FE
FE
FE
FE
FE
FE
FE
ENDCHAR
STARTCHAR (for_rename)
ENCODING 143
SWIDTH 512 0
DWIDTH 8 0
BBX 8 16 0 -2
BITMAP
08
08
08
08
08
08
08
08
FF
08
08
08
08
08
08
08
ENDCHAR
STARTCHAR (for_rename)
ENCODING 144
SWIDTH 512 0
DWIDTH 8 0
BBX 8 16 0 -2
BITMAP
08
08
08
08
08
08
08
08
FF
00
00
00
00
00
00
00
ENDCHAR
STARTCHAR (for_rename)
ENCODING 145
SWIDTH 512 0
DWIDTH 8 0
BBX 8 16 0 -2
BITMAP
00
00
00
00
00
00
00
00
FF
08
08
08
08
08
08
08
ENDCHAR
STARTCHAR (for_rename)
ENCODING 146
SWIDTH 512 0
DWIDTH 8 0
BBX 8 16 0 -2
BITMAP
08
08
08
08
08
08
08
08
F8
08
08
08
08
08
08
08
ENDCHAR
STARTCHAR (for_rename)
ENCODING 147
SWIDTH 512 0
DWIDTH 8 0
BBX 8 16 0 -2
BITMAP
08
08
08
08
08
08
08
08
0F
08
08
08
08
08
08
08
ENDCHAR
STARTCHAR (for_rename)
ENCODING 148
SWIDTH 512 0
DWIDTH 8 0
BBX 8 16 0 -2
BITMAP
FF
00
00
00
00
00
00
00
00
00
00
00
00
00
00
00
ENDCHAR
STARTCHAR (for_rename)
ENCODING 149
SWIDTH 512 0
DWIDTH 8 0
BBX 8 16 0 -2
BITMAP
00
00
00
00
00
00
00
00
FF
00
00
00
00
00
00
00
ENDCHAR
STARTCHAR (for_rename)
ENCODING 150
SWIDTH 512 0
DWIDTH 8 0
BBX 8 16 0 -2
BITMAP
08
08
08
08
08
08
08
08
08
08
08
08
08
08
08
08
ENDCHAR
STARTCHAR (for_rename)
ENCODING 151
SWIDTH 512 0
DWIDTH 8 0
BBX 8 16 0 -2
BITMAP
01
01
01
01
01
01
01
01
01
01
01
01
01
01
01
01
ENDCHAR
STARTCHAR (for_rename)
ENCODING 152
SWIDTH 512 0
DWIDTH 8 0
BBX 8 16 0 -2
BITMAP
00
00
00
00
00
00
00
00
0F
08
08
08
08
08
08
08
ENDCHAR
STARTCHAR (for_rename)
ENCODING 153
SWIDTH 512 0
DWIDTH 8 0
BBX 8 16 0 -2
BITMAP
00
00
00
00
00
00
00
00
F8
08
08
08
08
08
08
08
ENDCHAR
STARTCHAR (for_rename)
ENCODING 154
SWIDTH 512 0
DWIDTH 8 0
BBX 8 16 0 -2
BITMAP
08
08
08
08
08
08
08
08
0F
00
00
00
00
00
00
00
ENDCHAR
STARTCHAR (for_rename)
ENCODING 155
SWIDTH 512 0
DWIDTH 8 0
BBX 8 16 0 -2
BITMAP
08
08
08
08
08
08
08
08
F8
00
00
00
00
00
00
00
ENDCHAR
STARTCHAR (for_rename)
ENCODING 156
SWIDTH 512 0
DWIDTH 8 0
BBX 8 16 0 -2
BITMAP
00
00
00
00
00
00
00
00
01
02
04
04
08
08
08
08
ENDCHAR
STARTCHAR (for_rename)
ENCODING 157
SWIDTH 512 0
DWIDTH 8 0
BBX 8 16 0 -2
BITMAP
00
00
00
00
00
00
00
00
C0
20
10
10
08
08
08
08
ENDCHAR
STARTCHAR (for_rename)
ENCODING 158
SWIDTH 512 0
DWIDTH 8 0
BBX 8 16 0 -2
BITMAP
08
08
08
08
08
04
04
02
01
00
00
00
00
00
00
00
ENDCHAR
STARTCHAR (for_rename)
ENCODING 159
SWIDTH 512 0
DWIDTH 8 0
BBX 8 16 0 -2
BITMAP
08
08
08
08
08
10
10
20
C0
00
00
00
00
00
00
00
ENDCHAR
STARTCHAR (for_rename)
ENCODING 161
SWIDTH 512 0
DWIDTH 8 0
BBX 8 16 0 -2
BITMAP
00
00
00
00
00
00
00
00
00
00
18
24
24
18
00
00
ENDCHAR
STARTCHAR (for_rename)
ENCODING 162
SWIDTH 512 0
DWIDTH 8 0
BBX 8 16 0 -2
BITMAP
00
00
00
1E
10
10
10
10
10
10
10
10
00
00
00
00
ENDCHAR
STARTCHAR (for_rename)
ENCODING 163
SWIDTH 512 0
DWIDTH 8 0
BBX 8 16 0 -2
BITMAP
00
00
00
00
00
04
04
04
04
04
04
04
04
3C
00
00
ENDCHAR
STARTCHAR (for_rename)
ENCODING 164
SWIDTH 512 0
DWIDTH 8 0
BBX 8 16 0 -2
BITMAP
00
00
00
00
00
00
00
00
00
00
00
40
20
10
00
00
ENDCHAR
STARTCHAR (for_rename)
ENCODING 165
SWIDTH 512 0
DWIDTH 8 0
BBX 8 16 0 -2
BITMAP
00
00
00
00
00
00
00
18
18
00
00
00
00
00
00
00
ENDCHAR
STARTCHAR (for_rename)
ENCODING 166
SWIDTH 512 0
DWIDTH 8 0
BBX 8 16 0 -2
BITMAP
00
00
00
00
7F
01
01
7F
01
01
02
04
08
30
00
00
ENDCHAR
STARTCHAR (for_rename)
ENCODING 167
SWIDTH 512 0
DWIDTH 8 0
BBX 8 16 0 -2
BITMAP
00
00
00
00
00
00
00
7F
01
09
0E
08
10
60
00
00
ENDCHAR
STARTCHAR (for_rename)
ENCODING 168
SWIDTH 512 0
DWIDTH 8 0
BBX 8 16 0 -2
BITMAP
00
00
00
00
00
00
01
02
04
1C
64
04
04
04
00
00
ENDCHAR
STARTCHAR (for_rename)
ENCODING 169
SWIDTH 512 0
DWIDTH 8 0
BBX 8 16 0 -2
BITMAP
00
00
00
00
00
00
08
7F
41
41
01
02
04
18
00
00
ENDCHAR
STARTCHAR (for_rename)
ENCODING 170
SWIDTH 512 0
DWIDTH 8 0
BBX 8 16 0 -2
BITMAP
00
00
00
00
00
00
00
3E
08
08
08
08
08
7F
00
00
ENDCHAR
STARTCHAR (for_rename)
ENCODING 171
SWIDTH 512 0
DWIDTH 8 0
BBX 8 16 0 -2
BITMAP
00
00
00
00
00
00
04
04
7F
04
0C
14
24
44
00
00
ENDCHAR
STARTCHAR (for_rename)
ENCODING 172
SWIDTH 512 0
DWIDTH 8 0
BBX 8 16 0 -2
BITMAP
00
00
00
00
00
00
10
10
7F
11
12
10
10
10
00
00
ENDCHAR
STARTCHAR (for_rename)
ENCODING 173
SWIDTH 512 0
DWIDTH 8 0
BBX 8 16 0 -2
BITMAP
00
00
00
00
00
00
00
3C
04
04
04
04
04
7F
00
00
ENDCHAR
STARTCHAR (for_rename)
ENCODING 174
SWIDTH 512 0
DWIDTH 8 0
BBX 8 16 0 -2
BITMAP
00
00
00
00
00
00
00
7E
02
02
3E
02
02
7E
00
00
ENDCHAR
STARTCHAR (for_rename)
ENCODING 175
SWIDTH 512 0
DWIDTH 8 0
BBX 8 16 0 -2
BITMAP
00
00
00
00
00
00
00
49
49
49
01
02
04
18
00
00
ENDCHAR
STARTCHAR (for_rename)
ENCODING 176
SWIDTH 512 0
DWIDTH 8 0
BBX 8 16 0 -2
BITMAP
00
00
00
00
00
00
00
00
00
7F
00
00
00
00
00
00
ENDCHAR
STARTCHAR (for_rename)
ENCODING 177
SWIDTH 512 0
DWIDTH 8 0
BBX 8 16 0 -2
BITMAP
00
00
00
00
7F
01
01
09
0E
08
10
10
20
40
00
00
ENDCHAR
STARTCHAR (for_rename)
ENCODING 178
SWIDTH 512 0
DWIDTH 8 0
BBX 8 16 0 -2
BITMAP
00
00
00
01
01
02
02
04
1C
64
04
04
04
04
00
00
ENDCHAR
STARTCHAR (for_rename)
ENCODING 179
SWIDTH 512 0
DWIDTH 8 0
BBX 8 16 0 -2
BITMAP
00
00
00
08
08
7F
41
41
41
01
01
02
04
18
00
00
ENDCHAR
STARTCHAR (for_rename)
ENCODING 180
SWIDTH 512 0
DWIDTH 8 0
BBX 8 16 0 -2
BITMAP
00
00
00
00
3E
08
08
08
08
08
08
08
08
7F
00
00
ENDCHAR
STARTCHAR (for_rename)
ENCODING 181
SWIDTH 512 0
DWIDTH 8 0
BBX 8 16 0 -2
BITMAP
00
00
00
04
04
7F
04
0C
0C
14
14
24
44
04
00
00
ENDCHAR
STARTCHAR (for_rename)
ENCODING 182
SWIDTH 512 0
DWIDTH 8 0
BBX 8 16 0 -2
BITMAP
00
00
00
08
08
7F
09
09
09
11
11
21
21
46
00
00
ENDCHAR
STARTCHAR (for_rename)
ENCODING 183
SWIDTH 512 0
DWIDTH 8 0
BBX 8 16 0 -2
BITMAP
00
00
00
08
08
7F
08
08
08
08
7F
08
08
08
00
00
ENDCHAR
STARTCHAR (for_rename)
ENCODING 184
SWIDTH 512 0
DWIDTH 8 0
BBX 8 16 0 -2
BITMAP
00
00
00
10
1F
11
21
21
41
01
02
04
08
30
00
00
ENDCHAR
STARTCHAR (for_rename)
ENCODING 185
SWIDTH 512 0
DWIDTH 8 0
BBX 8 16 0 -2
BITMAP
00
00
00
20
20
3F
24
44
04
04
04
08
10
20
00
00
ENDCHAR
STARTCHAR (for_rename)
ENCODING 186
SWIDTH 512 0
DWIDTH 8 0
BBX 8 16 0 -2
BITMAP
00
00
00
00
7F
01
01
01
01
01
01
01
01
7F
00
00
ENDCHAR
STARTCHAR (for_rename)
ENCODING 187
SWIDTH 512 0
DWIDTH 8 0
BBX 8 16 0 -2
BITMAP
00
00
00
22
22
22
7F
22
22
22
02
04
08
10
00
00
ENDCHAR
STARTCHAR (for_rename)
ENCODING 188
SWIDTH 512 0
DWIDTH 8 0
BBX 8 16 0 -2
BITMAP
00
00
00
00
60
11
01
61
11
01
02
04
08
70
00
00
ENDCHAR
STARTCHAR (for_rename)
ENCODING 189
SWIDTH 512 0
DWIDTH 8 0
BBX 8 16 0 -2
BITMAP
00
00
00
00
7E
02
02
04
04
08
08
14
22
41
00
00
ENDCHAR
STARTCHAR (for_rename)
ENCODING 190
SWIDTH 512 0
DWIDTH 8 0
BBX 8 16 0 -2
BITMAP
00
00
00
10
10
7F
11
11
12
10
10
10
10
0F
00
00
ENDCHAR
STARTCHAR (for_rename)
ENCODING 191
SWIDTH 512 0
DWIDTH 8 0
BBX 8 16 0 -2
BITMAP
00
00
00
00
41
21
21
11
11
01
02
04
08
30
00
00
ENDCHAR
STARTCHAR (for_rename)
ENCODING 192
SWIDTH 512 0
DWIDTH 8 0
BBX 8 16 0 -2
BITMAP
00
00
00
10
1F
11
21
21
51
09
06
04
08
30
00
00
ENDCHAR
STARTCHAR (for_rename)
ENCODING 193
SWIDTH 512 0
DWIDTH 8 0
BBX 8 16 0 -2
BITMAP
00
00
00
03
3C
04
04
7F
04
04
04
08
10
60
00
00
ENDCHAR
STARTCHAR (for_rename)
ENCODING 194
SWIDTH 512 0
DWIDTH 8 0
BBX 8 16 0 -2
BITMAP
00
00
00
00
49
49
49
49
01
01
02
04
08
30
00
00
ENDCHAR
STARTCHAR (for_rename)
ENCODING 195
SWIDTH 512 0
DWIDTH 8 0
BBX 8 16 0 -2
BITMAP
00
00
00
00
3E
00
00
7F
08
08
08
08
10
60
00
00
ENDCHAR
STARTCHAR (for_rename)
ENCODING 196
SWIDTH 512 0
DWIDTH 8 0
BBX 8 16 0 -2
BITMAP
00
00
00
20
20
20
20
30
28
24
22
20
20
20
00
00
ENDCHAR
STARTCHAR (for_rename)
ENCODING 197
SWIDTH 512 0
DWIDTH 8 0
BBX 8 16 0 -2
BITMAP
00
00
00
08
08
08
7F
08
08
08
08
08
10
60
00
00
ENDCHAR
STARTCHAR (for_rename)
ENCODING 198
SWIDTH 512 0
DWIDTH 8 0
BBX 8 16 0 -2
BITMAP
00
00
00
00
3E
00
00
00
00
00
00
00
00
7F
00
00
ENDCHAR
STARTCHAR (for_rename)
ENCODING 199
SWIDTH 512 0
DWIDTH 8 0
BBX 8 16 0 -2
BITMAP
00
00
00
00
7E
02
02
22
12
0C
08
14
22
40
00
00
ENDCHAR
STARTCHAR (for_rename)
ENCODING 200
SWIDTH 512 0
DWIDTH 8 0
BBX 8 16 0 -2
BITMAP
00
00
00
08
08
7F
01
02
04
0C
1A
69
08
08
00
00
ENDCHAR
STARTCHAR (for_rename)
ENCODING 201
SWIDTH 512 0
DWIDTH 8 0
BBX 8 16 0 -2
BITMAP
00
00
00
00
01
01
01
02
02
04
04
08
10
60
00
00
ENDCHAR
STARTCHAR (for_rename)
ENCODING 202
SWIDTH 512 0
DWIDTH 8 0
BBX 8 16 0 -2
BITMAP
00
00
00
08
04
22
21
21
21
21
21
21
41
00
00
00
ENDCHAR
STARTCHAR (for_rename)
ENCODING 203
SWIDTH 512 0
DWIDTH 8 0
BBX 8 16 0 -2
BITMAP
00
00
00
40
40
40
7F
40
40
40
40
40
3F
00
00
00
ENDCHAR
STARTCHAR (for_rename)
ENCODING 204
SWIDTH 512 0
DWIDTH 8 0
BBX 8 16 0 -2
BITMAP
00
00
00
00
7F
01
01
02
02
04
04
08
10
20
00
00
ENDCHAR
STARTCHAR (for_rename)
ENCODING 205
SWIDTH 512 0
DWIDTH 8 0
BBX 8 16 0 -2
BITMAP
00
00
00
00
10
18
28
24
44
02
02
01
01
00
00
00
ENDCHAR
STARTCHAR (for_rename)
ENCODING 206
SWIDTH 512 0
DWIDTH 8 0
BBX 8 16 0 -2
BITMAP
00
00
00
08
08
08
7F
08
08
2A
2A
49
49
08
00
00
ENDCHAR
STARTCHAR (for_rename)
ENCODING 207
SWIDTH 512 0
DWIDTH 8 0
BBX 8 16 0 -2
BITMAP
00
00
00
00
7F
01
01
02
02
24
18
08
04
02
00
00
ENDCHAR
STARTCHAR (for_rename)
ENCODING 208
SWIDTH 512 0
DWIDTH 8 0
BBX 8 16 0 -2
BITMAP
00
00
00
00
3C
02
00
00
3C
02
00
00
7E
01
00
00
ENDCHAR
STARTCHAR (for_rename)
ENCODING 209
SWIDTH 512 0
DWIDTH 8 0
BBX 8 16 0 -2
BITMAP
00
00
00
08
08
08
10
10
22
22
42
42
7D
01
00
00
ENDCHAR
STARTCHAR (for_rename)
ENCODING 210
SWIDTH 512 0
DWIDTH 8 0
BBX 8 16 0 -2
BITMAP
00
00
00
02
02
02
22
12
0A
04
0A
11
20
40
00
00
ENDCHAR
STARTCHAR (for_rename)
ENCODING 211
SWIDTH 512 0
DWIDTH 8 0
BBX 8 16 0 -2
BITMAP
00
00
00
00
7F
10
10
10
7F
10
10
10
10
0F
00
00
ENDCHAR
STARTCHAR (for_rename)
ENCODING 212
SWIDTH 512 0
DWIDTH 8 0
BBX 8 16 0 -2
BITMAP
00
00
00
10
10
7F
11
11
12
10
10
10
10
10
00
00
ENDCHAR
STARTCHAR (for_rename)
ENCODING 213
SWIDTH 512 0
DWIDTH 8 0
BBX 8 16 0 -2
BITMAP
00
00
00
00
3C
04
04
04
04
04
04
04
04
7F
00
00
ENDCHAR
STARTCHAR (for_rename)
ENCODING 214
SWIDTH 512 0
DWIDTH 8 0
BBX 8 16 0 -2
BITMAP
00
00
00
00
7F
01
01
01
3F
01
01
01
01
7F
00
00
ENDCHAR
STARTCHAR (for_rename)
ENCODING 215
SWIDTH 512 0
DWIDTH 8 0
BBX 8 16 0 -2
BITMAP
00
00
00
3E
00
00
7F
01
01
01
02
04
08
30
00
00
ENDCHAR
STARTCHAR (for_rename)
ENCODING 216
SWIDTH 512 0
DWIDTH 8 0
BBX 8 16 0 -2
BITMAP
00
00
00
22
22
22
22
22
22
02
02
04
04
18
00
00
ENDCHAR
STARTCHAR (for_rename)
ENCODING 217
SWIDTH 512 0
DWIDTH 8 0
BBX 8 16 0 -2
BITMAP
00
00
00
08
08
28
28
28
28
29
29
2A
2C
48
00
00
ENDCHAR
STARTCHAR (for_rename)
ENCODING 218
SWIDTH 512 0
DWIDTH 8 0
BBX 8 16 0 -2
BITMAP
00
00
00
20
20
20
20
20
20
21
22
24
28
30
00
00
ENDCHAR
STARTCHAR (for_rename)
ENCODING 219
SWIDTH 512 0
DWIDTH 8 0
BBX 8 16 0 -2
BITMAP
00
00
00
00
7F
41
41
41
41
41
41
41
41
7F
00
00
ENDCHAR
STARTCHAR (for_rename)
ENCODING 220
SWIDTH 512 0
DWIDTH 8 0
BBX 8 16 0 -2
BITMAP
00
00
00
00
7F
41
41
41
01
01
02
04
08
30
00
00
ENDCHAR
STARTCHAR (for_rename)
ENCODING 221
SWIDTH 512 0
DWIDTH 8 0
BBX 8 16 0 -2
BITMAP
00
00
00
00
60
18
01
01
01
01
02
04
08
70
00
00
ENDCHAR
STARTCHAR (for_rename)
ENCODING 222
SWIDTH 512 0
DWIDTH 8 0
BBX 8 16 0 -2
BITMAP
00
00
48
24
12
00
00
00
00
00
00
00
00
00
00
00
ENDCHAR
STARTCHAR (for_rename)
ENCODING 223
SWIDTH 512 0
DWIDTH 8 0
BBX 8 16 0 -2
BITMAP
00
00
30
48
48
30
00
00
00
00
00
00
00
00
00
00
ENDCHAR
STARTCHAR (for_rename)
ENCODING 224
SWIDTH 512 0
DWIDTH 8 0
BBX 8 16 0 -2
BITMAP
00
00
00
00
FF
00
00
00
00
00
FF
00
00
00
00
00
ENDCHAR
STARTCHAR (for_rename)
ENCODING 225
SWIDTH 512 0
DWIDTH 8 0
BBX 8 16 0 -2
BITMAP
08
08
08
08
0F
08
08
08
08
08
0F
08
08
08
08
08
ENDCHAR
STARTCHAR (for_rename)
ENCODING 226
SWIDTH 512 0
DWIDTH 8 0
BBX 8 16 0 -2
BITMAP
08
08
08
08
FF
08
08
08
08
08
FF
08
08
08
08
08
ENDCHAR
STARTCHAR (for_rename)
ENCODING 227
SWIDTH 512 0
DWIDTH 8 0
BBX 8 16 0 -2
BITMAP
08
08
08
08
F8
08
08
08
08
08
F8
08
08
08
08
08
ENDCHAR
STARTCHAR (for_rename)
ENCODING 228
SWIDTH 512 0
DWIDTH 8 0
BBX 8 16 0 -2
BITMAP
01
01
03
03
07
07
0F
0F
1F
1F
3F
3F
7F
7F
FF
FF
ENDCHAR
STARTCHAR (for_rename)
ENCODING 229
SWIDTH 512 0
DWIDTH 8 0
BBX 8 16 0 -2
BITMAP
80
80
C0
C0
E0
E0
F0
F0
F8
F8
FC
FC
FE
FE
FF
FF
ENDCHAR
STARTCHAR (for_rename)
ENCODING 230
SWIDTH 512 0
DWIDTH 8 0
BBX 8 16 0 -2
BITMAP
FF
FF
7F
7F
3F
3F
1F
1F
0F
0F
07
07
03
03
01
01
ENDCHAR
STARTCHAR (for_rename)
ENCODING 231
SWIDTH 512 0
DWIDTH 8 0
BBX 8 16 0 -2
BITMAP
FF
FF
FE
FE
FC
FC
F8
F8
F0
F0
E0
E0
C0
C0
80
80
ENDCHAR
STARTCHAR (for_rename)
ENCODING 232
SWIDTH 512 0
DWIDTH 8 0
BBX 8 16 0 -2
BITMAP
08
08
1C
1C
3E
3E
7F
7F
7F
7F
2A
08
1C
3E
00
00
ENDCHAR
STARTCHAR (for_rename)
ENCODING 233
SWIDTH 512 0
DWIDTH 8 0
BBX 8 16 0 -2
BITMAP
36
36
7F
7F
7F
7F
7F
7F
3E
3E
1C
1C
08
08
00
00
ENDCHAR
STARTCHAR (for_rename)
ENCODING 234
SWIDTH 512 0
DWIDTH 8 0
BBX 8 16 0 -2
BITMAP
08
08
1C
1C
3E
3E
7F
7F
3E
3E
1C
1C
08
08
00
00
ENDCHAR
STARTCHAR (for_rename)
ENCODING 235
SWIDTH 512 0
DWIDTH 8 0
BBX 8 16 0 -2
BITMAP
08
1C
1C
1C
2A
7F
7F
7F
7F
2A
08
08
1C
3E
00
00
ENDCHAR
STARTCHAR (for_rename)
ENCODING 236
SWIDTH 512 0
DWIDTH 8 0
BBX 8 16 0 -2
BITMAP
00
00
1C
3E
7F
7F
7F
7F
7F
7F
7F
7F
3E
1C
00
00
ENDCHAR
STARTCHAR (for_rename)
ENCODING 237
SWIDTH 512 0
DWIDTH 8 0
BBX 8 16 0 -2
BITMAP
00
00
1C
22
41
41
41
41
41
41
41
41
22
1C
00
00
ENDCHAR
STARTCHAR (for_rename)
ENCODING 238
SWIDTH 512 0
DWIDTH 8 0
BBX 8 16 0 -2
BITMAP
01
01
02
02
04
04
08
08
10
10
20
20
40
40
80
80
ENDCHAR
STARTCHAR (for_rename)
ENCODING 239
SWIDTH 512 0
DWIDTH 8 0
BBX 8 16 0 -2
BITMAP
80
80
40
40
20
20
10
10
08
08
04
04
02
02
01
01
ENDCHAR
STARTCHAR (for_rename)
ENCODING 240
SWIDTH 512 0
DWIDTH 8 0
BBX 8 16 0 -2
BITMAP
81
81
42
42
24
24
18
18
18
18
24
24
42
42
81
81
ENDCHAR
STARTCHAR (for_rename)
ENCODING 241
SWIDTH 512 0
DWIDTH 8 0
BBX 8 16 0 -2
BITMAP
00
7F
49
49
49
49
49
7F
41
41
41
41
41
43
00
00
ENDCHAR
STARTCHAR (for_rename)
ENCODING 242
SWIDTH 512 0
DWIDTH 8 0
BBX 8 16 0 -2
BITMAP
00
20
20
3F
44
04
3F
24
24
24
7F
04
04
04
00
00
ENDCHAR
STARTCHAR (for_rename)
ENCODING 243
SWIDTH 512 0
DWIDTH 8 0
BBX 8 16 0 -2
BITMAP
00
3F
21
21
21
3F
21
21
21
3F
21
21
41
43
00
00
ENDCHAR
STARTCHAR (for_rename)
ENCODING 244
SWIDTH 512 0
DWIDTH 8 0
BBX 8 16 0 -2
BITMAP
00
7E
42
42
42
42
42
7E
42
42
42
42
42
7E
00
00
ENDCHAR
STARTCHAR (for_rename)
ENCODING 245
SWIDTH 512 0
DWIDTH 8 0
BBX 8 16 0 -2
BITMAP
00
04
04
7E
54
54
5F
72
5F
52
5A
76
02
06
00
00
ENDCHAR
STARTCHAR (for_rename)
ENCODING 246
SWIDTH 512 0
DWIDTH 8 0
BBX 8 16 0 -2
BITMAP
00
04
12
21
21
41
00
7F
11
11
11
11
21
43
00
00
ENDCHAR
STARTCHAR (for_rename)
ENCODING 247
SWIDTH 512 0
DWIDTH 8 0
BBX 8 16 0 -2
BITMAP
00
14
24
64
2C
2E
75
24
75
65
65
22
24
28
00
00
ENDCHAR
STARTCHAR (for_rename)
ENCODING 252
SWIDTH 512 0
DWIDTH 8 0
BBX 8 16 0 -2
BITMAP
00
00
00
00
00
40
20
10
08
04
02
01
00
00
00
00
ENDCHAR
STARTCHAR 20
ENCODING    32
SWIDTH 512 0
DWIDTH 8 0
BBX 8 16 0 -2
BITMAP
00
00
00
00
00
00
00
00
00
00
00
00
00
00
00
00
ENDCHAR
STARTCHAR 21
ENCODING    33
SWIDTH 512 0
DWIDTH 8 0
BBX 8 16 0 -2
BITMAP
00
10
10
10
10
10
10
10
10
10
00
00
10
10
00
00
ENDCHAR
STARTCHAR 22
ENCODING    34
SWIDTH 512 0
DWIDTH 8 0
BBX 8 16 0 -2
BITMAP
00
6c
6c
24
48
00
00
00
00
00
00
00
00
00
00
00
ENDCHAR
STARTCHAR 23
ENCODING    35
SWIDTH 512 0
DWIDTH 8 0
BBX 8 16 0 -2
BITMAP
00
44
44
fe
44
44
44
44
44
44
fe
44
44
44
00
00
ENDCHAR
STARTCHAR 24
ENCODING    36
SWIDTH 512 0
DWIDTH 8 0
BBX 8 16 0 -2
BITMAP
00
10
10
7c
92
90
90
7c
12
12
92
7c
10
10
00
00
ENDCHAR
STARTCHAR 25
ENCODING    37
SWIDTH 512 0
DWIDTH 8 0
BBX 8 16 0 -2
BITMAP
00
00
60
90
92
64
08
10
20
4c
92
12
0c
00
00
00
ENDCHAR
STARTCHAR 26
ENCODING    38
SWIDTH 512 0
DWIDTH 8 0
BBX 8 16 0 -2
BITMAP
00
00
70
88
88
88
50
20
50
8a
84
8c
72
00
00
00
ENDCHAR
STARTCHAR 27
ENCODING    39
SWIDTH 512 0
DWIDTH 8 0
BBX 8 16 0 -2
BITMAP
00
30
30
10
20
00
00
00
00
00
00
00
00
00
00
00
ENDCHAR
STARTCHAR 28
ENCODING    40
SWIDTH 512 0
DWIDTH 8 0
BBX 8 16 0 -2
BITMAP
00
04
08
10
10
20
20
20
20
20
10
10
08
04
00
00
ENDCHAR
STARTCHAR 29
ENCODING    41
SWIDTH 512 0
DWIDTH 8 0
BBX 8 16 0 -2
BITMAP
00
40
20
10
10
08
08
08
08
08
10
10
20
40
00
00
ENDCHAR
STARTCHAR 2a
ENCODING    42
SWIDTH 512 0
DWIDTH 8 0
BBX 8 16 0 -2
BITMAP
00
00
00
00
10
54
38
10
38
54
10
00
00
00
00
00
ENDCHAR
STARTCHAR 2b
ENCODING    43
SWIDTH 512 0
DWIDTH 8 0
BBX 8 16 0 -2
BITMAP
00
00
00
10
10
10
10
fe
10
10
10
10
00
00
00
00
ENDCHAR
STARTCHAR 2c
ENCODING    44
SWIDTH 512 0
DWIDTH 8 0
BBX 8 16 0 -2
BITMAP
00
00
00
00
00
00
00
00
00
00
30
30
10
10
20
00
ENDCHAR
STARTCHAR 2d
ENCODING    45
SWIDTH 512 0
DWIDTH 8 0
BBX 8 16 0 -2
BITMAP
00
00
00
00
00
00
00
fe
00
00
00
00
00
00
00
00
ENDCHAR
STARTCHAR 2e
ENCODING    46
SWIDTH 512 0
DWIDTH 8 0
BBX 8 16 0 -2
BITMAP
00
00
00
00
00
00
00
00
00
00
00
00
30
30
00
00
ENDCHAR
STARTCHAR 2f
ENCODING    47
SWIDTH 512 0
DWIDTH 8 0
BBX 8 16 0 -2
BITMAP
00
00
00
04
04
08
08
10
10
20
20
40
40
00
00
00
ENDCHAR
STARTCHAR 30
ENCODING    48
SWIDTH 512 0
DWIDTH 8 0
BBX 8 16 0 -2
BITMAP
00
3c
42
42
46
46
4a
4a
52
52
62
42
42
3c
00
00
ENDCHAR
STARTCHAR 31
ENCODING    49
SWIDTH 512 0
DWIDTH 8 0
BBX 8 16 0 -2
BITMAP
00
10
30
50
10
10
10
10
10
10
10
10
10
7c
00
00
ENDCHAR
STARTCHAR 32
ENCODING    50
SWIDTH 512 0
DWIDTH 8 0
BBX 8 16 0 -2
BITMAP
00
38
44
82
82
82
04
08
10
20
40
80
80
fe
00
00
ENDCHAR
STARTCHAR 33
ENCODING    51
SWIDTH 512 0
DWIDTH 8 0
BBX 8 16 0 -2
BITMAP
00
7c
04
08
10
20
78
04
02
02
02
82
44
38
00
00
ENDCHAR
STARTCHAR 34
ENCODING    52
SWIDTH 512 0
DWIDTH 8 0
BBX 8 16 0 -2
BITMAP
00
08
08
18
18
28
28
48
48
88
fe
08
08
08
00
00
ENDCHAR
STARTCHAR 35
ENCODING    53
SWIDTH 512 0
DWIDTH 8 0
BBX 8 16 0 -2
BITMAP
00
fe
80
80
80
b8
c4
02
02
02
02
82
44
38
00
00
ENDCHAR
STARTCHAR 36
ENCODING    54
SWIDTH 512 0
DWIDTH 8 0
BBX 8 16 0 -2
BITMAP
00
38
44
82
80
80
b8
c4
82
82
82
82
44
38
00
00
ENDCHAR
STARTCHAR 37
ENCODING    55
SWIDTH 512 0
DWIDTH 8 0
BBX 8 16 0 -2
BITMAP
00
fe
82
82
02
04
08
08
10
10
10
10
10
10
00
00
ENDCHAR
STARTCHAR 38
ENCODING    56
SWIDTH 512 0
DWIDTH 8 0
BBX 8 16 0 -2
BITMAP
00
38
44
82
82
82
44
38
44
82
82
82
44
38
00
00
ENDCHAR
STARTCHAR 39
ENCODING    57
SWIDTH 512 0
DWIDTH 8 0
BBX 8 16 0 -2
BITMAP
00
38
44
82
82
82
82
46
3a
02
02
82
44
38
00
00
ENDCHAR
STARTCHAR 3a
ENCODING    58
SWIDTH 512 0
DWIDTH 8 0
BBX 8 16 0 -2
BITMAP
00
00
00
00
30
30
00
00
00
00
30
30
00
00
00
00
ENDCHAR
STARTCHAR 3b
ENCODING    59
SWIDTH 512 0
DWIDTH 8 0
BBX 8 16 0 -2
BITMAP
00
00
00
00
30
30
00
00
00
00
30
30
10
10
20
00
ENDCHAR
STARTCHAR 3c
ENCODING    60
SWIDTH 512 0
DWIDTH 8 0
BBX 8 16 0 -2
BITMAP
00
00
02
04
08
10
20
40
20
10
08
04
02
00
00
00
ENDCHAR
STARTCHAR 3d
ENCODING    61
SWIDTH 512 0
DWIDTH 8 0
BBX 8 16 0 -2
BITMAP
00
00
00
00
00
00
fe
00
00
fe
00
00
00
00
00
00
ENDCHAR
STARTCHAR 3e
ENCODING    62
SWIDTH 512 0
DWIDTH 8 0
BBX 8 16 0 -2
BITMAP
00
00
40
20
10
08
04
02
04
08
10
20
40
00
00
00
ENDCHAR
STARTCHAR 3f
ENCODING    63
SWIDTH 512 0
DWIDTH 8 0
BBX 8 16 0 -2
BITMAP
00
38
44
82
82
02
04
08
10
10
00
00
10
10
00
00
ENDCHAR
STARTCHAR 40
ENCODING    64
SWIDTH 512 0
DWIDTH 8 0
BBX 8 16 0 -2
BITMAP
00
38
44
82
92
aa
aa
aa
aa
aa
94
80
40
3c
00
00
ENDCHAR
STARTCHAR 41
ENCODING    65
SWIDTH 512 0
DWIDTH 8 0
BBX 8 16 0 -2
BITMAP
00
10
28
44
82
82
82
82
fe
82
82
82
82
82
00
00
ENDCHAR
STARTCHAR 42
ENCODING    66
SWIDTH 512 0
DWIDTH 8 0
BBX 8 16 0 -2
BITMAP
00
f8
44
42
42
42
44
78
44
42
42
42
44
f8
00
00
ENDCHAR
STARTCHAR 43
ENCODING    67
SWIDTH 512 0
DWIDTH 8 0
BBX 8 16 0 -2
BITMAP
00
38
44
82
80
80
80
80
80
80
80
82
44
38
00
00
ENDCHAR
STARTCHAR 44
ENCODING    68
SWIDTH 512 0
DWIDTH 8 0
BBX 8 16 0 -2
BITMAP
00
f8
44
42
42
42
42
42
42
42
42
42
44
f8
00
00
ENDCHAR
STARTCHAR 45
ENCODING    69
SWIDTH 512 0
DWIDTH 8 0
BBX 8 16 0 -2
BITMAP
00
7e
40
40
40
40
40
7c
40
40
40
40
40
7e
00
00
ENDCHAR
STARTCHAR 46
ENCODING    70
SWIDTH 512 0
DWIDTH 8 0
BBX 8 16 0 -2
BITMAP
00
7e
40
40
40
40
40
7c
40
40
40
40
40
40
00
00
ENDCHAR
STARTCHAR 47
ENCODING    71
SWIDTH 512 0
DWIDTH 8 0
BBX 8 16 0 -2
BITMAP
00
38
44
82
80
80
80
80
8e
82
82
82
46
3a
00
00
ENDCHAR
STARTCHAR 48
ENCODING    72
SWIDTH 512 0
DWIDTH 8 0
BBX 8 16 0 -2
BITMAP
00
82
82
82
82
82
82
fe
82
82
82
82
82
82
00
00
ENDCHAR
STARTCHAR 49
ENCODING    73
SWIDTH 512 0
DWIDTH 8 0
BBX 8 16 0 -2
BITMAP
00
38
10
10
10
10
10
10
10
10
10
10
10
38
00
00
ENDCHAR
STARTCHAR 4a
ENCODING    74
SWIDTH 512 0
DWIDTH 8 0
BBX 8 16 0 -2
BITMAP
00
1c
08
08
08
08
08
08
08
08
08
88
88
70
00
00
ENDCHAR
STARTCHAR 4b
ENCODING    75
SWIDTH 512 0
DWIDTH 8 0
BBX 8 16 0 -2
BITMAP
00
42
42
44
44
48
48
70
48
48
44
44
42
42
00
00
ENDCHAR
STARTCHAR 4c
ENCODING    76
SWIDTH 512 0
DWIDTH 8 0
BBX 8 16 0 -2
BITMAP
00
80
80
80
80
80
80
80
80
80
80
80
80
fe
00
00
ENDCHAR
STARTCHAR 4d
ENCODING    77
SWIDTH 512 0
DWIDTH 8 0
BBX 8 16 0 -2
BITMAP
00
82
c6
c6
aa
aa
92
92
92
82
82
82
82
82
00
00
ENDCHAR
STARTCHAR 4e
ENCODING    78
SWIDTH 512 0
DWIDTH 8 0
BBX 8 16 0 -2
BITMAP
00
82
82
c2
a2
a2
92
92
8a
8a
86
86
82
82
00
00
ENDCHAR
STARTCHAR 4f
ENCODING    79
SWIDTH 512 0
DWIDTH 8 0
BBX 8 16 0 -2
BITMAP
00
38
44
82
82
82
82
82
82
82
82
82
44
38
00
00
ENDCHAR
STARTCHAR 50
ENCODING    80
SWIDTH 512 0
DWIDTH 8 0
BBX 8 16 0 -2
BITMAP
00
f8
84
82
82
82
84
f8
80
80
80
80
80
80
00
00
ENDCHAR
STARTCHAR 51
ENCODING    81
SWIDTH 512 0
DWIDTH 8 0
BBX 8 16 0 -2
BITMAP
00
38
44
82
82
82
82
82
82
82
ba
c6
44
3a
00
00
ENDCHAR
STARTCHAR 52
ENCODING    82
SWIDTH 512 0
DWIDTH 8 0
BBX 8 16 0 -2
BITMAP
00
f8
84
82
82
82
84
f8
88
88
84
84
82
82
00
00
ENDCHAR
STARTCHAR 53
ENCODING    83
SWIDTH 512 0
DWIDTH 8 0
BBX 8 16 0 -2
BITMAP
00
38
44
82
80
80
40
38
04
02
02
82
44
38
00
00
ENDCHAR
STARTCHAR 54
ENCODING    84
SWIDTH 512 0
DWIDTH 8 0
BBX 8 16 0 -2
BITMAP
00
fe
10
10
10
10
10
10
10
10
10
10
10
10
00
00
ENDCHAR
STARTCHAR 55
ENCODING    85
SWIDTH 512 0
DWIDTH 8 0
BBX 8 16 0 -2
BITMAP
00
82
82
82
82
82
82
82
82
82
82
82
82
7c
00
00
ENDCHAR
STARTCHAR 56
ENCODING    86
SWIDTH 512 0
DWIDTH 8 0
BBX 8 16 0 -2
BITMAP
00
82
82
82
82
82
82
82
44
44
28
28
10
10
00
00
ENDCHAR
STARTCHAR 57
ENCODING    87
SWIDTH 512 0
DWIDTH 8 0
BBX 8 16 0 -2
BITMAP
00
82
82
82
82
82
82
92
92
92
aa
aa
44
44
00
00
ENDCHAR
STARTCHAR 58
ENCODING    88
SWIDTH 512 0
DWIDTH 8 0
BBX 8 16 0 -2
BITMAP
00
82
82
44
44
28
28
10
28
28
44
44
82
82
00
00
ENDCHAR
STARTCHAR 59
ENCODING    89
SWIDTH 512 0
DWIDTH 8 0
BBX 8 16 0 -2
BITMAP
00
82
82
82
82
44
28
10
10
10
10
10
10
10
00
00
ENDCHAR
STARTCHAR 5a
ENCODING    90
SWIDTH 512 0
DWIDTH 8 0
BBX 8 16 0 -2
BITMAP
00
fe
02
04
04
08
08
10
20
20
40
40
80
fe
00
00
ENDCHAR
STARTCHAR 5b
ENCODING    91
SWIDTH 512 0
DWIDTH 8 0
BBX 8 16 0 -2
BITMAP
00
3c
20
20
20
20
20
20
20
20
20
20
20
3c
00
00
ENDCHAR
STARTCHAR 5c
ENCODING    92
SWIDTH 512 0
DWIDTH 8 0
BBX 8 16 0 -2
BITMAP
00
82
44
28
10
fe
10
10
10
fe
10
10
10
10
00
00
ENDCHAR
STARTCHAR 5d
ENCODING    93
SWIDTH 512 0
DWIDTH 8 0
BBX 8 16 0 -2
BITMAP
00
78
08
08
08
08
08
08
08
08
08
08
08
78
00
00
ENDCHAR
STARTCHAR 5e
ENCODING    94
SWIDTH 512 0
DWIDTH 8 0
BBX 8 16 0 -2
BITMAP
00
10
28
44
82
00
00
00
00
00
00
00
00
00
00
00
ENDCHAR
STARTCHAR 5f
ENCODING    95
SWIDTH 512 0
DWIDTH 8 0
BBX 8 16 0 -2
BITMAP
00
00
00
00
00
00
00
00
00
00
00
00
00
fe
00
00
ENDCHAR
STARTCHAR 60
ENCODING    96
SWIDTH 512 0
DWIDTH 8 0
BBX 8 16 0 -2
BITMAP
00
40
20
10
00
00
00
00
00
00
00
00
00
00
00
00
ENDCHAR
STARTCHAR 61
ENCODING    97
SWIDTH 512 0
DWIDTH 8 0
BBX 8 16 0 -2
BITMAP
00
00
00
00
00
00
78
84
04
74
8c
84
8c
72
00
00
ENDCHAR
STARTCHAR 62
ENCODING    98
SWIDTH 512 0
DWIDTH 8 0
BBX 8 16 0 -2
BITMAP
00
40
40
40
40
40
58
64
42
42
42
42
64
58
00
00
ENDCHAR
STARTCHAR 63
ENCODING    99
SWIDTH 512 0
DWIDTH 8 0
BBX 8 16 0 -2
BITMAP
00
00
00
00
00
00
1c
22
40
40
40
40
22
1c
00
00
ENDCHAR
STARTCHAR 64
ENCODING   100
SWIDTH 512 0
DWIDTH 8 0
BBX 8 16 0 -2
BITMAP
00
04
04
04
04
04
34
4c
84
84
84
84
4c
34
00
00
ENDCHAR
STARTCHAR 65
ENCODING   101
SWIDTH 512 0
DWIDTH 8 0
BBX 8 16 0 -2
BITMAP
00
00
00
00
00
00
38
44
82
fe
80
80
42
3c
00
00
ENDCHAR
STARTCHAR 66
ENCODING   102
SWIDTH 512 0
DWIDTH 8 0
BBX 8 16 0 -2
BITMAP
00
0c
12
10
10
10
7c
10
10
10
10
10
10
10
00
00
ENDCHAR
STARTCHAR 67
ENCODING   103
SWIDTH 512 0
DWIDTH 8 0
BBX 8 16 0 -2
BITMAP
00
00
00
00
00
00
3a
46
82
82
82
46
3a
02
44
38
ENDCHAR
STARTCHAR 68
ENCODING   104
SWIDTH 512 0
DWIDTH 8 0
BBX 8 16 0 -2
BITMAP
00
40
40
40
40
40
58
64
42
42
42
42
42
42
00
00
ENDCHAR
STARTCHAR 69
ENCODING   105
SWIDTH 512 0
DWIDTH 8 0
BBX 8 16 0 -2
BITMAP
00
00
10
10
00
00
30
10
10
10
10
10
10
38
00
00
ENDCHAR
STARTCHAR 6a
ENCODING   106
SWIDTH 512 0
DWIDTH 8 0
BBX 8 16 0 -2
BITMAP
00
00
08
08
00
00
18
08
08
08
08
08
08
48
48
30
ENDCHAR
STARTCHAR 6b
ENCODING   107
SWIDTH 512 0
DWIDTH 8 0
BBX 8 16 0 -2
BITMAP
00
40
40
40
40
40
42
44
48
50
70
48
44
42
00
00
ENDCHAR
STARTCHAR 6c
ENCODING   108
SWIDTH 512 0
DWIDTH 8 0
BBX 8 16 0 -2
BITMAP
00
30
10
10
10
10
10
10
10
10
10
10
10
10
00
00
ENDCHAR
STARTCHAR 6d
ENCODING   109
SWIDTH 512 0
DWIDTH 8 0
BBX 8 16 0 -2
BITMAP
00
00
00
00
00
00
ec
92
92
92
92
92
92
92
00
00
ENDCHAR
STARTCHAR 6e
ENCODING   110
SWIDTH 512 0
DWIDTH 8 0
BBX 8 16 0 -2
BITMAP
00
00
00
00
00
00
5c
62
42
42
42
42
42
42
00
00
ENDCHAR
STARTCHAR 6f
ENCODING   111
SWIDTH 512 0
DWIDTH 8 0
BBX 8 16 0 -2
BITMAP
00
00
00
00
00
00
38
44
82
82
82
82
44
38
00
00
ENDCHAR
STARTCHAR 70
ENCODING   112
SWIDTH 512 0
DWIDTH 8 0
BBX 8 16 0 -2
BITMAP
00
00
00
00
00
00
58
64
42
42
42
64
58
40
40
40
ENDCHAR
STARTCHAR 71
ENCODING   113
SWIDTH 512 0
DWIDTH 8 0
BBX 8 16 0 -2
BITMAP
00
00
00
00
00
00
34
4c
84
84
84
4c
34
04
04
04
ENDCHAR
STARTCHAR 72
ENCODING   114
SWIDTH 512 0
DWIDTH 8 0
BBX 8 16 0 -2
BITMAP
00
00
00
00
00
00
2c
32
20
20
20
20
20
20
00
00
ENDCHAR
STARTCHAR 73
ENCODING   115
SWIDTH 512 0
DWIDTH 8 0
BBX 8 16 0 -2
BITMAP
00
00
00
00
00
00
3c
42
40
30
0c
02
42
3c
00
00
ENDCHAR
STARTCHAR 74
ENCODING   116
SWIDTH 512 0
DWIDTH 8 0
BBX 8 16 0 -2
BITMAP
00
20
20
20
20
20
70
20
20
20
20
20
24
18
00
00
ENDCHAR
STARTCHAR 75
ENCODING   117
SWIDTH 512 0
DWIDTH 8 0
BBX 8 16 0 -2
BITMAP
00
00
00
00
00
00
84
84
84
84
84
84
8c
74
00
00
ENDCHAR
STARTCHAR 76
ENCODING   118
SWIDTH 512 0
DWIDTH 8 0
BBX 8 16 0 -2
BITMAP
00
00
00
00
00
00
82
82
82
82
82
44
28
10
00
00
ENDCHAR
STARTCHAR 77
ENCODING   119
SWIDTH 512 0
DWIDTH 8 0
BBX 8 16 0 -2
BITMAP
00
00
00
00
00
00
82
82
82
92
92
aa
44
44
00
00
ENDCHAR
STARTCHAR 78
ENCODING   120
SWIDTH 512 0
DWIDTH 8 0
BBX 8 16 0 -2
BITMAP
00
00
00
00
00
00
82
44
28
10
10
28
44
82
00
00
ENDCHAR
STARTCHAR 79
ENCODING   121
SWIDTH 512 0
DWIDTH 8 0
BBX 8 16 0 -2
BITMAP
00
00
00
00
00
00
42
42
42
42
42
22
14
08
10
60
ENDCHAR
STARTCHAR 7a
ENCODING   122
SWIDTH 512 0
DWIDTH 8 0
BBX 8 16 0 -2
BITMAP
00
00
00
00
00
00
7e
02
04
08
10
20
40
7e
00
00
ENDCHAR
STARTCHAR 7b
ENCODING   123
SWIDTH 512 0
DWIDTH 8 0
BBX 8 16 0 -2
BITMAP
00
0c
10
10
10
10
10
20
10
10
10
10
10
0c
00
00
ENDCHAR
STARTCHAR 7c
ENCODING   124
SWIDTH 512 0
DWIDTH 8 0
BBX 8 16 0 -2
BITMAP
00
00
18
18
18
18
18
18
18
18
18
18
18
18
00
00
ENDCHAR
STARTCHAR 7d
ENCODING   125
SWIDTH 512 0
DWIDTH 8 0
BBX 8 16 0 -2
BITMAP
00
30
08
08
08
08
08
04
08
08
08
08
08
30
00
00
ENDCHAR
STARTCHAR 7e
ENCODING   126
SWIDTH 512 0
DWIDTH 8 0
BBX 8 16 0 -2
BITMAP
00
fe
00
00
00
00
00
00
00
00
00
00
00
00
00
00
ENDCHAR
STARTCHAR 7f
ENCODING   127
SWIDTH 512 0
DWIDTH 8 0
BBX 8 16 0 -2
BITMAP
00
00
00
00
00
00
00
00
00
00
00
00
00
00
00
00
ENDCHAR
STARTCHAR a0
ENCODING   160
SWIDTH 512 0
DWIDTH 8 0
BBX 8 16 0 -2
BITMAP
00
00
00
00
00
00
00
00
00
00
00
00
00
00
00
00
ENDCHAR
STARTCHAR a1
ENCODING   161
SWIDTH 512 0
DWIDTH 8 0
BBX 8 16 0 -2
BITMAP
00
00
00
00
00
00
00
00
00
00
18
24
24
18
00
00
ENDCHAR
STARTCHAR a2
ENCODING   162
SWIDTH 512 0
DWIDTH 8 0
BBX 8 16 0 -2
BITMAP
00
1f
10
10
10
10
10
10
10
10
00
00
00
00
00
00
ENDCHAR
STARTCHAR a3
ENCODING   163
SWIDTH 512 0
DWIDTH 8 0
BBX 8 16 0 -2
BITMAP
00
00
00
00
00
04
04
04
04
04
04
04
04
3c
00
00
ENDCHAR
STARTCHAR a4
ENCODING   164
SWIDTH 512 0
DWIDTH 8 0
BBX 8 16 0 -2
BITMAP
00
00
00
00
00
00
00
00
00
00
00
40
20
10
00
00
ENDCHAR
STARTCHAR a5
ENCODING   165
SWIDTH 512 0
DWIDTH 8 0
BBX 8 16 0 -2
BITMAP
00
00
00
00
00
00
00
18
18
00
00
00
00
00
00
00
ENDCHAR
STARTCHAR a6
ENCODING   166
SWIDTH 512 0
DWIDTH 8 0
BBX 8 16 0 -2
BITMAP
00
00
fe
02
02
02
fe
02
02
04
04
08
10
60
00
00
ENDCHAR
STARTCHAR a7
ENCODING   167
SWIDTH 512 0
DWIDTH 8 0
BBX 8 16 0 -2
BITMAP
00
00
00
00
00
00
00
fe
02
12
1c
10
20
40
00
00
ENDCHAR
STARTCHAR a8
ENCODING   168
SWIDTH 512 0
DWIDTH 8 0
BBX 8 16 0 -2
BITMAP
00
00
00
00
00
00
02
04
08
38
c8
08
08
08
00
00
ENDCHAR
STARTCHAR a9
ENCODING   169
SWIDTH 512 0
DWIDTH 8 0
BBX 8 16 0 -2
BITMAP
00
00
00
00
00
00
10
fe
82
82
02
04
08
30
00
00
ENDCHAR
STARTCHAR aa
ENCODING   170
SWIDTH 512 0
DWIDTH 8 0
BBX 8 16 0 -2
BITMAP
00
00
00
00
00
00
00
7c
10
10
10
10
10
fe
00
00
ENDCHAR
STARTCHAR ab
ENCODING   171
SWIDTH 512 0
DWIDTH 8 0
BBX 8 16 0 -2
BITMAP
00
00
00
00
00
00
08
08
fe
08
18
28
48
88
00
00
ENDCHAR
STARTCHAR ac
ENCODING   172
SWIDTH 512 0
DWIDTH 8 0
BBX 8 16 0 -2
BITMAP
00
00
00
00
00
00
20
20
fe
22
24
20
20
20
00
00
ENDCHAR
STARTCHAR ad
ENCODING   173
SWIDTH 512 0
DWIDTH 8 0
BBX 8 16 0 -2
BITMAP
00
00
00
00
00
00
00
78
08
08
08
08
08
fe
00
00
ENDCHAR
STARTCHAR ae
ENCODING   174
SWIDTH 512 0
DWIDTH 8 0
BBX 8 16 0 -2
BITMAP
00
00
00
00
00
00
00
7e
02
02
3e
02
02
7e
00
00
ENDCHAR
STARTCHAR af
ENCODING   175
SWIDTH 512 0
DWIDTH 8 0
BBX 8 16 0 -2
BITMAP
00
00
00
00
00
00
00
92
92
92
02
04
08
30
00
00
ENDCHAR
STARTCHAR b0
ENCODING   176
SWIDTH 512 0
DWIDTH 8 0
BBX 8 16 0 -2
BITMAP
00
00
00
00
00
00
00
00
fe
00
00
00
00
00
00
00
ENDCHAR
STARTCHAR b1
ENCODING   177
SWIDTH 512 0
DWIDTH 8 0
BBX 8 16 0 -2
BITMAP
00
00
fe
02
02
12
12
12
1c
10
10
10
20
c0
00
00
ENDCHAR
STARTCHAR b2
ENCODING   178
SWIDTH 512 0
DWIDTH 8 0
BBX 8 16 0 -2
BITMAP
00
02
02
04
04
08
38
c8
08
08
08
08
08
08
00
00
ENDCHAR
STARTCHAR b3
ENCODING   179
SWIDTH 512 0
DWIDTH 8 0
BBX 8 16 0 -2
BITMAP
00
10
10
fe
82
82
82
02
02
02
02
02
04
38
00
00
ENDCHAR
STARTCHAR b4
ENCODING   180
SWIDTH 512 0
DWIDTH 8 0
BBX 8 16 0 -2
BITMAP
00
00
7c
10
10
10
10
10
10
10
10
10
10
fe
00
00
ENDCHAR
STARTCHAR b5
ENCODING   181
SWIDTH 512 0
DWIDTH 8 0
BBX 8 16 0 -2
BITMAP
00
08
08
08
fe
08
18
18
28
28
48
48
88
08
00
00
ENDCHAR
STARTCHAR b6
ENCODING   182
SWIDTH 512 0
DWIDTH 8 0
BBX 8 16 0 -2
BITMAP
00
20
20
20
fe
22
22
22
22
22
22
22
42
8c
00
00
ENDCHAR
STARTCHAR b7
ENCODING   183
SWIDTH 512 0
DWIDTH 8 0
BBX 8 16 0 -2
BITMAP
00
10
10
fe
10
10
10
10
fe
10
10
10
10
10
00
00
ENDCHAR
STARTCHAR b8
ENCODING   184
SWIDTH 512 0
DWIDTH 8 0
BBX 8 16 0 -2
BITMAP
00
20
3e
22
42
42
82
02
04
04
08
08
10
20
00
00
ENDCHAR
STARTCHAR b9
ENCODING   185
SWIDTH 512 0
DWIDTH 8 0
BBX 8 16 0 -2
BITMAP
00
40
40
7e
48
48
88
08
08
08
08
08
08
30
00
00
ENDCHAR
STARTCHAR ba
ENCODING   186
SWIDTH 512 0
DWIDTH 8 0
BBX 8 16 0 -2
BITMAP
00
00
fe
02
02
02
02
02
02
02
02
02
02
fe
00
00
ENDCHAR
STARTCHAR bb
ENCODING   187
SWIDTH 512 0
DWIDTH 8 0
BBX 8 16 0 -2
BITMAP
00
44
44
fe
44
44
44
04
04
04
04
04
08
30
00
00
ENDCHAR
STARTCHAR bc
ENCODING   188
SWIDTH 512 0
DWIDTH 8 0
BBX 8 16 0 -2
BITMAP
00
c0
20
02
02
c2
22
02
04
04
08
08
10
e0
00
00
ENDCHAR
STARTCHAR bd
ENCODING   189
SWIDTH 512 0
DWIDTH 8 0
BBX 8 16 0 -2
BITMAP
00
00
fe
02
02
04
04
08
08
14
14
22
42
82
00
00
ENDCHAR
STARTCHAR be
ENCODING   190
SWIDTH 512 0
DWIDTH 8 0
BBX 8 16 0 -2
BITMAP
00
40
40
fe
42
42
42
44
40
40
40
40
40
3e
00
00
ENDCHAR
STARTCHAR bf
ENCODING   191
SWIDTH 512 0
DWIDTH 8 0
BBX 8 16 0 -2
BITMAP
00
02
42
42
42
42
22
02
04
04
08
08
10
60
00
00
ENDCHAR
STARTCHAR c0
ENCODING   192
SWIDTH 512 0
DWIDTH 8 0
BBX 8 16 0 -2
BITMAP
00
20
3e
22
42
42
a2
12
0c
04
08
08
10
20
00
00
ENDCHAR
STARTCHAR c1
ENCODING   193
SWIDTH 512 0
DWIDTH 8 0
BBX 8 16 0 -2
BITMAP
00
02
04
78
08
08
08
fe
08
08
08
08
10
60
00
00
ENDCHAR
STARTCHAR c2
ENCODING   194
SWIDTH 512 0
DWIDTH 8 0
BBX 8 16 0 -2
BITMAP
00
00
92
92
92
92
92
02
02
02
04
04
08
30
00
00
ENDCHAR
STARTCHAR c3
ENCODING   195
SWIDTH 512 0
DWIDTH 8 0
BBX 8 16 0 -2
BITMAP
00
00
7c
00
00
fe
08
08
08
08
08
08
10
60
00
00
ENDCHAR
STARTCHAR c4
ENCODING   196
SWIDTH 512 0
DWIDTH 8 0
BBX 8 16 0 -2
BITMAP
00
40
40
40
40
40
60
50
48
44
40
40
40
40
00
00
ENDCHAR
STARTCHAR c5
ENCODING   197
SWIDTH 512 0
DWIDTH 8 0
BBX 8 16 0 -2
BITMAP
00
10
10
10
fe
10
10
10
10
10
10
10
20
c0
00
00
ENDCHAR
STARTCHAR c6
ENCODING   198
SWIDTH 512 0
DWIDTH 8 0
BBX 8 16 0 -2
BITMAP
00
00
7c
00
00
00
00
00
00
00
00
00
00
fe
00
00
ENDCHAR
STARTCHAR c7
ENCODING   199
SWIDTH 512 0
DWIDTH 8 0
BBX 8 16 0 -2
BITMAP
00
00
fe
02
02
04
04
48
28
10
18
24
42
80
00
00
ENDCHAR
STARTCHAR c8
ENCODING   200
SWIDTH 512 0
DWIDTH 8 0
BBX 8 16 0 -2
BITMAP
00
10
10
fe
02
04
08
18
34
d2
10
10
10
10
00
00
ENDCHAR
STARTCHAR c9
ENCODING   201
SWIDTH 512 0
DWIDTH 8 0
BBX 8 16 0 -2
BITMAP
00
00
02
02
02
02
02
04
04
08
08
10
20
c0
00
00
ENDCHAR
STARTCHAR ca
ENCODING   202
SWIDTH 512 0
DWIDTH 8 0
BBX 8 16 0 -2
BITMAP
00
10
08
04
42
42
42
42
42
42
42
42
42
82
00
00
ENDCHAR
STARTCHAR cb
ENCODING   203
SWIDTH 512 0
DWIDTH 8 0
BBX 8 16 0 -2
BITMAP
00
00
80
80
80
86
98
e0
80
80
80
80
80
7e
00
00
ENDCHAR
STARTCHAR cc
ENCODING   204
SWIDTH 512 0
DWIDTH 8 0
BBX 8 16 0 -2
BITMAP
00
00
fe
02
02
02
04
04
08
08
10
10
20
40
00
00
ENDCHAR
STARTCHAR cd
ENCODING   205
SWIDTH 512 0
DWIDTH 8 0
BBX 8 16 0 -2
BITMAP
00
00
20
20
20
50
50
50
88
88
04
04
02
02
00
00
ENDCHAR
STARTCHAR ce
ENCODING   206
SWIDTH 512 0
DWIDTH 8 0
BBX 8 16 0 -2
BITMAP
00
10
10
10
fe
10
10
10
54
52
92
10
10
10
00
00
ENDCHAR
STARTCHAR cf
ENCODING   207
SWIDTH 512 0
DWIDTH 8 0
BBX 8 16 0 -2
BITMAP
00
00
fe
02
02
02
02
04
04
48
30
10
08
04
00
00
ENDCHAR
STARTCHAR d0
ENCODING   208
SWIDTH 512 0
DWIDTH 8 0
BBX 8 16 0 -2
BITMAP
00
00
60
18
06
00
60
18
06
00
00
60
18
06
00
00
ENDCHAR
STARTCHAR d1
ENCODING   209
SWIDTH 512 0
DWIDTH 8 0
BBX 8 16 0 -2
BITMAP
00
00
10
10
10
20
20
40
40
84
82
82
fe
02
00
00
ENDCHAR
STARTCHAR d2
ENCODING   210
SWIDTH 512 0
DWIDTH 8 0
BBX 8 16 0 -2
BITMAP
00
00
04
04
04
04
24
18
08
14
12
20
40
80
00
00
ENDCHAR
STARTCHAR d3
ENCODING   211
SWIDTH 512 0
DWIDTH 8 0
BBX 8 16 0 -2
BITMAP
00
00
7c
20
20
20
fe
20
20
20
20
20
20
1e
00
00
ENDCHAR
STARTCHAR d4
ENCODING   212
SWIDTH 512 0
DWIDTH 8 0
BBX 8 16 0 -2
BITMAP
00
20
20
20
fe
22
22
24
28
20
20
20
20
20
00
00
ENDCHAR
STARTCHAR d5
ENCODING   213
SWIDTH 512 0
DWIDTH 8 0
BBX 8 16 0 -2
BITMAP
00
00
78
08
08
08
08
08
08
08
08
08
08
fe
00
00
ENDCHAR
STARTCHAR d6
ENCODING   214
SWIDTH 512 0
DWIDTH 8 0
BBX 8 16 0 -2
BITMAP
00
00
fe
02
02
02
02
7e
02
02
02
02
02
fe
00
00
ENDCHAR
STARTCHAR d7
ENCODING   215
SWIDTH 512 0
DWIDTH 8 0
BBX 8 16 0 -2
BITMAP
00
00
7c
00
00
fe
02
02
02
04
04
08
10
60
00
00
ENDCHAR
STARTCHAR d8
ENCODING   216
SWIDTH 512 0
DWIDTH 8 0
BBX 8 16 0 -2
BITMAP
00
04
44
44
44
44
44
44
44
04
04
04
08
30
00
00
ENDCHAR
STARTCHAR d9
ENCODING   217
SWIDTH 512 0
DWIDTH 8 0
BBX 8 16 0 -2
BITMAP
00
10
10
50
50
50
50
50
50
50
52
52
94
18
00
00
ENDCHAR
STARTCHAR da
ENCODING   218
SWIDTH 512 0
DWIDTH 8 0
BBX 8 16 0 -2
BITMAP
00
40
40
40
40
40
40
40
42
42
44
44
48
70
00
00
ENDCHAR
STARTCHAR db
ENCODING   219
SWIDTH 512 0
DWIDTH 8 0
BBX 8 16 0 -2
BITMAP
00
00
fe
82
82
82
82
82
82
82
82
82
82
fe
00
00
ENDCHAR
STARTCHAR dc
ENCODING   220
SWIDTH 512 0
DWIDTH 8 0
BBX 8 16 0 -2
BITMAP
00
00
fe
82
82
82
02
02
02
02
04
04
08
30
00
00
ENDCHAR
STARTCHAR dd
ENCODING   221
SWIDTH 512 0
DWIDTH 8 0
BBX 8 16 0 -2
BITMAP
00
00
00
e0
10
02
02
02
04
04
08
08
10
e0
00
00
ENDCHAR
STARTCHAR de
ENCODING   222
SWIDTH 512 0
DWIDTH 8 0
BBX 8 16 0 -2
BITMAP
00
48
24
24
00
00
00
00
00
00
00
00
00
00
00
00
ENDCHAR
STARTCHAR df
ENCODING   223
SWIDTH 512 0
DWIDTH 8 0
BBX 8 16 0 -2
BITMAP
00
30
48
48
30
00
00
00
00
00
00
00
00
00
00
00
ENDCHAR
STARTCHAR (for_rename)
ENCODING 8482
SWIDTH 1024 0
DWIDTH 16 0
BBX 16 16 0 -2
BITMAP
0000
0000
0000
0000
0000
0000
0000
0000
0000
0000
0000
0000
2000
1000
0800
0400
ENDCHAR
STARTCHAR (for_rename)
ENCODING 8483
SWIDTH 1024 0
DWIDTH 16 0
BBX 16 16 0 -2
BITMAP
0000
0000
0000
0000
0000
0000
0000
0000
0000
0000
0000
1C00
2200
2200
2200
1C00
ENDCHAR
STARTCHAR (for_rename)
ENCODING 8484
SWIDTH 1024 0
DWIDTH 16 0
BBX 16 16 0 -2
BITMAP
0000
0000
0000
0000
0000
0000
0000
0000
0000
0000
0000
2000
7000
3000
1000
6000
ENDCHAR
STARTCHAR (for_rename)
ENCODING 8485
SWIDTH 1024 0
DWIDTH 16 0
BBX 16 16 0 -2
BITMAP
0000
0000
0000
0000
0000
0000
0000
0000
0000
0000
0000
0000
1800
3C00
3C00
1800
ENDCHAR
STARTCHAR (for_rename)
ENCODING 8486
SWIDTH 1024 0
DWIDTH 16 0
BBX 16 16 0 -2
BITMAP
0000
0000
0000
0000
0000
0000
0000
0180
03C0
03C0
0180
0000
0000
0000
0000
0000
ENDCHAR
STARTCHAR (for_rename)
ENCODING 8487
SWIDTH 1024 0
DWIDTH 16 0
BBX 16 16 0 -2
BITMAP
0000
0000
0000
0000
0080
01C0
0080
0000
0000
0000
0000
0080
01C0
0080
0000
0000
ENDCHAR
STARTCHAR (for_rename)
ENCODING 8488
SWIDTH 1024 0
DWIDTH 16 0
BBX 16 16 0 -2
BITMAP
0000
0000
0000
0000
0080
01C0
0080
0000
0000
0000
0000
0080
01C0
00C0
0040
0080
ENDCHAR
STARTCHAR (for_rename)
ENCODING 8489
SWIDTH 1024 0
DWIDTH 16 0
BBX 16 16 0 -2
BITMAP
0000
03E0
0410
0808
0808
0808
0030
0040
0080
0080
0080
0000
0080
01C0
0080
0000
ENDCHAR
STARTCHAR (for_rename)
ENCODING 8490
SWIDTH 1024 0
DWIDTH 16 0
BBX 16 16 0 -2
BITMAP
0000
0100
0100
0100
0100
0100
0100
0100
0100
0100
0100
0000
0000
0180
0180
0000
ENDCHAR
STARTCHAR (for_rename)
ENCODING 8491
SWIDTH 1024 0
DWIDTH 16 0
BBX 16 16 0 -2
BITMAP
2400
1200
0900
0000
0000
0000
0000
0000
0000
0000
0000
0000
0000
0000
0000
0000
ENDCHAR
STARTCHAR (for_rename)
ENCODING 8492
SWIDTH 1024 0
DWIDTH 16 0
BBX 16 16 0 -2
BITMAP
1800
2400
2400
1800
0000
0000
0000
0000
0000
0000
0000
0000
0000
0000
0000
0000
ENDCHAR
STARTCHAR (for_rename)
ENCODING 8493
SWIDTH 1024 0
DWIDTH 16 0
BBX 16 16 0 -2
BITMAP
0040
0080
0100
0000
0000
0000
0000
0000
0000
0000
0000
0000
0000
0000
0000
0000
ENDCHAR
STARTCHAR (for_rename)
ENCODING 8494
SWIDTH 1024 0
DWIDTH 16 0
BBX 16 16 0 -2
BITMAP
0100
0080
0040
0000
0000
0000
0000
0000
0000
0000
0000
0000
0000
0000
0000
0000
ENDCHAR
STARTCHAR (for_rename)
ENCODING 8495
SWIDTH 1024 0
DWIDTH 16 0
BBX 16 16 0 -2
BITMAP
0C18
0C18
0000
0000
0000
0000
0000
0000
0000
0000
0000
0000
0000
0000
0000
0000
ENDCHAR
STARTCHAR (for_rename)
ENCODING 8496
SWIDTH 1024 0
DWIDTH 16 0
BBX 16 16 0 -2
BITMAP
01C0
0220
0410
0000
0000
0000
0000
0000
0000
0000
0000
0000
0000
0000
0000
0000
ENDCHAR
STARTCHAR (for_rename)
ENCODING 8497
SWIDTH 1024 0
DWIDTH 16 0
BBX 16 16 0 -2
BITMAP
1FFC
0000
0000
0000
0000
0000
0000
0000
0000
0000
0000
0000
0000
0000
0000
0000
ENDCHAR
STARTCHAR (for_rename)
ENCODING 8498
SWIDTH 1024 0
DWIDTH 16 0
BBX 16 16 0 -2
BITMAP
0000
0000
0000
0000
0000
0000
0000
0000
0000
0000
0000
0000
0000
0000
0000
1FFC
ENDCHAR
STARTCHAR (for_rename)
ENCODING 8499
SWIDTH 1024 0
DWIDTH 16 0
BBX 16 16 0 -2
BITMAP
0000
0000
0000
0000
0C00
0300
0080
0040
0020
0020
0010
0010
0000
0000
0000
0000
ENDCHAR
STARTCHAR (for_rename)
ENCODING 8500
SWIDTH 1024 0
DWIDTH 16 0
BBX 16 16 0 -2
BITMAP
0000
0010
0008
0040
0C20
0300
0080
0040
0020
0020
0010
0010
0000
0000
0000
0000
ENDCHAR
STARTCHAR (for_rename)
ENCODING 8501
SWIDTH 1024 0
DWIDTH 16 0
BBX 16 16 0 -2
BITMAP
0000
0000
0000
0000
0C00
0300
0080
0040
0020
0020
0010
00F0
0000
0000
0000
0000
ENDCHAR
STARTCHAR (for_rename)
ENCODING 8502
SWIDTH 1024 0
DWIDTH 16 0
BBX 16 16 0 -2
BITMAP
0000
0010
0008
0040
0C20
0300
0080
0040
0020
0020
0010
00F0
0000
0000
0000
0000
ENDCHAR
STARTCHAR (for_rename)
ENCODING 8503
SWIDTH 1024 0
DWIDTH 16 0
BBX 16 16 0 -2
BITMAP
0000
0000
0000
0000
0220
0220
0220
0220
0220
0440
0440
0880
0000
0000
0000
0000
ENDCHAR
STARTCHAR (for_rename)
ENCODING 8504
SWIDTH 1024 0
DWIDTH 16 0
BBX 16 16 0 -2
BITMAP
0000
0080
0140
0220
0410
0808
3006
0000
0FF8
0080
0080
0080
0080
0080
3FFE
0000
ENDCHAR
STARTCHAR (for_rename)
ENCODING 8505
SWIDTH 1024 0
DWIDTH 16 0
BBX 16 16 0 -2
BITMAP
0000
0200
0200
03FC
0204
0404
0408
0808
1010
2110
00A0
0040
0020
0010
0010
0000
ENDCHAR
STARTCHAR (for_rename)
ENCODING 8506
SWIDTH 1024 0
DWIDTH 16 0
BBX 16 16 0 -2
BITMAP
0000
0004
0008
0010
0010
0120
00A0
0040
0040
00A0
0090
0100
0900
0A00
0400
0000
ENDCHAR
STARTCHAR (for_rename)
ENCODING 8507
SWIDTH 1024 0
DWIDTH 16 0
BBX 16 16 0 -2
BITMAP
0000
0000
0000
03E0
0C18
1004
2002
2002
2002
2002
1004
0C18
03E0
0000
0000
0000
ENDCHAR
STARTCHAR (for_rename)
ENCODING 8508
SWIDTH 1024 0
DWIDTH 16 0
BBX 16 16 0 -2
BITMAP
0000
0000
0000
0000
0000
0000
207E
1F80
0000
0000
0000
0000
0000
0000
0000
0000
ENDCHAR
STARTCHAR (for_rename)
ENCODING 8509
SWIDTH 1024 0
DWIDTH 16 0
BBX 16 16 0 -2
BITMAP
0000
0000
0000
0000
0000
0000
0000
3FFE
0000
0000
0000
0000
0000
0000
0000
0000
ENDCHAR
STARTCHAR (for_rename)
ENCODING 8510
SWIDTH 1024 0
DWIDTH 16 0
BBX 16 16 0 -2
BITMAP
0000
0000
0000
0000
0000
0000
0000
3F00
0000
0000
0000
0000
0000
0000
0000
0000
ENDCHAR
STARTCHAR (for_rename)
ENCODING 8511
SWIDTH 1024 0
DWIDTH 16 0
BBX 16 16 0 -2
BITMAP
0000
0001
0002
0004
0008
0010
0020
0040
0080
0100
0200
0400
0800
1000
2000
4000
ENDCHAR
STARTCHAR (for_rename)
ENCODING 8512
SWIDTH 1024 0
DWIDTH 16 0
BBX 16 16 0 -2
BITMAP
0000
4000
2000
1000
0800
0400
0200
0100
0080
0040
0020
0010
0008
0004
0002
0001
ENDCHAR
STARTCHAR (for_rename)
ENCODING 8513
SWIDTH 1024 0
DWIDTH 16 0
BBX 16 16 0 -2
BITMAP
0000
0000
0000
0000
0000
0000
0F01
1082
207C
0000
0000
0000
0000
0000
0000
0000
ENDCHAR
STARTCHAR (for_rename)
ENCODING 8514
SWIDTH 1024 0
DWIDTH 16 0
BBX 16 16 0 -2
BITMAP
0000
0240
0240
0240
0240
0240
0240
0240
0240
0240
0240
0240
0240
0240
0240
0000
ENDCHAR
STARTCHAR (for_rename)
ENCODING 8515
SWIDTH 1024 0
DWIDTH 16 0
BBX 16 16 0 -2
BITMAP
0000
0080
0080
0080
0080
0080
0080
0080
0080
0080
0080
0080
0080
0080
0080
0000
ENDCHAR
STARTCHAR (for_rename)
ENCODING 8516
SWIDTH 1024 0
DWIDTH 16 0
BBX 16 16 0 -2
BITMAP
0000
0000
0000
0000
0000
0000
0000
318C
318C
0000
0000
0000
0000
0000
0000
0000
ENDCHAR
STARTCHAR (for_rename)
ENCODING 8517
SWIDTH 1024 0
DWIDTH 16 0
BBX 16 16 0 -2
BITMAP
0000
0000
0000
0000
0000
0000
0000
1818
1818
0000
0000
0000
0000
0000
0000
0000
ENDCHAR
STARTCHAR (for_rename)
ENCODING 8518
SWIDTH 1024 0
DWIDTH 16 0
BBX 16 16 0 -2
BITMAP
0004
0008
000C
000E
0004
0000
0000
0000
0000
0000
0000
0000
0000
0000
0000
0000
ENDCHAR
STARTCHAR (for_rename)
ENCODING 8519
SWIDTH 1024 0
DWIDTH 16 0
BBX 16 16 0 -2
BITMAP
0000
2000
7000
3000
1000
2000
0000
0000
0000
0000
0000
0000
0000
0000
0000
0000
ENDCHAR
STARTCHAR (for_rename)
ENCODING 8520
SWIDTH 1024 0
DWIDTH 16 0
BBX 16 16 0 -2
BITMAP
0044
0088
00CC
00EE
0044
0000
0000
0000
0000
0000
0000
0000
0000
0000
0000
0000
ENDCHAR
STARTCHAR (for_rename)
ENCODING 8521
SWIDTH 1024 0
DWIDTH 16 0
BBX 16 16 0 -2
BITMAP
2200
7700
3300
1100
2200
0000
0000
0000
0000
0000
0000
0000
0000
0000
0000
0000
ENDCHAR
STARTCHAR (for_rename)
ENCODING 8522
SWIDTH 1024 0
DWIDTH 16 0
BBX 16 16 0 -2
BITMAP
0008
0010
0020
0040
0040
0080
0080
0080
0080
0080
0080
0040
0040
0020
0010
0008
ENDCHAR
STARTCHAR (for_rename)
ENCODING 8523
SWIDTH 1024 0
DWIDTH 16 0
BBX 16 16 0 -2
BITMAP
1000
0800
0400
0200
0200
0100
0100
0100
0100
0100
0100
0200
0200
0400
0800
1000
ENDCHAR
STARTCHAR (for_rename)
ENCODING 8524
SWIDTH 1024 0
DWIDTH 16 0
BBX 16 16 0 -2
BITMAP
0004
0008
0010
0020
0020
0020
0020
0020
0020
0020
0020
0020
0020
0010
0008
0004
ENDCHAR
STARTCHAR (for_rename)
ENCODING 8525
SWIDTH 1024 0
DWIDTH 16 0
BBX 16 16 0 -2
BITMAP
2000
1000
0800
0400
0400
0400
0400
0400
0400
0400
0400
0400
0400
0800
1000
2000
ENDCHAR
STARTCHAR (for_rename)
ENCODING 8526
SWIDTH 1024 0
DWIDTH 16 0
BBX 16 16 0 -2
BITMAP
0078
0040
0040
0040
0040
0040
0040
0040
0040
0040
0040
0040
0040
0040
0040
0078
ENDCHAR
STARTCHAR (for_rename)
ENCODING 8527
SWIDTH 1024 0
DWIDTH 16 0
BBX 16 16 0 -2
BITMAP
1E00
0200
0200
0200
0200
0200
0200
0200
0200
0200
0200
0200
0200
0200
0200
1E00
ENDCHAR
STARTCHAR (for_rename)
ENCODING 8528
SWIDTH 1024 0
DWIDTH 16 0
BBX 16 16 0 -2
BITMAP
0018
0020
0040
0040
0040
0040
0040
0080
0080
0040
0040
0040
0040
0040
0020
0018
ENDCHAR
STARTCHAR (for_rename)
ENCODING 8529
SWIDTH 1024 0
DWIDTH 16 0
BBX 16 16 0 -2
BITMAP
1800
0400
0200
0200
0200
0200
0200
0100
0100
0200
0200
0200
0200
0200
0400
1800
ENDCHAR
STARTCHAR (for_rename)
ENCODING 8530
SWIDTH 1024 0
DWIDTH 16 0
BBX 16 16 0 -2
BITMAP
0008
0010
0010
0020
0040
0040
0080
0100
0100
0080
0040
0040
0020
0010
0010
0008
ENDCHAR
STARTCHAR (for_rename)
ENCODING 8531
SWIDTH 1024 0
DWIDTH 16 0
BBX 16 16 0 -2
BITMAP
1000
0800
0800
0400
0200
0200
0100
0080
0080
0100
0200
0200
0400
0800
0800
1000
ENDCHAR
STARTCHAR (for_rename)
ENCODING 8532
SWIDTH 1024 0
DWIDTH 16 0
BBX 16 16 0 -2
BITMAP
0048
0090
0090
0120
0240
0240
0480
0900
0900
0480
0240
0240
0120
0090
0090
0048
ENDCHAR
STARTCHAR (for_rename)
ENCODING 8533
SWIDTH 1024 0
DWIDTH 16 0
BBX 16 16 0 -2
BITMAP
1200
0900
0900
0480
0240
0240
0120
0090
0090
0120
0240
0240
0480
0900
0900
1200
ENDCHAR
STARTCHAR (for_rename)
ENCODING 8534
SWIDTH 1024 0
DWIDTH 16 0
BBX 16 16 0 -2
BITMAP
00F8
0080
0080
0080
0080
0080
0080
0080
0080
0080
0080
0080
0080
0080
0080
0080
ENDCHAR
STARTCHAR (for_rename)
ENCODING 8535
SWIDTH 1024 0
DWIDTH 16 0
BBX 16 16 0 -2
BITMAP
0100
0100
0100
0100
0100
0100
0100
0100
0100
0100
0100
0100
0100
0100
0100
1F00
ENDCHAR
STARTCHAR (for_rename)
ENCODING 8536
SWIDTH 1024 0
DWIDTH 16 0
BBX 16 16 0 -2
BITMAP
01F8
0108
0178
0140
0140
0140
0140
0140
0140
0140
0140
0140
0140
0140
0140
01C0
ENDCHAR
STARTCHAR (for_rename)
ENCODING 8537
SWIDTH 1024 0
DWIDTH 16 0
BBX 16 16 0 -2
BITMAP
0380
0280
0280
0280
0280
0280
0280
0280
0280
0280
0280
0280
0280
1E80
1080
1F80
ENDCHAR
STARTCHAR (for_rename)
ENCODING 8538
SWIDTH 1024 0
DWIDTH 16 0
BBX 16 16 0 -2
BITMAP
01F8
01F0
01E0
01C0
01C0
0180
0180
0180
0180
0180
0180
01C0
01C0
01E0
01F0
01F8
ENDCHAR
STARTCHAR (for_rename)
ENCODING 8539
SWIDTH 1024 0
DWIDTH 16 0
BBX 16 16 0 -2
BITMAP
1F80
0F80
0780
0380
0380
0180
0180
0180
0180
0180
0180
0380
0380
0780
0F80
1F80
ENDCHAR
STARTCHAR (for_rename)
ENCODING 8540
SWIDTH 1024 0
DWIDTH 16 0
BBX 16 16 0 -2
BITMAP
0000
0000
0080
0080
0080
0080
0080
1FFC
0080
0080
0080
0080
0080
0080
0000
0000
ENDCHAR
STARTCHAR (for_rename)
ENCODING 8541
SWIDTH 1024 0
DWIDTH 16 0
BBX 16 16 0 -2
BITMAP
0000
0000
0000
0000
0000
0000
0000
1FFC
0000
0000
0000
0000
0000
0000
0000
0000
ENDCHAR
STARTCHAR (for_rename)
ENCODING 8542
SWIDTH 1024 0
DWIDTH 16 0
BBX 16 16 0 -2
BITMAP
0000
0000
0080
0080
0080
0080
1FFC
0080
0080
0080
0080
0000
0000
1FFC
0000
0000
ENDCHAR
STARTCHAR (for_rename)
ENCODING 8543
SWIDTH 1024 0
DWIDTH 16 0
BBX 16 16 0 -2
BITMAP
0000
0000
1004
0808
0410
0220
0140
0080
0080
0140
0220
0410
0808
1004
0000
0000
ENDCHAR
STARTCHAR (for_rename)
ENCODING 8544
SWIDTH 1024 0
DWIDTH 16 0
BBX 16 16 0 -2
BITMAP
0000
0000
0080
01C0
0080
0000
0000
1FFC
0000
0000
0080
01C0
0080
0000
0000
0000
ENDCHAR
STARTCHAR (for_rename)
ENCODING 8545
SWIDTH 1024 0
DWIDTH 16 0
BBX 16 16 0 -2
BITMAP
0000
0000
0000
0000
0000
0000
1FFC
0000
0000
1FFC
0000
0000
0000
0000
0000
0000
ENDCHAR
STARTCHAR (for_rename)
ENCODING 8546
SWIDTH 1024 0
DWIDTH 16 0
BBX 16 16 0 -2
BITMAP
0000
0000
0020
0020
0040
0040
1FFC
0080
0080
1FFC
0100
0100
0200
0200
0000
0000
ENDCHAR
STARTCHAR (for_rename)
ENCODING 8547
SWIDTH 1024 0
DWIDTH 16 0
BBX 16 16 0 -2
BITMAP
0000
0000
0008
0010
0060
0080
0300
0400
0800
0400
0300
0080
0060
0010
0008
0000
ENDCHAR
STARTCHAR (for_rename)
ENCODING 8548
SWIDTH 1024 0
DWIDTH 16 0
BBX 16 16 0 -2
BITMAP
0000
0000
1000
0800
0600
0100
00C0
0020
0010
0020
00C0
0100
0600
0800
1000
0000
ENDCHAR
STARTCHAR (for_rename)
ENCODING 8549
SWIDTH 1024 0
DWIDTH 16 0
BBX 16 16 0 -2
BITMAP
0000
001C
0060
0180
0600
1800
0600
0180
0060
001C
0000
1FFC
0000
1FFC
0000
0000
ENDCHAR
STARTCHAR (for_rename)
ENCODING 8550
SWIDTH 1024 0
DWIDTH 16 0
BBX 16 16 0 -2
BITMAP
0000
1C00
0300
00C0
0030
000C
0030
00C0
0300
1C00
0000
1FFC
0000
1FFC
0000
0000
ENDCHAR
STARTCHAR (for_rename)
ENCODING 8551
SWIDTH 1024 0
DWIDTH 16 0
BBX 16 16 0 -2
BITMAP
0000
0000
0000
0000
0000
0E38
1144
2082
2082
2082
1144
0E38
0000
0000
0000
0000
ENDCHAR
STARTCHAR (for_rename)
ENCODING 8552
SWIDTH 1024 0
DWIDTH 16 0
BBX 16 16 0 -2
BITMAP
0000
0000
0080
01C0
0080
0000
0000
0000
0000
0000
0000
0808
1C1C
0808
0000
0000
ENDCHAR
STARTCHAR (for_rename)
ENCODING 8553
SWIDTH 1024 0
DWIDTH 16 0
BBX 16 16 0 -2
BITMAP
0000
0080
01C0
02A0
0490
0888
0080
0080
01C0
0220
0410
0410
0410
0220
01C0
0000
ENDCHAR
STARTCHAR (for_rename)
ENCODING 8554
SWIDTH 1024 0
DWIDTH 16 0
BBX 16 16 0 -2
BITMAP
0000
01C0
0220
0410
0410
0410
0220
01C0
0080
0080
3FFE
0080
0080
0080
0080
0000
ENDCHAR
STARTCHAR (for_rename)
ENCODING 8555
SWIDTH 1024 0
DWIDTH 16 0
BBX 16 16 0 -2
BITMAP
1800
2400
2400
1800
0000
0000
0000
0000
0000
0000
0000
0000
0000
0000
0000
0000
ENDCHAR
STARTCHAR (for_rename)
ENCODING 8556
SWIDTH 1024 0
DWIDTH 16 0
BBX 16 16 0 -2
BITMAP
1000
1000
1000
2000
0000
0000
0000
0000
0000
0000
0000
0000
0000
0000
0000
0000
ENDCHAR
STARTCHAR (for_rename)
ENCODING 8557
SWIDTH 1024 0
DWIDTH 16 0
BBX 16 16 0 -2
BITMAP
1200
1200
1200
2400
0000
0000
0000
0000
0000
0000
0000
0000
0000
0000
0000
0000
ENDCHAR
STARTCHAR (for_rename)
ENCODING 8558
SWIDTH 1024 0
DWIDTH 16 0
BBX 16 16 0 -2
BITMAP
3000
4872
498A
3206
0202
0400
0400
0400
0400
0400
0402
0202
0204
0188
0070
0000
ENDCHAR
STARTCHAR (for_rename)
ENCODING 8559
SWIDTH 1024 0
DWIDTH 16 0
BBX 16 16 0 -2
BITMAP
0000
1C1C
0808
0410
0410
0220
0140
1FFC
0080
0080
1FFC
0080
0080
0080
01C0
0000
ENDCHAR
STARTCHAR (for_rename)
ENCODING 8560
SWIDTH 1024 0
DWIDTH 16 0
BBX 16 16 0 -2
BITMAP
0000
0080
01C0
06B0
0888
0888
0880
07E0
0098
0084
1084
1084
0C98
03E0
0080
0000
ENDCHAR
STARTCHAR (for_rename)
ENCODING 8561
SWIDTH 1024 0
DWIDTH 16 0
BBX 16 16 0 -2
BITMAP
0000
0000
0010
0020
01E0
0250
0448
0480
0480
0508
0310
03E0
0200
0400
0000
0000
ENDCHAR
STARTCHAR (for_rename)
ENCODING 8562
SWIDTH 1024 0
DWIDTH 16 0
BBX 16 16 0 -2
BITMAP
0000
03C0
0420
0810
0800
0800
0400
0200
3FF0
0100
0100
1D02
2202
2384
1C78
0000
ENDCHAR
STARTCHAR (for_rename)
ENCODING 8563
SWIDTH 1024 0
DWIDTH 16 0
BBX 16 16 0 -2
BITMAP
0000
0002
1C04
2208
2210
2220
1C40
0080
0100
0238
0444
0844
1044
2038
4000
0000
ENDCHAR
STARTCHAR (for_rename)
ENCODING 8564
SWIDTH 1024 0
DWIDTH 16 0
BBX 16 16 0 -2
BITMAP
0000
0410
0410
0410
041E
07F0
3C10
0410
0410
041E
07F0
3C10
0410
0410
0410
0000
ENDCHAR
STARTCHAR (for_rename)
ENCODING 8565
SWIDTH 1024 0
DWIDTH 16 0
BBX 16 16 0 -2
BITMAP
0000
03C0
0420
0810
0810
0810
0420
0240
0500
0884
1044
1024
1018
0818
07E6
0000
ENDCHAR
STARTCHAR (for_rename)
ENCODING 8566
SWIDTH 1024 0
DWIDTH 16 0
BBX 16 16 0 -2
BITMAP
0000
0000
0080
0888
0490
02A0
01C0
0080
0080
01C0
02A0
0490
0888
0080
0080
0000
ENDCHAR
STARTCHAR (for_rename)
ENCODING 8567
SWIDTH 1024 0
DWIDTH 16 0
BBX 16 16 0 -2
BITMAP
0000
01C0
0630
0808
1004
10C4
2122
2222
2222
2224
11D8
1000
0804
0618
01E0
0000
ENDCHAR
STARTCHAR (for_rename)
ENCODING 8568
SWIDTH 1024 0
DWIDTH 16 0
BBX 16 16 0 -2
BITMAP
0000
03C0
0420
0420
0400
0200
0580
0440
0220
01A0
0040
0020
0420
0420
03C0
0000
ENDCHAR
STARTCHAR (for_rename)
ENCODING 8569
SWIDTH 1024 0
DWIDTH 16 0
BBX 16 16 0 -2
BITMAP
0000
0080
0080
0140
0140
0220
7E3F
1004
0808
0410
0888
0948
1634
180C
2002
0000
ENDCHAR
STARTCHAR (for_rename)
ENCODING 8570
SWIDTH 1024 0
DWIDTH 16 0
BBX 16 16 0 -2
BITMAP
0000
0080
0080
01C0
01C0
03E0
7FFF
1FFC
0FF8
07F0
0FF8
0F78
1E3C
180C
2002
0000
ENDCHAR
STARTCHAR (for_rename)
ENCODING 8571
SWIDTH 1024 0
DWIDTH 16 0
BBX 16 16 0 -2
BITMAP
0000
01C0
0630
0808
1004
1004
2002
2002
2002
2002
1004
1004
0808
0630
01C0
0000
ENDCHAR
STARTCHAR (for_rename)
ENCODING 8572
SWIDTH 1024 0
DWIDTH 16 0
BBX 16 16 0 -2
BITMAP
0000
01C0
07F0
0FF8
1FFC
1FFC
3FFE
3FFE
3FFE
3FFE
1FFC
1FFC
0FF8
07F0
01C0
0000
ENDCHAR
STARTCHAR (for_rename)
ENCODING 8573
SWIDTH 1024 0
DWIDTH 16 0
BBX 16 16 0 -2
BITMAP
0000
01C0
0630
0808
11C4
1224
2412
2412
2412
2412
1224
11C4
0808
0630
01C0
0000
ENDCHAR
STARTCHAR (for_rename)
ENCODING 8574
SWIDTH 1024 0
DWIDTH 16 0
BBX 16 16 0 -2
BITMAP
0000
0080
0140
0220
0410
0808
1004
2002
1004
0808
0410
0220
0140
0080
0000
0000
ENDCHAR
STARTCHAR (for_rename)
ENCODING 8737
SWIDTH 1024 0
DWIDTH 16 0
BBX 16 16 0 -2
BITMAP
0000
0080
01C0
03E0
07F0
0FF8
1FFC
3FFE
1FFC
0FF8
07F0
03E0
01C0
0080
0000
0000
ENDCHAR
STARTCHAR (for_rename)
ENCODING 8738
SWIDTH 1024 0
DWIDTH 16 0
BBX 16 16 0 -2
BITMAP
0000
3FFE
2002
2002
2002
2002
2002
2002
2002
2002
2002
2002
2002
2002
3FFE
0000
ENDCHAR
STARTCHAR (for_rename)
ENCODING 8739
SWIDTH 1024 0
DWIDTH 16 0
BBX 16 16 0 -2
BITMAP
0000
3FFE
3FFE
3FFE
3FFE
3FFE
3FFE
3FFE
3FFE
3FFE
3FFE
3FFE
3FFE
3FFE
3FFE
0000
ENDCHAR
STARTCHAR (for_rename)
ENCODING 8740
SWIDTH 1024 0
DWIDTH 16 0
BBX 16 16 0 -2
BITMAP
0000
0080
0080
0140
0140
0220
0220
0410
0410
0808
0808
1004
1004
3FFE
0000
0000
ENDCHAR
STARTCHAR (for_rename)
ENCODING 8741
SWIDTH 1024 0
DWIDTH 16 0
BBX 16 16 0 -2
BITMAP
0000
0080
0080
01C0
01C0
03E0
03E0
07F0
07F0
0FF8
0FF8
1FFC
1FFC
3FFE
0000
0000
ENDCHAR
STARTCHAR (for_rename)
ENCODING 8742
SWIDTH 1024 0
DWIDTH 16 0
BBX 16 16 0 -2
BITMAP
0000
0000
3FFE
1004
1004
0808
0808
0410
0410
0220
0220
0140
0140
0080
0080
0000
ENDCHAR
STARTCHAR (for_rename)
ENCODING 8743
SWIDTH 1024 0
DWIDTH 16 0
BBX 16 16 0 -2
BITMAP
0000
0000
3FFE
1FFC
1FFC
0FF8
0FF8
07F0
07F0
03E0
03E0
01C0
01C0
0080
0080
0000
ENDCHAR
STARTCHAR (for_rename)
ENCODING 8744
SWIDTH 1024 0
DWIDTH 16 0
BBX 16 16 0 -2
BITMAP
0000
2082
11C4
0888
0410
0220
1144
388E
1144
0220
0410
0888
11C4
2082
0000
0000
ENDCHAR
STARTCHAR (for_rename)
ENCODING 8745
SWIDTH 1024 0
DWIDTH 16 0
BBX 16 16 0 -2
BITMAP
0000
0000
1FFC
0000
0000
0000
1FFC
0080
0080
0080
0080
0080
0080
0080
0080
0000
ENDCHAR
STARTCHAR (for_rename)
ENCODING 8746
SWIDTH 1024 0
DWIDTH 16 0
BBX 16 16 0 -2
BITMAP
0000
0000
0000
0000
0010
0008
0004
3FFE
0004
0008
0010
0000
0000
0000
0000
0000
ENDCHAR
STARTCHAR (for_rename)
ENCODING 8747
SWIDTH 1024 0
DWIDTH 16 0
BBX 16 16 0 -2
BITMAP
0000
0000
0000
0000
0400
0800
1000
3FFE
1000
0800
0400
0000
0000
0000
0000
0000
ENDCHAR
STARTCHAR (for_rename)
ENCODING 8748
SWIDTH 1024 0
DWIDTH 16 0
BBX 16 16 0 -2
BITMAP
0000
0080
01C0
02A0
0490
0080
0080
0080
0080
0080
0080
0080
0080
0080
0080
0000
ENDCHAR
STARTCHAR (for_rename)
ENCODING 8749
SWIDTH 1024 0
DWIDTH 16 0
BBX 16 16 0 -2
BITMAP
0000
0080
0080
0080
0080
0080
0080
0080
0080
0080
0080
0490
02A0
01C0
0080
0000
ENDCHAR
STARTCHAR (for_rename)
ENCODING 8750
SWIDTH 1024 0
DWIDTH 16 0
BBX 16 16 0 -2
BITMAP
0000
0000
0000
0000
1FFC
1FFC
0000
0000
0000
1FFC
1FFC
0000
0000
0000
0000
0000
ENDCHAR
STARTCHAR (for_rename)
ENCODING 9008
SWIDTH 1024 0
DWIDTH 16 0
BBX 16 16 0 -2
BITMAP
0000
07E0
0810
1008
1008
1008
1008
1008
1008
1008
1008
1008
1008
0810
07E0
0000
ENDCHAR
STARTCHAR (for_rename)
ENCODING 9009
SWIDTH 1024 0
DWIDTH 16 0
BBX 16 16 0 -2
BITMAP
0000
0080
0180
0280
0080
0080
0080
0080
0080
0080
0080
0080
0080
0080
01C0
0000
ENDCHAR
STARTCHAR (for_rename)
ENCODING 9010
SWIDTH 1024 0
DWIDTH 16 0
BBX 16 16 0 -2
BITMAP
0000
03E0
0C18
1004
1004
1004
0004
0018
00E0
0300
0400
0800
0800
1000
1FFC
0000
ENDCHAR
STARTCHAR (for_rename)
ENCODING 9011
SWIDTH 1024 0
DWIDTH 16 0
BBX 16 16 0 -2
BITMAP
0000
03E0
0C18
1004
1004
0004
0018
03E0
0018
0004
0004
1004
1004
0C18
03E0
0000
ENDCHAR
STARTCHAR (for_rename)
ENCODING 9012
SWIDTH 1024 0
DWIDTH 16 0
BBX 16 16 0 -2
BITMAP
0000
0010
0030
0050
0090
0090
0110
0210
0410
0810
1010
1FFC
0010
0010
0010
0000
ENDCHAR
STARTCHAR (for_rename)
ENCODING 9013
SWIDTH 1024 0
DWIDTH 16 0
BBX 16 16 0 -2
BITMAP
0000
0FF8
0800
0800
0800
0BC0
0C30
0808
0008
0004
0004
0808
0808
0630
01C0
0000
ENDCHAR
STARTCHAR (for_rename)
ENCODING 9014
SWIDTH 1024 0
DWIDTH 16 0
BBX 16 16 0 -2
BITMAP
0000
03E0
0410
0808
0800
11C0
1630
1808
1008
1004
1004
0808
0808
0630
01C0
0000
ENDCHAR
STARTCHAR (for_rename)
ENCODING 9015
SWIDTH 1024 0
DWIDTH 16 0
BBX 16 16 0 -2
BITMAP
0000
1FFC
0004
0008
0010
0020
0020
0040
0040
0080
0080
0080
0080
0080
0080
0000
ENDCHAR
STARTCHAR (for_rename)
ENCODING 9016
SWIDTH 1024 0
DWIDTH 16 0
BBX 16 16 0 -2
BITMAP
0000
03E0
0C18
1004
1004
1004
0C18
03E0
0C18
1004
1004
1004
1004
0C18
03E0
0000
ENDCHAR
STARTCHAR (for_rename)
ENCODING 9017
SWIDTH 1024 0
DWIDTH 16 0
BBX 16 16 0 -2
BITMAP
0000
01C0
0630
0808
0808
1004
1004
0804
080C
0634
01C4
0008
0808
0410
03E0
0000
ENDCHAR
STARTCHAR (for_rename)
ENCODING 9025
SWIDTH 1024 0
DWIDTH 16 0
BBX 16 16 0 -2
BITMAP
0000
0080
0080
0140
0140
0220
0220
0410
0410
0FF8
0808
1004
1004
380E
0000
0000
ENDCHAR
STARTCHAR (for_rename)
ENCODING 9026
SWIDTH 1024 0
DWIDTH 16 0
BBX 16 16 0 -2
BITMAP
0000
1FE0
0818
0804
0804
0804
0818
0FE0
0818
0804
0804
0804
0818
1FE0
0000
0000
ENDCHAR
STARTCHAR (for_rename)
ENCODING 9027
SWIDTH 1024 0
DWIDTH 16 0
BBX 16 16 0 -2
BITMAP
0000
01E4
0614
080C
0804
1000
1000
1000
1000
1004
0804
0804
0608
01F0
0000
0000
ENDCHAR
STARTCHAR (for_rename)
ENCODING 9028
SWIDTH 1024 0
DWIDTH 16 0
BBX 16 16 0 -2
BITMAP
0000
1FC0
0830
0808
0808
0804
0804
0804
0804
0804
0808
0808
0830
1FC0
0000
0000
ENDCHAR
STARTCHAR (for_rename)
ENCODING 9029
SWIDTH 1024 0
DWIDTH 16 0
BBX 16 16 0 -2
BITMAP
0000
1FF8
0808
0808
0800
0800
0820
0FE0
0820
0800
0800
0808
0808
1FF8
0000
0000
ENDCHAR
STARTCHAR (for_rename)
ENCODING 9030
SWIDTH 1024 0
DWIDTH 16 0
BBX 16 16 0 -2
BITMAP
0000
1FFC
0804
0804
0800
0800
0820
0FE0
0820
0800
0800
0800
0800
1C00
0000
0000
ENDCHAR
STARTCHAR (for_rename)
ENCODING 9031
SWIDTH 1024 0
DWIDTH 16 0
BBX 16 16 0 -2
BITMAP
0000
01E0
0610
0808
0800
1000
1000
1000
107C
1008
0808
0808
0638
01C8
0000
0000
ENDCHAR
STARTCHAR (for_rename)
ENCODING 9032
SWIDTH 1024 0
DWIDTH 16 0
BBX 16 16 0 -2
BITMAP
0000
1C1C
0808
0808
0808
0808
0808
0FF8
0808
0808
0808
0808
0808
1C1C
0000
0000
ENDCHAR
STARTCHAR (for_rename)
ENCODING 9033
SWIDTH 1024 0
DWIDTH 16 0
BBX 16 16 0 -2
BITMAP
0000
01C0
0080
0080
0080
0080
0080
0080
0080
0080
0080
0080
0080
01C0
0000
0000
ENDCHAR
STARTCHAR (for_rename)
ENCODING 9034
SWIDTH 1024 0
DWIDTH 16 0
BBX 16 16 0 -2
BITMAP
0000
0070
0020
0020
0020
0020
0020
0020
0020
0020
0820
0820
0440
0380
0000
0000
ENDCHAR
STARTCHAR (for_rename)
ENCODING 9035
SWIDTH 1024 0
DWIDTH 16 0
BBX 16 16 0 -2
BITMAP
0000
1C1C
0810
0820
0840
0880
0900
0A80
0C40
0840
0820
0820
0810
1C0C
0000
0000
ENDCHAR
STARTCHAR (for_rename)
ENCODING 9036
SWIDTH 1024 0
DWIDTH 16 0
BBX 16 16 0 -2
BITMAP
0000
1C00
0800
0800
0800
0800
0800
0800
0800
0800
0800
0804
0804
1FFC
0000
0000
ENDCHAR
STARTCHAR (for_rename)
ENCODING 9037
SWIDTH 1024 0
DWIDTH 16 0
BBX 16 16 0 -2
BITMAP
0000
7007
280A
280A
2412
2412
2412
2222
2222
2142
2142
2082
2082
7007
0000
0000
ENDCHAR
STARTCHAR (for_rename)
ENCODING 9038
SWIDTH 1024 0
DWIDTH 16 0
BBX 16 16 0 -2
BITMAP
0000
380E
1404
1204
1204
1104
1084
1084
1044
1024
1024
1014
100C
3804
0000
0000
ENDCHAR
STARTCHAR (for_rename)
ENCODING 9039
SWIDTH 1024 0
DWIDTH 16 0
BBX 16 16 0 -2
BITMAP
0000
03E0
0C18
1004
1004
2002
2002
2002
2002
2002
1004
1004
0C18
03E0
0000
0000
ENDCHAR
STARTCHAR (for_rename)
ENCODING 9040
SWIDTH 1024 0
DWIDTH 16 0
BBX 16 16 0 -2
BITMAP
0000
1FE0
0818
0804
0804
0804
0818
0FE0
0800
0800
0800
0800
0800
1C00
0000
0000
ENDCHAR
STARTCHAR (for_rename)
ENCODING 9041
SWIDTH 1024 0
DWIDTH 16 0
BBX 16 16 0 -2
BITMAP
0000
03E0
0C18
1004
1004
2002
2002
2002
2002
2002
11C4
1224
0C19
03E6
0000
0000
ENDCHAR
STARTCHAR (for_rename)
ENCODING 9042
SWIDTH 1024 0
DWIDTH 16 0
BBX 16 16 0 -2
BITMAP
0000
1FE0
0818
0804
0804
0804
0818
0FE0
0880
0840
0820
0810
0808
1C06
0000
0000
ENDCHAR
STARTCHAR (for_rename)
ENCODING 9043
SWIDTH 1024 0
DWIDTH 16 0
BBX 16 16 0 -2
BITMAP
0000
03E4
0C14
100C
1004
1000
0C00
03E0
0018
0004
1004
1804
1418
13E0
0000
0000
ENDCHAR
STARTCHAR (for_rename)
ENCODING 9044
SWIDTH 1024 0
DWIDTH 16 0
BBX 16 16 0 -2
BITMAP
0000
3FFE
2082
2082
0080
0080
0080
0080
0080
0080
0080
0080
0080
01C0
0000
0000
ENDCHAR
STARTCHAR (for_rename)
ENCODING 9045
SWIDTH 1024 0
DWIDTH 16 0
BBX 16 16 0 -2
BITMAP
0000
380E
1004
1004
1004
1004
1004
1004
1004
1004
0808
0808
0630
01C0
0000
0000
ENDCHAR
STARTCHAR (for_rename)
ENCODING 9046
SWIDTH 1024 0
DWIDTH 16 0
BBX 16 16 0 -2
BITMAP
0000
380E
1004
1004
0808
0808
0410
0410
0220
0220
0140
0140
0080
0080
0000
0000
ENDCHAR
STARTCHAR (for_rename)
ENCODING 9047
SWIDTH 1024 0
DWIDTH 16 0
BBX 16 16 0 -2
BITMAP
0000
71C7
2082
2082
1144
1144
1144
1144
0A28
0A28
0A28
0410
0410
0410
0000
0000
ENDCHAR
STARTCHAR (for_rename)
ENCODING 9048
SWIDTH 1024 0
DWIDTH 16 0
BBX 16 16 0 -2
BITMAP
0000
380E
0808
0410
0220
0220
0140
0080
0140
0220
0220
0410
0808
380E
0000
0000
ENDCHAR
STARTCHAR (for_rename)
ENCODING 9049
SWIDTH 1024 0
DWIDTH 16 0
BBX 16 16 0 -2
BITMAP
0000
380E
1004
0808
0410
0410
0220
0140
0080
0080
0080
0080
0080
01C0
0000
0000
ENDCHAR
STARTCHAR (for_rename)
ENCODING 9050
SWIDTH 1024 0
DWIDTH 16 0
BBX 16 16 0 -2
BITMAP
0000
1FFC
1008
1010
0020
0020
0040
0080
0100
0200
0200
0404
0804
1FFC
0000
0000
ENDCHAR
STARTCHAR (for_rename)
ENCODING 9057
SWIDTH 1024 0
DWIDTH 16 0
BBX 16 16 0 -2
BITMAP
0000
0000
0000
0000
0000
03C0
0420
0810
01F0
0610
0810
0810
0830
07D8
0000
0000
ENDCHAR
STARTCHAR (for_rename)
ENCODING 9058
SWIDTH 1024 0
DWIDTH 16 0
BBX 16 16 0 -2
BITMAP
0000
0C00
0400
0400
0400
05E0
0610
0408
0408
0408
0408
0408
0610
05E0
0000
0000
ENDCHAR
STARTCHAR (for_rename)
ENCODING 9059
SWIDTH 1024 0
DWIDTH 16 0
BBX 16 16 0 -2
BITMAP
0000
0000
0000
0000
0000
03E0
0410
0808
0800
0800
0800
0808
0410
03E0
0000
0000
ENDCHAR
STARTCHAR (for_rename)
ENCODING 9060
SWIDTH 1024 0
DWIDTH 16 0
BBX 16 16 0 -2
BITMAP
0000
0030
0010
0010
0010
01D0
0230
0410
0410
0410
0410
0410
0230
01D8
0000
0000
ENDCHAR
STARTCHAR (for_rename)
ENCODING 9061
SWIDTH 1024 0
DWIDTH 16 0
BBX 16 16 0 -2
BITMAP
0000
0000
0000
0000
0000
03E0
0410
0808
0808
0FF8
0800
0800
0410
03E0
0000
0000
ENDCHAR
STARTCHAR (for_rename)
ENCODING 9062
SWIDTH 1024 0
DWIDTH 16 0
BBX 16 16 0 -2
BITMAP
0000
00E0
0110
0100
0100
1FF0
0100
0100
0100
0100
0100
0100
0100
0380
0000
0000
ENDCHAR
STARTCHAR (for_rename)
ENCODING 9063
SWIDTH 1024 0
DWIDTH 16 0
BBX 16 16 0 -2
BITMAP
0000
0000
0000
0000
0000
03EC
0418
0808
0808
0808
0808
0418
03E8
0008
0810
07E0
ENDCHAR
STARTCHAR (for_rename)
ENCODING 9064
SWIDTH 1024 0
DWIDTH 16 0
BBX 16 16 0 -2
BITMAP
0000
0C00
0400
0400
0400
05E0
0610
0408
0408
0408
0408
0408
0408
0E1C
0000
0000
ENDCHAR
STARTCHAR (for_rename)
ENCODING 9065
SWIDTH 1024 0
DWIDTH 16 0
BBX 16 16 0 -2
BITMAP
0000
0080
01C0
0080
0000
0000
0180
0080
0080
0080
0080
0080
0080
01C0
0000
0000
ENDCHAR
STARTCHAR (for_rename)
ENCODING 9066
SWIDTH 1024 0
DWIDTH 16 0
BBX 16 16 0 -2
BITMAP
0000
0040
00E0
0040
0000
0000
00C0
0040
0040
0040
0040
0040
0040
0040
0440
0380
ENDCHAR
STARTCHAR (for_rename)
ENCODING 9067
SWIDTH 1024 0
DWIDTH 16 0
BBX 16 16 0 -2
BITMAP
0000
0C00
0400
0400
0400
0438
0410
0460
0580
0640
0420
0420
0410
0E1C
0000
0000
ENDCHAR
STARTCHAR (for_rename)
ENCODING 9068
SWIDTH 1024 0
DWIDTH 16 0
BBX 16 16 0 -2
BITMAP
0000
0180
0080
0080
0080
0080
0080
0080
0080
0080
0080
0080
0080
01C0
0000
0000
ENDCHAR
STARTCHAR (for_rename)
ENCODING 9069
SWIDTH 1024 0
DWIDTH 16 0
BBX 16 16 0 -2
BITMAP
0000
0000
0000
0000
0000
3630
1948
1084
1084
1084
1084
1084
1084
39CE
0000
0000
ENDCHAR
STARTCHAR (for_rename)
ENCODING 9070
SWIDTH 1024 0
DWIDTH 16 0
BBX 16 16 0 -2
BITMAP
0000
0000
0000
0000
0000
0DE0
0610
0408
0408
0408
0408
0408
0408
0E1C
0000
0000
ENDCHAR
STARTCHAR (for_rename)
ENCODING 9071
SWIDTH 1024 0
DWIDTH 16 0
BBX 16 16 0 -2
BITMAP
0000
0000
0000
0000
0000
03E0
0410
0808
0808
0808
0808
0808
0410
03E0
0000
0000
ENDCHAR
STARTCHAR (for_rename)
ENCODING 9072
SWIDTH 1024 0
DWIDTH 16 0
BBX 16 16 0 -2
BITMAP
0000
0000
0000
0000
0000
0DE0
0610
0408
0408
0408
0408
0610
05E0
0400
0400
0E00
ENDCHAR
STARTCHAR (for_rename)
ENCODING 9073
SWIDTH 1024 0
DWIDTH 16 0
BBX 16 16 0 -2
BITMAP
0000
0000
0000
0000
0000
03D8
0430
0810
0810
0810
0810
0430
03D0
0010
0010
0038
ENDCHAR
STARTCHAR (for_rename)
ENCODING 9074
SWIDTH 1024 0
DWIDTH 16 0
BBX 16 16 0 -2
BITMAP
0000
0000
0000
0000
0000
06E0
0310
0210
0200
0200
0200
0200
0200
0700
0000
0000
ENDCHAR
STARTCHAR (for_rename)
ENCODING 9075
SWIDTH 1024 0
DWIDTH 16 0
BBX 16 16 0 -2
BITMAP
0000
0000
0000
0000
0000
07E0
0810
0810
0600
01C0
0030
0808
0808
07F0
0000
0000
ENDCHAR
STARTCHAR (for_rename)
ENCODING 9076
SWIDTH 1024 0
DWIDTH 16 0
BBX 16 16 0 -2
BITMAP
0000
0000
0000
0100
0100
0100
0FE0
0100
0100
0100
0100
0100
0110
00E0
0000
0000
ENDCHAR
STARTCHAR (for_rename)
ENCODING 9077
SWIDTH 1024 0
DWIDTH 16 0
BBX 16 16 0 -2
BITMAP
0000
0000
0000
0000
0000
1830
0810
0810
0810
0810
0810
0810
0430
03D8
0000
0000
ENDCHAR
STARTCHAR (for_rename)
ENCODING 9078
SWIDTH 1024 0
DWIDTH 16 0
BBX 16 16 0 -2
BITMAP
0000
0000
0000
0000
0000
1C1C
0808
0410
0410
0220
0220
0140
0140
0080
0000
0000
ENDCHAR
STARTCHAR (for_rename)
ENCODING 9079
SWIDTH 1024 0
DWIDTH 16 0
BBX 16 16 0 -2
BITMAP
0000
0000
0000
0000
0000
7087
2082
1144
1144
0A28
0A28
0A28
0410
0410
0000
0000
ENDCHAR
STARTCHAR (for_rename)
ENCODING 9080
SWIDTH 1024 0
DWIDTH 16 0
BBX 16 16 0 -2
BITMAP
0000
0000
0000
0000
0000
1C1C
0410
0220
0140
0080
0140
0220
0410
1C1C
0000
0000
ENDCHAR
STARTCHAR (for_rename)
ENCODING 9081
SWIDTH 1024 0
DWIDTH 16 0
BBX 16 16 0 -2
BITMAP
0000
0000
0000
0000
0000
1C1C
0808
0410
0410
0220
0220
0140
0180
0080
0900
0600
ENDCHAR
STARTCHAR (for_rename)
ENCODING 9082
SWIDTH 1024 0
DWIDTH 16 0
BBX 16 16 0 -2
BITMAP
0000
0000
0000
0000
0000
0FF8
0808
0810
0060
0080
0300
0408
0808
0FF8
0000
0000
ENDCHAR
STARTCHAR (for_rename)
ENCODING 9249
SWIDTH 1024 0
DWIDTH 16 0
BBX 16 16 0 -2
BITMAP
0000
0000
0000
0000
0400
0400
1FC0
0400
0780
1CC0
2520
2220
2520
1840
0180
0000
ENDCHAR
STARTCHAR (for_rename)
ENCODING 9250
SWIDTH 1024 0
DWIDTH 16 0
BBX 16 16 0 -2
BITMAP
0000
0200
0108
1170
0F80
0200
02F0
074C
0A42
1242
1182
2182
2604
1818
00E0
0000
ENDCHAR
STARTCHAR (for_rename)
ENCODING 9251
SWIDTH 1024 0
DWIDTH 16 0
BBX 16 16 0 -2
BITMAP
0000
0000
0000
0000
0000
2000
2040
2020
2020
2010
2010
2070
1410
1800
0800
0000
ENDCHAR
STARTCHAR (for_rename)
ENCODING 9252
SWIDTH 1024 0
DWIDTH 16 0
BBX 16 16 0 -2
BITMAP
0000
0000
2000
1010
1008
2004
2004
2002
2002
221A
2406
1402
1800
0C00
0000
0000
ENDCHAR
STARTCHAR (for_rename)
ENCODING 9253
SWIDTH 1024 0
DWIDTH 16 0
BBX 16 16 0 -2
BITMAP
0000
0000
0000
0400
0380
0100
0000
07C0
1820
0020
0020
0020
0040
0180
0600
0000
ENDCHAR
STARTCHAR (for_rename)
ENCODING 9254
SWIDTH 1024 0
DWIDTH 16 0
BBX 16 16 0 -2
BITMAP
0200
01E0
0040
0000
01E0
1610
0808
0008
0008
0008
0010
0010
0020
00C0
0300
0000
ENDCHAR
STARTCHAR (for_rename)
ENCODING 9255
SWIDTH 1024 0
DWIDTH 16 0
BBX 16 16 0 -2
BITMAP
0000
0000
0000
0400
0380
0100
0000
1FC0
0080
0100
0200
0700
0880
1080
2070
0000
ENDCHAR
STARTCHAR (for_rename)
ENCODING 9256
SWIDTH 1024 0
DWIDTH 16 0
BBX 16 16 0 -2
BITMAP
0200
01E0
0040
0000
11F0
0E20
0040
0080
0100
01C0
0220
0420
0820
1020
201E
0000
ENDCHAR
STARTCHAR (for_rename)
ENCODING 9257
SWIDTH 1024 0
DWIDTH 16 0
BBX 16 16 0 -2
BITMAP
0000
0000
0000
0000
0400
0440
3F20
0410
0400
05E0
0610
0C10
1410
2420
0CC0
0000
ENDCHAR
STARTCHAR (for_rename)
ENCODING 9258
SWIDTH 1024 0
DWIDTH 16 0
BBX 16 16 0 -2
BITMAP
0000
0800
0400
0418
0484
2702
1C00
0470
0588
0604
0C04
1404
2518
0CE0
0400
0000
ENDCHAR
STARTCHAR (for_rename)
ENCODING 9259
SWIDTH 1024 0
DWIDTH 16 0
BBX 16 16 0 -2
BITMAP
0000
0400
0200
0400
0590
4E48
3444
0444
0442
084E
0842
1040
1480
2280
4300
0000
ENDCHAR
STARTCHAR (for_rename)
ENCODING 9260
SWIDTH 1024 0
DWIDTH 16 0
BBX 16 16 0 -2
BITMAP
0002
0411
0208
0400
0590
4E48
3444
0444
0442
084E
0842
1040
1480
2280
4300
0000
ENDCHAR
STARTCHAR (for_rename)
ENCODING 9261
SWIDTH 1024 0
DWIDTH 16 0
BBX 16 16 0 -2
BITMAP
0000
0300
0088
08F0
0780
0044
1038
0FE0
0010
0010
07F8
0808
0800
0400
03E0
0000
ENDCHAR
STARTCHAR (for_rename)
ENCODING 9262
SWIDTH 1024 0
DWIDTH 16 0
BBX 16 16 0 -2
BITMAP
0002
0601
0114
11E2
0F00
0088
2070
1FC0
0020
0020
0FF0
1010
1000
0800
07C0
0000
ENDCHAR
STARTCHAR (for_rename)
ENCODING 9263
SWIDTH 1024 0
DWIDTH 16 0
BBX 16 16 0 -2
BITMAP
0000
0020
0010
0020
0040
0180
0600
0800
0800
0600
0180
0040
0020
0010
0008
0008
ENDCHAR
STARTCHAR (for_rename)
ENCODING 9264
SWIDTH 1024 0
DWIDTH 16 0
BBX 16 16 0 -2
BITMAP
0000
0020
0010
0022
0041
0188
0604
0800
0800
0600
0180
0040
0020
0010
0008
0008
ENDCHAR
STARTCHAR (for_rename)
ENCODING 9265
SWIDTH 1024 0
DWIDTH 16 0
BBX 16 16 0 -2
BITMAP
0000
0020
2010
1010
1012
121C
21F0
2010
2010
2010
2810
2810
3020
10C0
0300
0000
ENDCHAR
STARTCHAR (for_rename)
ENCODING 9266
SWIDTH 1024 0
DWIDTH 16 0
BBX 16 16 0 -2
BITMAP
0002
0041
4028
2024
2020
243C
43E0
4020
4020
4020
5020
5020
6040
2180
0600
0000
ENDCHAR
STARTCHAR (for_rename)
ENCODING 9267
SWIDTH 1024 0
DWIDTH 16 0
BBX 16 16 0 -2
BITMAP
0000
0000
0418
03E0
0040
0080
0000
0000
0000
0800
1000
1000
0C04
03F8
0000
0000
ENDCHAR
STARTCHAR (for_rename)
ENCODING 9268
SWIDTH 1024 0
DWIDTH 16 0
BBX 16 16 0 -2
BITMAP
0000
0000
0418
03E0
0044
0082
0010
0008
0000
0800
1000
1000
0C04
03F8
0000
0000
ENDCHAR
STARTCHAR (for_rename)
ENCODING 9269
SWIDTH 1024 0
DWIDTH 16 0
BBX 16 16 0 -2
BITMAP
0000
0300
0080
0084
1078
0FC0
0040
0020
0020
0FF0
1010
1000
1000
0C00
03E0
0000
ENDCHAR
STARTCHAR (for_rename)
ENCODING 9270
SWIDTH 1024 0
DWIDTH 16 0
BBX 16 16 0 -2
BITMAP
0012
0309
0080
0084
1078
0FC0
0040
0020
0020
0FF0
1010
1000
1000
0C00
03E0
0000
ENDCHAR
STARTCHAR (for_rename)
ENCODING 9271
SWIDTH 1024 0
DWIDTH 16 0
BBX 16 16 0 -2
BITMAP
0000
1000
0800
0C00
0800
0800
0800
0800
0800
0804
0804
0808
0810
0460
0380
0000
ENDCHAR
STARTCHAR (for_rename)
ENCODING 9272
SWIDTH 1024 0
DWIDTH 16 0
BBX 16 16 0 -2
BITMAP
0000
1000
0810
0C08
0840
0820
0800
0800
0800
0804
0804
0808
0810
0460
0380
0000
ENDCHAR
STARTCHAR (for_rename)
ENCODING 9273
SWIDTH 1024 0
DWIDTH 16 0
BBX 16 16 0 -2
BITMAP
0000
0180
0040
407E
3FC0
0040
0040
07C0
0840
0840
07C0
0040
0080
0300
0C00
0000
ENDCHAR
STARTCHAR (for_rename)
ENCODING 9274
SWIDTH 1024 0
DWIDTH 16 0
BBX 16 16 0 -2
BITMAP
0012
0189
0040
207E
1FC0
0040
0040
03C0
0440
0440
03C0
0040
0080
0300
0C00
0000
ENDCHAR
STARTCHAR (for_rename)
ENCODING 9275
SWIDTH 1024 0
DWIDTH 16 0
BBX 16 16 0 -2
BITMAP
0000
0020
0810
0410
0410
041E
27F0
1C10
0410
0410
0450
0420
0400
0400
03F8
0000
ENDCHAR
STARTCHAR (for_rename)
ENCODING 9276
SWIDTH 1024 0
DWIDTH 16 0
BBX 16 16 0 -2
BITMAP
0002
0041
1028
0824
0820
083C
4FE0
3820
0820
0820
08A0
0840
0800
0800
07F0
0000
ENDCHAR
STARTCHAR (for_rename)
ENCODING 9277
SWIDTH 1024 0
DWIDTH 16 0
BBX 16 16 0 -2
BITMAP
0000
09F0
0620
0040
0180
0200
0C3E
11C0
3E80
0080
0100
0100
0100
0080
0078
0000
ENDCHAR
STARTCHAR (for_rename)
ENCODING 9278
SWIDTH 1024 0
DWIDTH 16 0
BBX 16 16 0 -2
BITMAP
0002
09F1
0620
0044
0182
0200
0C3E
11C0
3E80
0080
0100
0100
0100
0080
0078
0000
ENDCHAR
STARTCHAR (for_rename)
ENCODING 9279
SWIDTH 1024 0
DWIDTH 16 0
BBX 16 16 0 -2
BITMAP
0000
0C00
0400
0480
4700
3C00
0878
088C
0810
1000
1000
1100
2100
2080
407C
0000
ENDCHAR
STARTCHAR (for_rename)
ENCODING 9280
SWIDTH 1024 0
DWIDTH 16 0
BBX 16 16 0 -2
BITMAP
0002
0C01
0408
0484
4700
3C00
0878
088C
0810
1000
1000
1100
2100
2080
407C
0000
ENDCHAR
STARTCHAR (for_rename)
ENCODING 9281
SWIDTH 1024 0
DWIDTH 16 0
BBX 16 16 0 -2
BITMAP
0000
0600
0200
0220
23C0
1E00
0200
0478
0584
0E04
0804
0004
0008
0030
03C0
0000
ENDCHAR
STARTCHAR (for_rename)
ENCODING 9282
SWIDTH 1024 0
DWIDTH 16 0
BBX 16 16 0 -2
BITMAP
0002
0601
0208
0224
23C0
1E00
0200
0478
0584
0E04
0804
0004
0008
0030
03C0
0000
ENDCHAR
STARTCHAR (for_rename)
ENCODING 9283
SWIDTH 1024 0
DWIDTH 16 0
BBX 16 16 0 -2
BITMAP
0000
0000
0000
0000
0000
0000
03C0
0C20
3010
0010
0010
0020
00C0
0700
0000
0000
ENDCHAR
STARTCHAR (for_rename)
ENCODING 9284
SWIDTH 1024 0
DWIDTH 16 0
BBX 16 16 0 -2
BITMAP
0000
0000
0000
01E0
0618
5804
2002
0002
0002
0002
0004
0018
0060
0380
0000
0000
ENDCHAR
STARTCHAR (for_rename)
ENCODING 9285
SWIDTH 1024 0
DWIDTH 16 0
BBX 16 16 0 -2
BITMAP
0002
0011
0008
01E0
0618
5804
2002
0002
0002
0002
0004
0018
0060
0380
0000
0000
ENDCHAR
STARTCHAR (for_rename)
ENCODING 9286
SWIDTH 1024 0
DWIDTH 16 0
BBX 16 16 0 -2
BITMAP
0000
0000
007E
2398
1C20
0040
0080
0080
0100
0100
0100
0100
0080
007C
0000
0000
ENDCHAR
STARTCHAR (for_rename)
ENCODING 9287
SWIDTH 1024 0
DWIDTH 16 0
BBX 16 16 0 -2
BITMAP
0000
0000
007E
2398
1C22
0041
0088
0084
0100
0100
0100
0100
0080
007C
0000
0000
ENDCHAR
STARTCHAR (for_rename)
ENCODING 9288
SWIDTH 1024 0
DWIDTH 16 0
BBX 16 16 0 -2
BITMAP
0000
0400
0200
0200
0200
0208
0270
0180
0600
0800
1000
1000
1000
0C04
03F8
0000
ENDCHAR
STARTCHAR (for_rename)
ENCODING 9289
SWIDTH 1024 0
DWIDTH 16 0
BBX 16 16 0 -2
BITMAP
0004
0422
0210
0200
0200
0208
0270
0180
0600
0800
1000
1000
1000
0C04
03F8
0000
ENDCHAR
STARTCHAR (for_rename)
ENCODING 9290
SWIDTH 1024 0
DWIDTH 16 0
BBX 16 16 0 -2
BITMAP
0000
0C00
0480
4700
3C3C
0806
0808
1020
1020
2010
2010
41F0
021C
0212
01E0
0000
ENDCHAR
STARTCHAR (for_rename)
ENCODING 9291
SWIDTH 1024 0
DWIDTH 16 0
BBX 16 16 0 -2
BITMAP
0000
0000
2000
113C
10C8
1010
1000
2000
2000
2100
2100
2900
2880
307C
1000
0000
ENDCHAR
STARTCHAR (for_rename)
ENCODING 9292
SWIDTH 1024 0
DWIDTH 16 0
BBX 16 16 0 -2
BITMAP
0000
0100
0080
2100
11F0
1308
1504
1904
1104
2A04
2A04
247C
2A84
108A
0070
0000
ENDCHAR
STARTCHAR (for_rename)
ENCODING 9293
SWIDTH 1024 0
DWIDTH 16 0
BBX 16 16 0 -2
BITMAP
0000
1000
0800
0838
0CC4
5904
2A04
0C04
0804
0804
187C
2884
488A
1870
0800
0000
ENDCHAR
STARTCHAR (for_rename)
ENCODING 9294
SWIDTH 1024 0
DWIDTH 16 0
BBX 16 16 0 -2
BITMAP
0000
0000
01E0
0698
0884
1082
1082
2102
2102
2102
2204
1204
0C18
00E0
0000
0000
ENDCHAR
STARTCHAR (for_rename)
ENCODING 9295
SWIDTH 1024 0
DWIDTH 16 0
BBX 16 16 0 -2
BITMAP
0000
0020
2010
1012
121C
11F0
1010
2010
2010
2008
2008
28F8
290C
310A
10F0
0000
ENDCHAR
STARTCHAR (for_rename)
ENCODING 9296
SWIDTH 1024 0
DWIDTH 16 0
BBX 16 16 0 -2
BITMAP
0012
0049
4020
2024
2438
23E0
2020
4020
4020
4010
4010
51F0
5218
6214
21E0
0000
ENDCHAR
STARTCHAR (for_rename)
ENCODING 9297
SWIDTH 1024 0
DWIDTH 16 0
BBX 16 16 0 -2
BITMAP
0006
0049
4029
2026
2438
23E0
2020
4020
4020
4010
4010
51F0
5218
6214
21E0
0000
ENDCHAR
STARTCHAR (for_rename)
ENCODING 9298
SWIDTH 1024 0
DWIDTH 16 0
BBX 16 16 0 -2
BITMAP
0000
0000
0220
4420
3830
0830
1028
1026
2020
2020
2020
2040
2040
1080
0F00
0000
ENDCHAR
STARTCHAR (for_rename)
ENCODING 9299
SWIDTH 1024 0
DWIDTH 16 0
BBX 16 16 0 -2
BITMAP
0002
0001
0224
4422
3830
0830
1028
1026
2020
2020
2020
2040
2040
1080
0F00
0000
ENDCHAR
STARTCHAR (for_rename)
ENCODING 9300
SWIDTH 1024 0
DWIDTH 16 0
BBX 16 16 0 -2
BITMAP
0006
0009
0229
4426
3830
0830
1028
1026
2020
2020
2020
2040
2040
1080
0F00
0000
ENDCHAR
STARTCHAR (for_rename)
ENCODING 9301
SWIDTH 1024 0
DWIDTH 16 0
BBX 16 16 0 -2
BITMAP
0000
0400
03C0
0080
0100
0200
0200
0100
00E0
0398
0C44
5042
6042
0440
0380
0000
ENDCHAR
STARTCHAR (for_rename)
ENCODING 9302
SWIDTH 1024 0
DWIDTH 16 0
BBX 16 16 0 -2
BITMAP
0000
0404
03C2
0090
0108
0200
0200
0100
00E0
0398
0C44
5042
6042
0440
0380
0000
ENDCHAR
STARTCHAR (for_rename)
ENCODING 9303
SWIDTH 1024 0
DWIDTH 16 0
BBX 16 16 0 -2
BITMAP
0000
0400
03CC
0092
0112
020C
0200
0100
00E0
0398
0C44
5042
6042
0440
0380
0000
ENDCHAR
STARTCHAR (for_rename)
ENCODING 9304
SWIDTH 1024 0
DWIDTH 16 0
BBX 16 16 0 -2
BITMAP
0000
0000
0000
0000
0300
0480
0840
5040
2020
0010
0010
0008
0006
0000
0000
0000
ENDCHAR
STARTCHAR (for_rename)
ENCODING 9305
SWIDTH 1024 0
DWIDTH 16 0
BBX 16 16 0 -2
BITMAP
0000
0004
0002
0010
0308
0480
0840
5040
2020
0010
0010
0008
0006
0000
0000
0000
ENDCHAR
STARTCHAR (for_rename)
ENCODING 9306
SWIDTH 1024 0
DWIDTH 16 0
BBX 16 16 0 -2
BITMAP
0000
0000
000C
0012
0312
048C
0840
5040
2020
0010
0010
0008
0006
0000
0000
0000
ENDCHAR
STARTCHAR (for_rename)
ENCODING 9307
SWIDTH 1024 0
DWIDTH 16 0
BBX 16 16 0 -2
BITMAP
0000
0000
210C
10F0
1010
1012
121C
21F0
2010
2008
2008
28F8
290C
310A
10F0
0000
ENDCHAR
STARTCHAR (for_rename)
ENCODING 9308
SWIDTH 1024 0
DWIDTH 16 0
BBX 16 16 0 -2
BITMAP
0002
0001
4218
21E2
2021
2024
2438
43E0
4020
4010
4010
51F0
5218
6214
21E0
0000
ENDCHAR
STARTCHAR (for_rename)
ENCODING 9309
SWIDTH 1024 0
DWIDTH 16 0
BBX 16 16 0 -2
BITMAP
0006
0009
2109
10F6
1010
1012
121C
21F0
2010
2008
2008
28F8
290C
310A
10F0
0000
ENDCHAR
STARTCHAR (for_rename)
ENCODING 9310
SWIDTH 1024 0
DWIDTH 16 0
BBX 16 16 0 -2
BITMAP
0000
00C0
0040
104C
0FF0
0040
0444
0858
07E0
0040
0020
07E0
0838
0824
07C0
0000
ENDCHAR
STARTCHAR (for_rename)
ENCODING 9311
SWIDTH 1024 0
DWIDTH 16 0
BBX 16 16 0 -2
BITMAP
0000
1380
0C40
0080
0080
0110
0108
0788
1968
2218
440C
4412
4810
3020
01C0
0000
ENDCHAR
STARTCHAR (for_rename)
ENCODING 9312
SWIDTH 1024 0
DWIDTH 16 0
BBX 16 16 0 -2
BITMAP
0000
1000
0800
4900
3E18
0804
0802
3800
4810
4808
3008
1008
1008
0C30
03C0
0000
ENDCHAR
STARTCHAR (for_rename)
ENCODING 9313
SWIDTH 1024 0
DWIDTH 16 0
BBX 16 16 0 -2
BITMAP
0000
0040
1020
0840
09F0
0E48
0884
1482
2502
2202
2304
2404
1818
00E0
0000
0000
ENDCHAR
STARTCHAR (for_rename)
ENCODING 9314
SWIDTH 1024 0
DWIDTH 16 0
BBX 16 16 0 -2
BITMAP
0000
0200
0100
0100
1100
0FC0
0208
1204
2242
1F82
0402
0404
0404
0208
01F0
0000
ENDCHAR
STARTCHAR (for_rename)
ENCODING 9315
SWIDTH 1024 0
DWIDTH 16 0
BBX 16 16 0 -2
BITMAP
0000
0000
0000
0000
0100
1080
0800
09E0
0E10
3810
0410
04E0
0200
0200
0200
0000
ENDCHAR
STARTCHAR (for_rename)
ENCODING 9316
SWIDTH 1024 0
DWIDTH 16 0
BBX 16 16 0 -2
BITMAP
0000
0180
0040
1000
0878
0984
4E02
3802
0402
0484
0478
0200
0200
0200
0200
0000
ENDCHAR
STARTCHAR (for_rename)
ENCODING 9317
SWIDTH 1024 0
DWIDTH 16 0
BBX 16 16 0 -2
BITMAP
0000
0000
0000
0000
0100
2080
23C0
24A0
2890
2890
3090
24A0
13C0
0100
0600
0000
ENDCHAR
STARTCHAR (for_rename)
ENCODING 9318
SWIDTH 1024 0
DWIDTH 16 0
BBX 16 16 0 -2
BITMAP
0000
0040
2020
1020
10F8
1324
2422
2422
2822
2A22
31A4
1078
0040
0180
0600
0000
ENDCHAR
STARTCHAR (for_rename)
ENCODING 9319
SWIDTH 1024 0
DWIDTH 16 0
BBX 16 16 0 -2
BITMAP
0000
0000
0000
0000
0200
0100
0100
01E0
0100
0100
0100
1F00
21E0
2110
1E00
0000
ENDCHAR
STARTCHAR (for_rename)
ENCODING 9320
SWIDTH 1024 0
DWIDTH 16 0
BBX 16 16 0 -2
BITMAP
0000
0100
0080
0080
0084
00F8
0080
0080
0040
0040
1FC0
2070
204C
1882
0700
0000
ENDCHAR
STARTCHAR (for_rename)
ENCODING 9321
SWIDTH 1024 0
DWIDTH 16 0
BBX 16 16 0 -2
BITMAP
0000
0400
03C0
0080
0000
0400
0800
08F0
0B08
0C04
0804
0004
0008
0070
0380
0000
ENDCHAR
STARTCHAR (for_rename)
ENCODING 9322
SWIDTH 1024 0
DWIDTH 16 0
BBX 16 16 0 -2
BITMAP
0000
0800
0460
0490
0908
0908
0A08
0A08
0A08
0C08
0410
0010
0020
00C0
0300
0000
ENDCHAR
STARTCHAR (for_rename)
ENCODING 9323
SWIDTH 1024 0
DWIDTH 16 0
BBX 16 16 0 -2
BITMAP
0000
0000
08F0
0720
0040
0080
0100
03F0
0608
0804
1004
01C4
0224
0228
01F0
0000
ENDCHAR
STARTCHAR (for_rename)
ENCODING 9324
SWIDTH 1024 0
DWIDTH 16 0
BBX 16 16 0 -2
BITMAP
0000
1000
0800
0830
0CC8
5908
2A08
0C08
1810
1810
2810
4811
0812
180C
0800
0000
ENDCHAR
STARTCHAR (for_rename)
ENCODING 9325
SWIDTH 1024 0
DWIDTH 16 0
BBX 16 16 0 -2
BITMAP
0000
0000
08F0
0720
0040
0080
0100
03F0
0608
0804
1004
0004
0008
0030
03C0
0000
ENDCHAR
STARTCHAR (for_rename)
ENCODING 9326
SWIDTH 1024 0
DWIDTH 16 0
BBX 16 16 0 -2
BITMAP
0000
0000
0000
0000
0800
0800
38C0
0B20
0C10
0810
1810
2810
0820
19C0
0800
0000
ENDCHAR
STARTCHAR (for_rename)
ENCODING 9327
SWIDTH 1024 0
DWIDTH 16 0
BBX 16 16 0 -2
BITMAP
0000
1000
0800
0800
0C70
598C
2A02
0C02
1802
1802
2802
4804
0818
18E0
0800
0000
ENDCHAR
STARTCHAR (for_rename)
ENCODING 9328
SWIDTH 1024 0
DWIDTH 16 0
BBX 16 16 0 -2
BITMAP
0000
0000
09C0
0640
0080
0080
03F8
0D04
1102
2202
2202
24E2
2514
1918
00E0
0000
ENDCHAR
STARTCHAR (for_rename)
ENCODING 9329
SWIDTH 1024 0
DWIDTH 16 0
BBX 16 16 0 -2
BITMAP
0000
09E0
0640
0080
0100
03F0
0608
0808
1188
0110
02E0
0400
0E38
1144
2082
0000
ENDCHAR
STARTCHAR (for_rename)
ENCODING 9330
SWIDTH 1024 0
DWIDTH 16 0
BBX 16 16 0 -2
BITMAP
0000
0300
0120
21C0
1F00
0408
0984
0E58
1060
21C0
0240
0440
0400
0408
03F0
0000
ENDCHAR
STARTCHAR (for_rename)
ENCODING 9331
SWIDTH 1024 0
DWIDTH 16 0
BBX 16 16 0 -2
BITMAP
0000
0100
0080
0100
0100
0200
0200
0400
0580
0E40
0842
1042
1044
2044
2038
0000
ENDCHAR
STARTCHAR (for_rename)
ENCODING 9505
SWIDTH 1024 0
DWIDTH 16 0
BBX 16 16 0 -2
BITMAP
0000
0000
0000
0000
0000
7FF0
0010
0020
02C0
0300
0200
0200
0200
0400
1800
0000
ENDCHAR
STARTCHAR (for_rename)
ENCODING 9506
SWIDTH 1024 0
DWIDTH 16 0
BBX 16 16 0 -2
BITMAP
0000
0000
7FFE
0002
0002
0084
0088
00B0
00C0
0080
0080
0100
0100
0600
1800
0000
ENDCHAR
STARTCHAR (for_rename)
ENCODING 9507
SWIDTH 1024 0
DWIDTH 16 0
BBX 16 16 0 -2
BITMAP
0000
0000
0000
0000
0010
0010
0020
0020
0040
0180
0680
3880
0080
0080
0080
0000
ENDCHAR
STARTCHAR (for_rename)
ENCODING 9508
SWIDTH 1024 0
DWIDTH 16 0
BBX 16 16 0 -2
BITMAP
0000
0004
0004
0008
0008
0010
0020
00C0
0740
3840
0040
0040
0040
0040
0040
0000
ENDCHAR
STARTCHAR (for_rename)
ENCODING 9509
SWIDTH 1024 0
DWIDTH 16 0
BBX 16 16 0 -2
BITMAP
0000
0000
0000
0000
0100
0100
1FF0
1010
1010
1010
0020
0020
0040
0180
0600
0000
ENDCHAR
STARTCHAR (for_rename)
ENCODING 9510
SWIDTH 1024 0
DWIDTH 16 0
BBX 16 16 0 -2
BITMAP
0000
0080
0080
1FFC
1004
1004
1004
1004
1004
0008
0008
0010
0020
00C0
0300
0000
ENDCHAR
STARTCHAR (for_rename)
ENCODING 9511
SWIDTH 1024 0
DWIDTH 16 0
BBX 16 16 0 -2
BITMAP
0000
0000
0000
0000
0000
0000
1FC0
0200
0200
0200
0200
0200
0200
3FE0
0000
0000
ENDCHAR
STARTCHAR (for_rename)
ENCODING 9512
SWIDTH 1024 0
DWIDTH 16 0
BBX 16 16 0 -2
BITMAP
0000
0000
0000
1FFC
0080
0080
0080
0080
0080
0080
0080
0080
0080
3FFE
0000
0000
ENDCHAR
STARTCHAR (for_rename)
ENCODING 9513
SWIDTH 1024 0
DWIDTH 16 0
BBX 16 16 0 -2
BITMAP
0000
0000
0000
0000
0080
0080
3FF0
0080
0180
0280
0480
0880
1080
2080
0180
0000
ENDCHAR
STARTCHAR (for_rename)
ENCODING 9514
SWIDTH 1024 0
DWIDTH 16 0
BBX 16 16 0 -2
BITMAP
0000
0020
0020
0020
3FFE
0020
0060
00A0
00A0
0120
0220
0C20
3020
0020
00E0
0000
ENDCHAR
STARTCHAR (for_rename)
ENCODING 9515
SWIDTH 1024 0
DWIDTH 16 0
BBX 16 16 0 -2
BITMAP
0000
0100
0100
0100
3FFC
0104
0104
0104
0204
0204
0204
0404
0404
0804
3038
0000
ENDCHAR
STARTCHAR (for_rename)
ENCODING 9516
SWIDTH 1024 0
DWIDTH 16 0
BBX 16 16 0 -2
BITMAP
0002
0111
0108
0100
3FFC
0104
0104
0104
0204
0204
0204
0404
0404
0804
3038
0000
ENDCHAR
STARTCHAR (for_rename)
ENCODING 9517
SWIDTH 1024 0
DWIDTH 16 0
BBX 16 16 0 -2
BITMAP
0000
0100
0100
0100
1FFC
0080
0080
0080
0080
3FFE
0040
0040
0040
0040
0040
0000
ENDCHAR
STARTCHAR (for_rename)
ENCODING 9518
SWIDTH 1024 0
DWIDTH 16 0
BBX 16 16 0 -2
BITMAP
0004
0112
0108
0100
1FFC
0080
0080
0080
0080
3FFE
0040
0040
0040
0040
0040
0000
ENDCHAR
STARTCHAR (for_rename)
ENCODING 9519
SWIDTH 1024 0
DWIDTH 16 0
BBX 16 16 0 -2
BITMAP
0000
0100
0100
01FC
0204
0204
0404
1808
0008
0010
0010
0020
0040
0180
0E00
0000
ENDCHAR
STARTCHAR (for_rename)
ENCODING 9520
SWIDTH 1024 0
DWIDTH 16 0
BBX 16 16 0 -2
BITMAP
0012
0109
0100
01FC
0204
0204
0404
1808
0008
0010
0010
0020
0040
0180
0E00
0000
ENDCHAR
STARTCHAR (for_rename)
ENCODING 9521
SWIDTH 1024 0
DWIDTH 16 0
BBX 16 16 0 -2
BITMAP
0000
0400
0400
0400
07FE
0820
0820
1020
2020
0020
0040
0040
0080
0300
0C00
0000
ENDCHAR
STARTCHAR (for_rename)
ENCODING 9522
SWIDTH 1024 0
DWIDTH 16 0
BBX 16 16 0 -2
BITMAP
0002
0411
0408
0400
07FE
0820
0820
1020
2020
0020
0040
0040
0080
0300
0C00
0000
ENDCHAR
STARTCHAR (for_rename)
ENCODING 9523
SWIDTH 1024 0
DWIDTH 16 0
BBX 16 16 0 -2
BITMAP
0000
0000
0000
1FFC
0004
0004
0004
0004
0004
0004
0004
0004
0004
1FFC
0000
0000
ENDCHAR
STARTCHAR (for_rename)
ENCODING 9524
SWIDTH 1024 0
DWIDTH 16 0
BBX 16 16 0 -2
BITMAP
0024
0012
0000
1FFC
0004
0004
0004
0004
0004
0004
0004
0004
0004
1FFC
0000
0000
ENDCHAR
STARTCHAR (for_rename)
ENCODING 9525
SWIDTH 1024 0
DWIDTH 16 0
BBX 16 16 0 -2
BITMAP
0000
0808
0808
0808
0808
3FFE
0808
0808
0808
0808
0010
0010
0020
00C0
0700
0000
ENDCHAR
STARTCHAR (for_rename)
ENCODING 9526
SWIDTH 1024 0
DWIDTH 16 0
BBX 16 16 0 -2
BITMAP
0002
1011
1014
1012
1010
7FFC
1010
1010
1010
1010
0020
0020
0040
0180
0E00
0000
ENDCHAR
STARTCHAR (for_rename)
ENCODING 9527
SWIDTH 1024 0
DWIDTH 16 0
BBX 16 16 0 -2
BITMAP
0000
1C00
0300
0000
0002
0002
1C02
0304
0004
0004
0008
0010
0060
0180
1E00
0000
ENDCHAR
STARTCHAR (for_rename)
ENCODING 9528
SWIDTH 1024 0
DWIDTH 16 0
BBX 16 16 0 -2
BITMAP
0002
0001
1C08
0304
0000
0002
1C02
0302
0004
0004
0008
0010
0060
0180
1E00
0000
ENDCHAR
STARTCHAR (for_rename)
ENCODING 9529
SWIDTH 1024 0
DWIDTH 16 0
BBX 16 16 0 -2
BITMAP
0000
0000
1FF8
0008
0008
0010
0010
0020
0020
0040
00A0
0110
0208
0C04
3002
0000
ENDCHAR
STARTCHAR (for_rename)
ENCODING 9530
SWIDTH 1024 0
DWIDTH 16 0
BBX 16 16 0 -2
BITMAP
0012
0009
3FF0
0010
0010
0020
0020
0040
0040
0080
0140
0220
0410
1808
6004
0000
ENDCHAR
STARTCHAR (for_rename)
ENCODING 9531
SWIDTH 1024 0
DWIDTH 16 0
BBX 16 16 0 -2
BITMAP
0000
0400
0400
0400
07FE
3C02
0404
0408
0410
0420
0400
0400
0400
03FC
0000
0000
ENDCHAR
STARTCHAR (for_rename)
ENCODING 9532
SWIDTH 1024 0
DWIDTH 16 0
BBX 16 16 0 -2
BITMAP
0004
0412
0408
0400
07FE
3C02
0404
0408
0410
0420
0400
0400
0400
03FC
0000
0000
ENDCHAR
STARTCHAR (for_rename)
ENCODING 9533
SWIDTH 1024 0
DWIDTH 16 0
BBX 16 16 0 -2
BITMAP
0000
0000
2004
1004
0804
0804
0404
0008
0008
0010
0010
0020
0040
0180
0E00
0000
ENDCHAR
STARTCHAR (for_rename)
ENCODING 9534
SWIDTH 1024 0
DWIDTH 16 0
BBX 16 16 0 -2
BITMAP
0012
0009
2000
1004
0804
0804
0404
0008
0008
0010
0010
0020
0040
0180
0E00
0000
ENDCHAR
STARTCHAR (for_rename)
ENCODING 9535
SWIDTH 1024 0
DWIDTH 16 0
BBX 16 16 0 -2
BITMAP
0000
0100
0100
01FC
0204
0204
0404
1988
0068
0010
0010
0020
0040
0180
0E00
0000
ENDCHAR
STARTCHAR (for_rename)
ENCODING 9536
SWIDTH 1024 0
DWIDTH 16 0
BBX 16 16 0 -2
BITMAP
0012
0109
0100
01FC
0204
0204
0404
1988
0068
0010
0010
0020
0040
0180
0E00
0000
ENDCHAR
STARTCHAR (for_rename)
ENCODING 9537
SWIDTH 1024 0
DWIDTH 16 0
BBX 16 16 0 -2
BITMAP
0000
0008
0070
0F80
0080
0080
0080
3FFE
0080
0080
0080
0100
0100
0200
1C00
0000
ENDCHAR
STARTCHAR (for_rename)
ENCODING 9538
SWIDTH 1024 0
DWIDTH 16 0
BBX 16 16 0 -2
BITMAP
0000
0008
0072
0F81
0088
0084
0080
3FFE
0080
0080
0080
0100
0100
0200
1C00
0000
ENDCHAR
STARTCHAR (for_rename)
ENCODING 9539
SWIDTH 1024 0
DWIDTH 16 0
BBX 16 16 0 -2
BITMAP
0000
0000
0000
0000
0000
0410
2410
2210
1210
1010
0020
0020
0040
0180
0E00
0000
ENDCHAR
STARTCHAR (for_rename)
ENCODING 9540
SWIDTH 1024 0
DWIDTH 16 0
BBX 16 16 0 -2
BITMAP
0000
0000
0200
2104
1104
1084
0884
0804
0004
0008
0008
0010
0020
00C0
0700
0000
ENDCHAR
STARTCHAR (for_rename)
ENCODING 9541
SWIDTH 1024 0
DWIDTH 16 0
BBX 16 16 0 -2
BITMAP
0002
0011
0208
2100
1104
1084
0884
0804
0004
0008
0008
0010
0020
00C0
0700
0000
ENDCHAR
STARTCHAR (for_rename)
ENCODING 9542
SWIDTH 1024 0
DWIDTH 16 0
BBX 16 16 0 -2
BITMAP
0000
0000
1FFC
0000
0000
0000
3FFE
0080
0080
0080
0080
0100
0100
0200
1C00
0000
ENDCHAR
STARTCHAR (for_rename)
ENCODING 9543
SWIDTH 1024 0
DWIDTH 16 0
BBX 16 16 0 -2
BITMAP
0002
0001
3FE8
0004
0000
0000
7FFC
0100
0100
0100
0100
0200
0200
0400
3800
0000
ENDCHAR
STARTCHAR (for_rename)
ENCODING 9544
SWIDTH 1024 0
DWIDTH 16 0
BBX 16 16 0 -2
BITMAP
0000
0400
0400
0400
0400
0600
0580
0460
0410
0408
0400
0400
0400
0400
0400
0000
ENDCHAR
STARTCHAR (for_rename)
ENCODING 9545
SWIDTH 1024 0
DWIDTH 16 0
BBX 16 16 0 -2
BITMAP
0000
0408
0404
0420
0410
0600
0580
0460
0410
0408
0400
0400
0400
0400
0400
0000
ENDCHAR
STARTCHAR (for_rename)
ENCODING 9546
SWIDTH 1024 0
DWIDTH 16 0
BBX 16 16 0 -2
BITMAP
0000
0040
0040
0040
0040
3FFE
0040
0040
0040
0080
0080
0080
0100
0600
1800
0000
ENDCHAR
STARTCHAR (for_rename)
ENCODING 9547
SWIDTH 1024 0
DWIDTH 16 0
BBX 16 16 0 -2
BITMAP
0000
0000
0000
0FF8
0000
0000
0000
0000
0000
0000
0000
0000
3FFE
0000
0000
0000
ENDCHAR
STARTCHAR (for_rename)
ENCODING 9548
SWIDTH 1024 0
DWIDTH 16 0
BBX 16 16 0 -2
BITMAP
0000
0000
1FF8
0008
0008
0008
0010
0C10
0320
00A0
0040
00B0
0308
0C04
3000
0000
ENDCHAR
STARTCHAR (for_rename)
ENCODING 9549
SWIDTH 1024 0
DWIDTH 16 0
BBX 16 16 0 -2
BITMAP
0000
0300
00C0
0000
1FF8
0008
0010
0020
0040
01B0
068C
3882
0080
0080
0080
0000
ENDCHAR
STARTCHAR (for_rename)
ENCODING 9550
SWIDTH 1024 0
DWIDTH 16 0
BBX 16 16 0 -2
BITMAP
0000
0000
0008
0008
0008
0008
0010
0010
0020
0020
0040
0080
0100
0600
1800
0000
ENDCHAR
STARTCHAR (for_rename)
ENCODING 9551
SWIDTH 1024 0
DWIDTH 16 0
BBX 16 16 0 -2
BITMAP
0000
0000
0040
0420
0410
0410
0408
0808
0804
0804
1004
1002
2002
4002
0000
0000
ENDCHAR
STARTCHAR (for_rename)
ENCODING 9552
SWIDTH 1024 0
DWIDTH 16 0
BBX 16 16 0 -2
BITMAP
0002
0009
0044
0420
0410
0410
0408
0808
0804
0804
1004
1002
2002
4002
0000
0000
ENDCHAR
STARTCHAR (for_rename)
ENCODING 9553
SWIDTH 1024 0
DWIDTH 16 0
BBX 16 16 0 -2
BITMAP
0006
0009
0049
0426
0410
0410
0408
0808
0804
0804
1004
1002
2002
4002
0000
0000
ENDCHAR
STARTCHAR (for_rename)
ENCODING 9554
SWIDTH 1024 0
DWIDTH 16 0
BBX 16 16 0 -2
BITMAP
0000
1000
1000
1008
1030
11C0
1E00
1000
1000
1000
1000
1000
1000
0FFC
0000
0000
ENDCHAR
STARTCHAR (for_rename)
ENCODING 9555
SWIDTH 1024 0
DWIDTH 16 0
BBX 16 16 0 -2
BITMAP
0002
1001
1008
1004
1000
10F0
1F00
1000
1000
1000
1000
1000
1000
0FFC
0000
0000
ENDCHAR
STARTCHAR (for_rename)
ENCODING 9556
SWIDTH 1024 0
DWIDTH 16 0
BBX 16 16 0 -2
BITMAP
0006
1009
1009
1006
1030
11C0
1E00
1000
1000
1000
1000
1000
1000
0FFC
0000
0000
ENDCHAR
STARTCHAR (for_rename)
ENCODING 9557
SWIDTH 1024 0
DWIDTH 16 0
BBX 16 16 0 -2
BITMAP
0000
0000
0000
3FFC
0004
0004
0004
0008
0008
0010
0010
0020
00C0
0300
1C00
0000
ENDCHAR
STARTCHAR (for_rename)
ENCODING 9558
SWIDTH 1024 0
DWIDTH 16 0
BBX 16 16 0 -2
BITMAP
0012
0009
0000
3FFC
0004
0004
0004
0008
0008
0010
0010
0020
00C0
0300
1C00
0000
ENDCHAR
STARTCHAR (for_rename)
ENCODING 9559
SWIDTH 1024 0
DWIDTH 16 0
BBX 16 16 0 -2
BITMAP
0006
0009
0009
3FFE
0004
0004
0004
0008
0008
0010
0010
0020
00C0
0300
1C00
0000
ENDCHAR
STARTCHAR (for_rename)
ENCODING 9560
SWIDTH 1024 0
DWIDTH 16 0
BBX 16 16 0 -2
BITMAP
0000
0000
0000
0000
0600
0900
1080
2040
4020
0010
0008
0004
0002
0001
0000
0000
ENDCHAR
STARTCHAR (for_rename)
ENCODING 9561
SWIDTH 1024 0
DWIDTH 16 0
BBX 16 16 0 -2
BITMAP
0000
0000
0008
0004
0620
0910
1080
2040
4020
0010
0008
0004
0002
0001
0000
0000
ENDCHAR
STARTCHAR (for_rename)
ENCODING 9562
SWIDTH 1024 0
DWIDTH 16 0
BBX 16 16 0 -2
BITMAP
0000
0000
0018
0024
0624
0918
1080
2040
4020
0010
0008
0004
0002
0001
0000
0000
ENDCHAR
STARTCHAR (for_rename)
ENCODING 9563
SWIDTH 1024 0
DWIDTH 16 0
BBX 16 16 0 -2
BITMAP
0000
0080
0080
0080
3FFE
0080
0080
0490
0490
0888
0888
1084
1084
2082
0080
0000
ENDCHAR
STARTCHAR (for_rename)
ENCODING 9564
SWIDTH 1024 0
DWIDTH 16 0
BBX 16 16 0 -2
BITMAP
0002
0091
0088
0080
3FFE
0080
0080
0490
0490
0888
0888
1084
1084
2082
0080
0000
ENDCHAR
STARTCHAR (for_rename)
ENCODING 9565
SWIDTH 1024 0
DWIDTH 16 0
BBX 16 16 0 -2
BITMAP
0000
0086
0089
0089
3FFE
0080
0080
0490
0490
0888
0888
1084
1084
2082
0080
0000
ENDCHAR
STARTCHAR (for_rename)
ENCODING 9566
SWIDTH 1024 0
DWIDTH 16 0
BBX 16 16 0 -2
BITMAP
0000
0000
3FFE
0002
0002
0004
0004
0008
0C10
0360
0080
0040
0020
0010
0000
0000
ENDCHAR
STARTCHAR (for_rename)
ENCODING 9567
SWIDTH 1024 0
DWIDTH 16 0
BBX 16 16 0 -2
BITMAP
0000
0F80
0070
0008
0000
0000
0F00
00E0
0010
0000
0000
1F00
00E0
0018
0004
0000
ENDCHAR
STARTCHAR (for_rename)
ENCODING 9568
SWIDTH 1024 0
DWIDTH 16 0
BBX 16 16 0 -2
BITMAP
0000
0080
0080
0080
0100
0100
0100
0220
0210
0408
0408
080C
0874
3F82
0002
0000
ENDCHAR
STARTCHAR (for_rename)
ENCODING 9569
SWIDTH 1024 0
DWIDTH 16 0
BBX 16 16 0 -2
BITMAP
0000
0008
0008
0008
0008
0610
0190
0060
0020
0050
0088
0104
0200
0C00
0000
0000
ENDCHAR
STARTCHAR (for_rename)
ENCODING 9570
SWIDTH 1024 0
DWIDTH 16 0
BBX 16 16 0 -2
BITMAP
0000
0000
3FFC
0200
0200
0200
0200
7FFE
0200
0200
0200
0200
0200
01FC
0000
0000
ENDCHAR
STARTCHAR (for_rename)
ENCODING 9571
SWIDTH 1024 0
DWIDTH 16 0
BBX 16 16 0 -2
BITMAP
0000
0000
0000
0000
0400
0400
0400
07F0
3C10
0420
0440
0200
0200
0200
0200
0000
ENDCHAR
STARTCHAR (for_rename)
ENCODING 9572
SWIDTH 1024 0
DWIDTH 16 0
BBX 16 16 0 -2
BITMAP
0000
0400
0400
0400
043E
07C2
7E04
0208
0210
0220
0100
0100
0100
0100
0100
0000
ENDCHAR
STARTCHAR (for_rename)
ENCODING 9573
SWIDTH 1024 0
DWIDTH 16 0
BBX 16 16 0 -2
BITMAP
0000
0000
0000
0000
0000
0000
1F80
0080
0080
0080
0080
0080
0080
3FF0
0000
0000
ENDCHAR
STARTCHAR (for_rename)
ENCODING 9574
SWIDTH 1024 0
DWIDTH 16 0
BBX 16 16 0 -2
BITMAP
0000
0000
1FF0
0010
0010
0010
0010
0010
0010
0010
0010
0010
0010
3FFE
0000
0000
ENDCHAR
STARTCHAR (for_rename)
ENCODING 9575
SWIDTH 1024 0
DWIDTH 16 0
BBX 16 16 0 -2
BITMAP
0000
0000
0000
0000
0000
1FE0
0020
0020
0020
0FE0
0020
0020
0020
1FE0
0000
0000
ENDCHAR
STARTCHAR (for_rename)
ENCODING 9576
SWIDTH 1024 0
DWIDTH 16 0
BBX 16 16 0 -2
BITMAP
0000
0000
1FFC
0004
0004
0004
0004
0FFC
0004
0004
0004
0004
0004
1FFC
0000
0000
ENDCHAR
STARTCHAR (for_rename)
ENCODING 9577
SWIDTH 1024 0
DWIDTH 16 0
BBX 16 16 0 -2
BITMAP
0000
0000
1FFC
0000
0000
0000
3FFE
0002
0002
0004
0004
0008
0030
00C0
0700
0000
ENDCHAR
STARTCHAR (for_rename)
ENCODING 9578
SWIDTH 1024 0
DWIDTH 16 0
BBX 16 16 0 -2
BITMAP
0000
0008
0808
0808
0808
0808
0808
0808
0808
0808
0010
0010
0020
00C0
0700
0000
ENDCHAR
STARTCHAR (for_rename)
ENCODING 9579
SWIDTH 1024 0
DWIDTH 16 0
BBX 16 16 0 -2
BITMAP
0000
0000
0020
0420
0420
0420
0421
0421
0421
0422
0822
0824
1028
2010
4000
0000
ENDCHAR
STARTCHAR (for_rename)
ENCODING 9580
SWIDTH 1024 0
DWIDTH 16 0
BBX 16 16 0 -2
BITMAP
0000
0800
0800
0800
0800
0800
0802
0802
0804
0804
0808
0810
0820
09C0
0E00
0000
ENDCHAR
STARTCHAR (for_rename)
ENCODING 9581
SWIDTH 1024 0
DWIDTH 16 0
BBX 16 16 0 -2
BITMAP
0000
0000
0000
1FFC
1004
1004
1004
1004
1004
1004
1004
1004
1004
1FFC
0000
0000
ENDCHAR
STARTCHAR (for_rename)
ENCODING 9582
SWIDTH 1024 0
DWIDTH 16 0
BBX 16 16 0 -2
BITMAP
0000
0000
0000
0000
0000
1FF0
1010
1010
1010
0010
0020
0020
0040
0180
0600
0000
ENDCHAR
STARTCHAR (for_rename)
ENCODING 9583
SWIDTH 1024 0
DWIDTH 16 0
BBX 16 16 0 -2
BITMAP
0000
0000
1FFC
1004
1004
1004
1004
1004
0004
0008
0008
0010
0020
00C0
0700
0000
ENDCHAR
STARTCHAR (for_rename)
ENCODING 9584
SWIDTH 1024 0
DWIDTH 16 0
BBX 16 16 0 -2
BITMAP
0000
0020
0020
0020
3FFE
0420
0420
0420
0420
0420
3FFE
0020
0020
0020
0020
0000
ENDCHAR
STARTCHAR (for_rename)
ENCODING 9585
SWIDTH 1024 0
DWIDTH 16 0
BBX 16 16 0 -2
BITMAP
0000
0000
0000
1FFC
0004
0004
0088
00B0
00C0
0080
0080
0080
0080
3FFE
0000
0000
ENDCHAR
STARTCHAR (for_rename)
ENCODING 9586
SWIDTH 1024 0
DWIDTH 16 0
BBX 16 16 0 -2
BITMAP
0000
0000
1FFC
0004
0004
0004
0FFC
0004
0004
0008
0008
0010
0020
01C0
0E00
0000
ENDCHAR
STARTCHAR (for_rename)
ENCODING 9587
SWIDTH 1024 0
DWIDTH 16 0
BBX 16 16 0 -2
BITMAP
0000
0000
1800
0600
0100
0002
0002
0002
0004
0004
0008
0010
0060
0180
0E00
0000
ENDCHAR
STARTCHAR (for_rename)
ENCODING 9588
SWIDTH 1024 0
DWIDTH 16 0
BBX 16 16 0 -2
BITMAP
0012
0089
0080
1FFC
1004
1004
1004
1004
1004
0008
0008
0010
0020
00C0
0300
0000
ENDCHAR
STARTCHAR (for_rename)
ENCODING 9589
SWIDTH 1024 0
DWIDTH 16 0
BBX 16 16 0 -2
BITMAP
0000
0000
0000
0000
0200
0200
3FE0
0220
0220
0220
0420
0420
0820
1020
20C0
0000
ENDCHAR
STARTCHAR (for_rename)
ENCODING 9590
SWIDTH 1024 0
DWIDTH 16 0
BBX 16 16 0 -2
BITMAP
0000
0000
0000
0000
0800
0800
0FF0
1080
1080
2080
0080
0100
0100
0200
0C00
0000
ENDCHAR
STARTCHAR (for_rename)
ENCODING 9761
SWIDTH 1024 0
DWIDTH 16 0
BBX 16 16 0 -2
BITMAP
0000
0080
0080
0140
0140
0220
0220
0410
0410
0FF8
0808
1004
1004
380E
0000
0000
ENDCHAR
STARTCHAR (for_rename)
ENCODING 9762
SWIDTH 1024 0
DWIDTH 16 0
BBX 16 16 0 -2
BITMAP
0000
1FE0
0818
0804
0804
0804
0818
0FE0
0818
0804
0804
0804
0818
1FE0
0000
0000
ENDCHAR
STARTCHAR (for_rename)
ENCODING 9763
SWIDTH 1024 0
DWIDTH 16 0
BBX 16 16 0 -2
BITMAP
0000
1FFC
0804
0804
0800
0800
0800
0800
0800
0800
0800
0800
0800
1C00
0000
0000
ENDCHAR
STARTCHAR (for_rename)
ENCODING 9764
SWIDTH 1024 0
DWIDTH 16 0
BBX 16 16 0 -2
BITMAP
0000
0080
0080
0140
0140
0220
0220
0410
0410
0808
0808
1004
1004
3FFE
0000
0000
ENDCHAR
STARTCHAR (for_rename)
ENCODING 9765
SWIDTH 1024 0
DWIDTH 16 0
BBX 16 16 0 -2
BITMAP
0000
1FF8
0808
0808
0800
0800
0820
0FE0
0820
0800
0800
0808
0808
1FF8
0000
0000
ENDCHAR
STARTCHAR (for_rename)
ENCODING 9766
SWIDTH 1024 0
DWIDTH 16 0
BBX 16 16 0 -2
BITMAP
0000
1FFC
1008
1010
0020
0020
0040
0080
0100
0200
0200
0404
0804
1FFC
0000
0000
ENDCHAR
STARTCHAR (for_rename)
ENCODING 9767
SWIDTH 1024 0
DWIDTH 16 0
BBX 16 16 0 -2
BITMAP
0000
1C1C
0808
0808
0808
0808
0808
0FF8
0808
0808
0808
0808
0808
1C1C
0000
0000
ENDCHAR
STARTCHAR (for_rename)
ENCODING 9768
SWIDTH 1024 0
DWIDTH 16 0
BBX 16 16 0 -2
BITMAP
0000
03E0
0C18
1004
1004
2412
2412
27F2
2412
2412
1004
1004
0C18
03E0
0000
0000
ENDCHAR
STARTCHAR (for_rename)
ENCODING 9769
SWIDTH 1024 0
DWIDTH 16 0
BBX 16 16 0 -2
BITMAP
0000
01C0
0080
0080
0080
0080
0080
0080
0080
0080
0080
0080
0080
01C0
0000
0000
ENDCHAR
STARTCHAR (for_rename)
ENCODING 9770
SWIDTH 1024 0
DWIDTH 16 0
BBX 16 16 0 -2
BITMAP
0000
1C1C
0810
0820
0840
0880
0900
0A80
0C40
0840
0820
0820
0810
1C1C
0000
0000
ENDCHAR
STARTCHAR (for_rename)
ENCODING 9771
SWIDTH 1024 0
DWIDTH 16 0
BBX 16 16 0 -2
BITMAP
0000
0080
0080
0140
0140
0220
0220
0410
0410
0808
0808
1004
1004
380E
0000
0000
ENDCHAR
STARTCHAR (for_rename)
ENCODING 9772
SWIDTH 1024 0
DWIDTH 16 0
BBX 16 16 0 -2
BITMAP
0000
7007
280A
280A
2412
2412
2412
2222
2222
2222
2142
2142
2082
7087
0000
0000
ENDCHAR
STARTCHAR (for_rename)
ENCODING 9773
SWIDTH 1024 0
DWIDTH 16 0
BBX 16 16 0 -2
BITMAP
0000
380E
1404
1204
1204
1104
1084
1084
1044
1024
1024
1014
100C
380C
0000
0000
ENDCHAR
STARTCHAR (for_rename)
ENCODING 9774
SWIDTH 1024 0
DWIDTH 16 0
BBX 16 16 0 -2
BITMAP
0000
1FFC
1004
1004
0000
0000
1004
1FFC
1004
0000
0000
1004
1004
1FFC
0000
0000
ENDCHAR
STARTCHAR (for_rename)
ENCODING 9775
SWIDTH 1024 0
DWIDTH 16 0
BBX 16 16 0 -2
BITMAP
0000
03E0
0C18
1004
1004
2002
2002
2002
2002
2002
2002
1004
1004
0C18
03E0
0000
ENDCHAR
STARTCHAR (for_rename)
ENCODING 9776
SWIDTH 1024 0
DWIDTH 16 0
BBX 16 16 0 -2
BITMAP
0000
1FFC
0808
0808
0808
0808
0808
0808
0808
0808
0808
0808
0808
1C1C
0000
0000
ENDCHAR
STARTCHAR (for_rename)
ENCODING 9777
SWIDTH 1024 0
DWIDTH 16 0
BBX 16 16 0 -2
BITMAP
0000
1FE0
0818
0804
0804
0804
0818
0FE0
0800
0800
0800
0800
0800
1C00
0000
0000
ENDCHAR
STARTCHAR (for_rename)
ENCODING 9778
SWIDTH 1024 0
DWIDTH 16 0
BBX 16 16 0 -2
BITMAP
0000
1FFC
0804
0404
0200
0100
0080
0040
0080
0100
0200
0404
0804
1FFC
0000
0000
ENDCHAR
STARTCHAR (for_rename)
ENCODING 9779
SWIDTH 1024 0
DWIDTH 16 0
BBX 16 16 0 -2
BITMAP
0000
3FFE
2082
2082
0080
0080
0080
0080
0080
0080
0080
0080
0080
01C0
0000
0000
ENDCHAR
STARTCHAR (for_rename)
ENCODING 9780
SWIDTH 1024 0
DWIDTH 16 0
BBX 16 16 0 -2
BITMAP
0000
1E38
0144
0082
0080
0080
0080
0080
0080
0080
0080
0080
0080
01C0
0000
0000
ENDCHAR
STARTCHAR (for_rename)
ENCODING 9781
SWIDTH 1024 0
DWIDTH 16 0
BBX 16 16 0 -2
BITMAP
0000
01C0
0080
0FF8
1084
2082
2082
2082
2082
2082
1084
0FF8
0080
01C0
0000
0000
ENDCHAR
STARTCHAR (for_rename)
ENCODING 9782
SWIDTH 1024 0
DWIDTH 16 0
BBX 16 16 0 -2
BITMAP
0000
380E
0808
0410
0220
0220
0140
0080
0140
0220
0220
0410
0808
380E
0000
0000
ENDCHAR
STARTCHAR (for_rename)
ENCODING 9783
SWIDTH 1024 0
DWIDTH 16 0
BBX 16 16 0 -2
BITMAP
0000
31C6
4889
0888
0888
0888
0888
0888
0888
0490
03E0
0080
0080
01C0
0000
0000
ENDCHAR
STARTCHAR (for_rename)
ENCODING 9784
SWIDTH 1024 0
DWIDTH 16 0
BBX 16 16 0 -2
BITMAP
0000
03E0
0C18
1004
1004
2002
2002
2002
2002
1004
1004
0C18
2222
3E3E
0000
0000
ENDCHAR
STARTCHAR (for_rename)
ENCODING 9793
SWIDTH 1024 0
DWIDTH 16 0
BBX 16 16 0 -2
BITMAP
0000
0000
0000
0000
0000
00C0
0324
0414
0818
0810
0830
0850
0890
070C
0000
0000
ENDCHAR
STARTCHAR (for_rename)
ENCODING 9794
SWIDTH 1024 0
DWIDTH 16 0
BBX 16 16 0 -2
BITMAP
0000
00E0
0110
0210
0210
0210
0210
05E0
0420
0410
0410
0410
0620
09C0
0800
0800
ENDCHAR
STARTCHAR (for_rename)
ENCODING 9795
SWIDTH 1024 0
DWIDTH 16 0
BBX 16 16 0 -2
BITMAP
0000
0000
0000
0000
0000
0730
08C0
0080
0080
0100
0100
0100
0100
0200
0200
0200
ENDCHAR
STARTCHAR (for_rename)
ENCODING 9796
SWIDTH 1024 0
DWIDTH 16 0
BBX 16 16 0 -2
BITMAP
0000
00E0
0110
0080
0040
01E0
0220
0210
0410
0410
0410
0420
0420
03C0
0000
0000
ENDCHAR
STARTCHAR (for_rename)
ENCODING 9797
SWIDTH 1024 0
DWIDTH 16 0
BBX 16 16 0 -2
BITMAP
0000
0000
0000
0000
0000
01E0
0210
0200
01C0
0200
0400
0410
0420
03C0
0000
0000
ENDCHAR
STARTCHAR (for_rename)
ENCODING 9798
SWIDTH 1024 0
DWIDTH 16 0
BBX 16 16 0 -2
BITMAP
0000
0100
0270
0280
0100
0200
0200
0400
0400
0400
0400
0400
03E0
0010
0010
00E0
ENDCHAR
STARTCHAR (for_rename)
ENCODING 9799
SWIDTH 1024 0
DWIDTH 16 0
BBX 16 16 0 -2
BITMAP
0000
0000
0000
0000
0000
0E70
0188
0108
0108
0108
0210
0210
0410
0420
0020
0020
ENDCHAR
STARTCHAR (for_rename)
ENCODING 9800
SWIDTH 1024 0
DWIDTH 16 0
BBX 16 16 0 -2
BITMAP
0000
00E0
0110
0210
0210
0410
0410
07E0
0820
0820
0840
0840
0880
0700
0000
0000
ENDCHAR
STARTCHAR (for_rename)
ENCODING 9801
SWIDTH 1024 0
DWIDTH 16 0
BBX 16 16 0 -2
BITMAP
0000
0000
0000
0000
0000
0040
0040
0080
0080
0100
0100
0200
0240
0180
0000
0000
ENDCHAR
STARTCHAR (for_rename)
ENCODING 9802
SWIDTH 1024 0
DWIDTH 16 0
BBX 16 16 0 -2
BITMAP
0000
0000
0000
0000
0000
0218
0260
0280
0300
0280
0480
0488
0890
0860
0000
0000
ENDCHAR
STARTCHAR (for_rename)
ENCODING 9803
SWIDTH 1024 0
DWIDTH 16 0
BBX 16 16 0 -2
BITMAP
0000
01C0
0020
0020
0020
0040
0040
0080
00C0
0140
0140
0240
0440
0838
0000
0000
ENDCHAR
STARTCHAR (for_rename)
ENCODING 9804
SWIDTH 1024 0
DWIDTH 16 0
BBX 16 16 0 -2
BITMAP
0000
0000
0000
0000
0000
0108
0108
0208
0210
0210
0420
0420
0464
0B98
0800
1000
ENDCHAR
STARTCHAR (for_rename)
ENCODING 9805
SWIDTH 1024 0
DWIDTH 16 0
BBX 16 16 0 -2
BITMAP
0000
0000
0000
0000
0000
0808
0408
0408
0408
0410
0410
0420
04C0
0F00
0000
0000
ENDCHAR
STARTCHAR (for_rename)
ENCODING 9806
SWIDTH 1024 0
DWIDTH 16 0
BBX 16 16 0 -2
BITMAP
0000
0080
0100
01F0
0200
0200
0100
01E0
0200
0400
0400
0400
0380
0040
0040
0380
ENDCHAR
STARTCHAR (for_rename)
ENCODING 9807
SWIDTH 1024 0
DWIDTH 16 0
BBX 16 16 0 -2
BITMAP
0000
0000
0000
0000
0000
01E0
0210
0210
0410
0410
0410
0420
0420
03C0
0000
0000
ENDCHAR
STARTCHAR (for_rename)
ENCODING 9808
SWIDTH 1024 0
DWIDTH 16 0
BBX 16 16 0 -2
BITMAP
0000
0000
0000
0000
0000
07F8
0920
0120
0120
0240
0240
0440
0440
0838
0000
0000
ENDCHAR
STARTCHAR (for_rename)
ENCODING 9809
SWIDTH 1024 0
DWIDTH 16 0
BBX 16 16 0 -2
BITMAP
0000
0000
0000
0000
0000
01E0
0210
0210
0410
0410
0410
0420
0420
0BC0
0800
0800
ENDCHAR
STARTCHAR (for_rename)
ENCODING 9810
SWIDTH 1024 0
DWIDTH 16 0
BBX 16 16 0 -2
BITMAP
0000
0000
0000
0000
0000
01FC
0210
0210
0410
0410
0410
0420
0420
03C0
0000
0000
ENDCHAR
STARTCHAR (for_rename)
ENCODING 9811
SWIDTH 1024 0
DWIDTH 16 0
BBX 16 16 0 -2
BITMAP
0000
0000
0000
0000
0000
07F8
0880
0100
0100
0100
0200
0200
0240
0180
0000
0000
ENDCHAR
STARTCHAR (for_rename)
ENCODING 9812
SWIDTH 1024 0
DWIDTH 16 0
BBX 16 16 0 -2
BITMAP
0000
0000
0000
0000
0000
0410
0210
0210
0210
0410
0420
0420
0440
0380
0000
0000
ENDCHAR
STARTCHAR (for_rename)
ENCODING 9813
SWIDTH 1024 0
DWIDTH 16 0
BBX 16 16 0 -2
BITMAP
0000
0020
0020
0020
0020
01F0
0248
0444
0844
0884
0884
0888
0490
03E0
0100
0100
ENDCHAR
STARTCHAR (for_rename)
ENCODING 9814
SWIDTH 1024 0
DWIDTH 16 0
BBX 16 16 0 -2
BITMAP
0000
0000
0000
0000
0300
0490
0090
00A0
00A0
00C0
0080
0080
0180
0280
0288
0470
ENDCHAR
STARTCHAR (for_rename)
ENCODING 9815
SWIDTH 1024 0
DWIDTH 16 0
BBX 16 16 0 -2
BITMAP
0000
0040
0040
0040
0040
0C90
188C
0888
1088
1108
1110
1110
0960
0780
0200
0200
ENDCHAR
STARTCHAR (for_rename)
ENCODING 9816
SWIDTH 1024 0
DWIDTH 16 0
BBX 16 16 0 -2
BITMAP
0000
0000
0000
0000
0000
0208
0444
0844
0884
1084
1108
1108
1110
0EE0
0000
0000
ENDCHAR
STARTCHAR (for_rename)
ENCODING 10017
SWIDTH 1024 0
DWIDTH 16 0
BBX 16 16 0 -2
BITMAP
0000
0080
0080
0140
0140
0220
0220
0410
0410
0FF8
0808
1004
1004
380E
0000
0000
ENDCHAR
STARTCHAR (for_rename)
ENCODING 10018
SWIDTH 1024 0
DWIDTH 16 0
BBX 16 16 0 -2
BITMAP
0000
1FF0
0808
0800
0800
0800
0800
0FE0
0818
0804
0804
0804
0818
1FE0
0000
0000
ENDCHAR
STARTCHAR (for_rename)
ENCODING 10019
SWIDTH 1024 0
DWIDTH 16 0
BBX 16 16 0 -2
BITMAP
0000
1FE0
0818
0804
0804
0804
0818
0FE0
0818
0804
0804
0804
0818
1FE0
0000
0000
ENDCHAR
STARTCHAR (for_rename)
ENCODING 10020
SWIDTH 1024 0
DWIDTH 16 0
BBX 16 16 0 -2
BITMAP
0000
1FF8
0804
0800
0800
0800
0800
0800
0800
0800
0800
0800
0800
1C00
0000
0000
ENDCHAR
STARTCHAR (for_rename)
ENCODING 10021
SWIDTH 1024 0
DWIDTH 16 0
BBX 16 16 0 -2
BITMAP
0000
07FC
0208
0208
0208
0208
0408
0408
0408
0408
0408
0808
0808
3FFC
2004
0000
ENDCHAR
STARTCHAR (for_rename)
ENCODING 10022
SWIDTH 1024 0
DWIDTH 16 0
BBX 16 16 0 -2
BITMAP
0000
1FF8
0808
0808
0800
0800
0820
0FE0
0820
0800
0800
0808
0808
1FF8
0000
0000
ENDCHAR
STARTCHAR (for_rename)
ENCODING 10023
SWIDTH 1024 0
DWIDTH 16 0
BBX 16 16 0 -2
BITMAP
0660
0000
1FF8
0808
0808
0800
0820
0FE0
0820
0800
0800
0808
0808
1FF8
0000
0000
ENDCHAR
STARTCHAR (for_rename)
ENCODING 10024
SWIDTH 1024 0
DWIDTH 16 0
BBX 16 16 0 -2
BITMAP
0000
31C6
0888
0888
0888
0888
0490
03E0
0490
0490
0888
0888
1084
39CE
0000
0000
ENDCHAR
STARTCHAR (for_rename)
ENCODING 10025
SWIDTH 1024 0
DWIDTH 16 0
BBX 16 16 0 -2
BITMAP
0000
0FE0
1018
0004
0004
0004
0018
03E0
0018
0004
0004
0004
1018
0FE0
0000
0000
ENDCHAR
STARTCHAR (for_rename)
ENCODING 10026
SWIDTH 1024 0
DWIDTH 16 0
BBX 16 16 0 -2
BITMAP
0000
380E
1004
100C
1014
1024
1044
1084
1104
1204
1404
1804
1004
380E
0000
0000
ENDCHAR
STARTCHAR (for_rename)
ENCODING 10027
SWIDTH 1024 0
DWIDTH 16 0
BBX 16 16 0 -2
BITMAP
0220
39CE
1004
100C
1014
1024
1044
1084
1104
1204
1404
1804
1004
380E
0000
0000
ENDCHAR
STARTCHAR (for_rename)
ENCODING 10028
SWIDTH 1024 0
DWIDTH 16 0
BBX 16 16 0 -2
BITMAP
0000
1C18
0824
0840
0840
0880
0880
0F00
0880
0840
0840
0820
0810
1C0C
0000
0000
ENDCHAR
STARTCHAR (for_rename)
ENCODING 10029
SWIDTH 1024 0
DWIDTH 16 0
BBX 16 16 0 -2
BITMAP
0000
07FC
0108
0108
0108
0108
0208
0208
0208
0208
0408
0408
2408
181C
0000
0000
ENDCHAR
STARTCHAR (for_rename)
ENCODING 10030
SWIDTH 1024 0
DWIDTH 16 0
BBX 16 16 0 -2
BITMAP
0000
7007
280A
280A
2412
2412
2412
2222
2222
2222
2142
2142
2082
7087
0000
0000
ENDCHAR
STARTCHAR (for_rename)
ENCODING 10031
SWIDTH 1024 0
DWIDTH 16 0
BBX 16 16 0 -2
BITMAP
0000
1C1C
0808
0808
0808
0808
0808
0FF8
0808
0808
0808
0808
0808
1C1C
0000
0000
ENDCHAR
STARTCHAR (for_rename)
ENCODING 10032
SWIDTH 1024 0
DWIDTH 16 0
BBX 16 16 0 -2
BITMAP
0000
03E0
0C18
1004
1004
2002
2002
2002
2002
2002
1004
1004
0C18
03E0
0000
0000
ENDCHAR
STARTCHAR (for_rename)
ENCODING 10033
SWIDTH 1024 0
DWIDTH 16 0
BBX 16 16 0 -2
BITMAP
0000
1FFC
0808
0808
0808
0808
0808
0808
0808
0808
0808
0808
0808
1C1C
0000
0000
ENDCHAR
STARTCHAR (for_rename)
ENCODING 10034
SWIDTH 1024 0
DWIDTH 16 0
BBX 16 16 0 -2
BITMAP
0000
1FE0
0818
0804
0804
0804
0818
0FE0
0800
0800
0800
0800
0800
1C00
0000
0000
ENDCHAR
STARTCHAR (for_rename)
ENCODING 10035
SWIDTH 1024 0
DWIDTH 16 0
BBX 16 16 0 -2
BITMAP
0000
01F0
0608
0804
0804
1000
1000
1000
1000
1000
0804
0804
0608
01F0
0000
0000
ENDCHAR
STARTCHAR (for_rename)
ENCODING 10036
SWIDTH 1024 0
DWIDTH 16 0
BBX 16 16 0 -2
BITMAP
0000
3FFE
2082
2082
0080
0080
0080
0080
0080
0080
0080
0080
0080
01C0
0000
0000
ENDCHAR
STARTCHAR (for_rename)
ENCODING 10037
SWIDTH 1024 0
DWIDTH 16 0
BBX 16 16 0 -2
BITMAP
0000
380E
1004
1004
0808
0808
0410
0410
0220
0220
0140
0880
0900
0600
0000
0000
ENDCHAR
STARTCHAR (for_rename)
ENCODING 10038
SWIDTH 1024 0
DWIDTH 16 0
BBX 16 16 0 -2
BITMAP
0000
01C0
0080
0FF8
1084
2082
2082
2082
2082
2082
1084
0FF8
0080
01C0
0000
0000
ENDCHAR
STARTCHAR (for_rename)
ENCODING 10039
SWIDTH 1024 0
DWIDTH 16 0
BBX 16 16 0 -2
BITMAP
0000
380E
0808
0410
0220
0220
0140
0080
0140
0220
0220
0410
0808
380E
0000
0000
ENDCHAR
STARTCHAR (for_rename)
ENCODING 10040
SWIDTH 1024 0
DWIDTH 16 0
BBX 16 16 0 -2
BITMAP
0000
1C1C
0808
0808
0808
0808
0808
0808
0808
0808
0808
0808
0808
1FFC
0002
0000
ENDCHAR
STARTCHAR (for_rename)
ENCODING 10041
SWIDTH 1024 0
DWIDTH 16 0
BBX 16 16 0 -2
BITMAP
0000
381C
1008
1008
1008
1008
1008
1008
0C18
03E8
0008
0008
0008
001C
0000
0000
ENDCHAR
STARTCHAR (for_rename)
ENCODING 10042
SWIDTH 1024 0
DWIDTH 16 0
BBX 16 16 0 -2
BITMAP
0000
39CE
1084
1084
1084
1084
1084
1084
1084
1084
1084
1084
1084
3FFE
0000
0000
ENDCHAR
STARTCHAR (for_rename)
ENCODING 10043
SWIDTH 1024 0
DWIDTH 16 0
BBX 16 16 0 -2
BITMAP
0000
39CE
1084
1084
1084
1084
1084
1084
1084
1084
1084
1084
1084
3FFE
0003
0000
ENDCHAR
STARTCHAR (for_rename)
ENCODING 10044
SWIDTH 1024 0
DWIDTH 16 0
BBX 16 16 0 -2
BITMAP
0000
1F80
1100
1100
0100
0100
01F0
010C
0102
0102
0102
0102
010C
03F0
0000
0000
ENDCHAR
STARTCHAR (for_rename)
ENCODING 10045
SWIDTH 1024 0
DWIDTH 16 0
BBX 16 16 0 -2
BITMAP
0000
380E
1004
1004
1004
1004
1F04
10C4
1024
1024
1024
1024
10C4
3F0E
0000
0000
ENDCHAR
STARTCHAR (for_rename)
ENCODING 10046
SWIDTH 1024 0
DWIDTH 16 0
BBX 16 16 0 -2
BITMAP
0000
1C00
0800
0800
0800
0800
0FE0
0818
0804
0804
0804
0804
0818
1FE0
0000
0000
ENDCHAR
STARTCHAR (for_rename)
ENCODING 10047
SWIDTH 1024 0
DWIDTH 16 0
BBX 16 16 0 -2
BITMAP
0000
07C0
0830
1008
0008
0004
01E4
061C
0004
0004
0008
1008
0830
07C0
0000
0000
ENDCHAR
STARTCHAR (for_rename)
ENCODING 10048
SWIDTH 1024 0
DWIDTH 16 0
BBX 16 16 0 -2
BITMAP
0000
38F0
1108
1108
1204
1204
1204
1E04
1204
1204
1204
1108
1108
38F0
0000
0000
ENDCHAR
STARTCHAR (for_rename)
ENCODING 10049
SWIDTH 1024 0
DWIDTH 16 0
BBX 16 16 0 -2
BITMAP
0000
03FC
0C08
1008
1008
1008
0C08
03F8
0108
0108
0208
0208
0408
181C
0000
0000
ENDCHAR
STARTCHAR (for_rename)
ENCODING 10065
SWIDTH 1024 0
DWIDTH 16 0
BBX 16 16 0 -2
BITMAP
0000
0000
0000
0000
0000
03C0
0420
0810
01F0
0610
0810
0810
0830
07D8
0000
0000
ENDCHAR
STARTCHAR (for_rename)
ENCODING 10066
SWIDTH 1024 0
DWIDTH 16 0
BBX 16 16 0 -2
BITMAP
0000
0008
01F0
0200
0400
05E0
0610
0408
0408
0408
0408
0408
0210
01E0
0000
0000
ENDCHAR
STARTCHAR (for_rename)
ENCODING 10067
SWIDTH 1024 0
DWIDTH 16 0
BBX 16 16 0 -2
BITMAP
0000
0000
0000
0000
0000
0FE0
0410
0408
0408
07F0
0408
0408
0410
0FE0
0000
0000
ENDCHAR
STARTCHAR (for_rename)
ENCODING 10068
SWIDTH 1024 0
DWIDTH 16 0
BBX 16 16 0 -2
BITMAP
0000
0000
0000
0000
0000
0FF8
0408
0408
0400
0400
0400
0400
0400
0E00
0000
0000
ENDCHAR
STARTCHAR (for_rename)
ENCODING 10069
SWIDTH 1024 0
DWIDTH 16 0
BBX 16 16 0 -2
BITMAP
0000
0000
0000
0000
0000
0FF8
0210
0210
0410
0410
0410
0810
0810
0FF0
1008
0000
ENDCHAR
STARTCHAR (for_rename)
ENCODING 10070
SWIDTH 1024 0
DWIDTH 16 0
BBX 16 16 0 -2
BITMAP
0000
0000
0000
0000
0000
03E0
0410
0808
0808
0FF0
0800
0800
0410
03E0
0000
0000
ENDCHAR
STARTCHAR (for_rename)
ENCODING 10071
SWIDTH 1024 0
DWIDTH 16 0
BBX 16 16 0 -2
BITMAP
0000
0000
0000
0220
0000
03E0
0410
0808
0808
0FF8
0800
0800
0410
03E0
0000
0000
ENDCHAR
STARTCHAR (for_rename)
ENCODING 10072
SWIDTH 1024 0
DWIDTH 16 0
BBX 16 16 0 -2
BITMAP
0000
0000
0000
0000
0000
19CC
2492
0490
02A0
01C0
02A0
0490
0888
39CE
0000
0000
ENDCHAR
STARTCHAR (for_rename)
ENCODING 10073
SWIDTH 1024 0
DWIDTH 16 0
BBX 16 16 0 -2
BITMAP
0000
0000
0000
0000
0000
07E0
0810
0008
0010
03E0
0010
0008
0810
07E0
0000
0000
ENDCHAR
STARTCHAR (for_rename)
ENCODING 10074
SWIDTH 1024 0
DWIDTH 16 0
BBX 16 16 0 -2
BITMAP
0000
0000
0000
0000
0000
0E38
0410
0430
0450
0490
0510
0610
0410
0E38
0000
0000
ENDCHAR
STARTCHAR (for_rename)
ENCODING 10075
SWIDTH 1024 0
DWIDTH 16 0
BBX 16 16 0 -2
BITMAP
0000
0000
0220
01C0
0000
0E38
0410
0430
0450
0490
0510
0610
0410
0E38
0000
0000
ENDCHAR
STARTCHAR (for_rename)
ENCODING 10076
SWIDTH 1024 0
DWIDTH 16 0
BBX 16 16 0 -2
BITMAP
0000
0000
0000
0000
0000
0E30
0448
0440
0480
0700
0480
0440
0420
0E18
0000
0000
ENDCHAR
STARTCHAR (for_rename)
ENCODING 10077
SWIDTH 1024 0
DWIDTH 16 0
BBX 16 16 0 -2
BITMAP
0000
0000
0000
0000
0000
07F8
0210
0210
0210
0210
0210
0410
2410
1838
0000
0000
ENDCHAR
STARTCHAR (for_rename)
ENCODING 10078
SWIDTH 1024 0
DWIDTH 16 0
BBX 16 16 0 -2
BITMAP
0000
0000
0000
0000
0000
1C1C
0A28
0A28
0A28
0948
0948
0948
0888
1C9C
0000
0000
ENDCHAR
STARTCHAR (for_rename)
ENCODING 10079
SWIDTH 1024 0
DWIDTH 16 0
BBX 16 16 0 -2
BITMAP
0000
0000
0000
0000
0000
0E38
0410
0410
0410
07F0
0410
0410
0410
0E38
0000
0000
ENDCHAR
STARTCHAR (for_rename)
ENCODING 10080
SWIDTH 1024 0
DWIDTH 16 0
BBX 16 16 0 -2
BITMAP
0000
0000
0000
0000
0000
03E0
0410
0808
0808
0808
0808
0808
0410
03E0
0000
0000
ENDCHAR
STARTCHAR (for_rename)
ENCODING 10081
SWIDTH 1024 0
DWIDTH 16 0
BBX 16 16 0 -2
BITMAP
0000
0000
0000
0000
0000
0FF8
0410
0410
0410
0410
0410
0410
0410
0E38
0000
0000
ENDCHAR
STARTCHAR (for_rename)
ENCODING 10082
SWIDTH 1024 0
DWIDTH 16 0
BBX 16 16 0 -2
BITMAP
0000
0000
0000
0000
0000
0DE0
0610
0408
0408
0408
0408
0610
05E0
0400
0400
0E00
ENDCHAR
STARTCHAR (for_rename)
ENCODING 10083
SWIDTH 1024 0
DWIDTH 16 0
BBX 16 16 0 -2
BITMAP
0000
0000
0000
0000
0000
03E0
0410
0808
0800
0800
0800
0808
0410
03E0
0000
0000
ENDCHAR
STARTCHAR (for_rename)
ENCODING 10084
SWIDTH 1024 0
DWIDTH 16 0
BBX 16 16 0 -2
BITMAP
0000
0000
0000
0000
0000
1FFC
1084
0080
0080
0080
0080
0080
0080
01C0
0000
0000
ENDCHAR
STARTCHAR (for_rename)
ENCODING 10085
SWIDTH 1024 0
DWIDTH 16 0
BBX 16 16 0 -2
BITMAP
0000
0000
0000
0000
0000
1C1C
0808
0410
0410
0220
0220
0140
0140
0080
0900
0600
ENDCHAR
STARTCHAR (for_rename)
ENCODING 10086
SWIDTH 1024 0
DWIDTH 16 0
BBX 16 16 0 -2
BITMAP
0000
0000
0000
0000
0000
01C0
0080
07F0
0888
0888
0888
07F0
0080
01C0
0000
0000
ENDCHAR
STARTCHAR (for_rename)
ENCODING 10087
SWIDTH 1024 0
DWIDTH 16 0
BBX 16 16 0 -2
BITMAP
0000
0000
0000
0000
0000
1C1C
0410
0220
0140
0080
0140
0220
0410
1C1C
0000
0000
ENDCHAR
STARTCHAR (for_rename)
ENCODING 10088
SWIDTH 1024 0
DWIDTH 16 0
BBX 16 16 0 -2
BITMAP
0000
0000
0000
0000
0000
0E38
0410
0410
0410
0410
0410
0410
0410
0FF0
0008
0000
ENDCHAR
STARTCHAR (for_rename)
ENCODING 10089
SWIDTH 1024 0
DWIDTH 16 0
BBX 16 16 0 -2
BITMAP
0000
0000
0000
0000
0000
1C38
0810
0810
0810
0810
0430
03D0
0010
0038
0000
0000
ENDCHAR
STARTCHAR (for_rename)
ENCODING 10090
SWIDTH 1024 0
DWIDTH 16 0
BBX 16 16 0 -2
BITMAP
0000
0000
0000
0000
0000
39CE
1084
1084
1084
1084
1084
1084
1084
3FFE
0000
0000
ENDCHAR
STARTCHAR (for_rename)
ENCODING 10091
SWIDTH 1024 0
DWIDTH 16 0
BBX 16 16 0 -2
BITMAP
0000
0000
0000
0000
0000
39CE
1084
1084
1084
1084
1084
1084
1084
3FFC
0002
0000
ENDCHAR
STARTCHAR (for_rename)
ENCODING 10092
SWIDTH 1024 0
DWIDTH 16 0
BBX 16 16 0 -2
BITMAP
0000
0000
0000
0000
0000
1F80
1200
0200
03E0
0210
0208
0208
0210
07E0
0000
0000
ENDCHAR
STARTCHAR (for_rename)
ENCODING 10093
SWIDTH 1024 0
DWIDTH 16 0
BBX 16 16 0 -2
BITMAP
0000
0000
0000
0000
0000
1C1C
0808
0808
0F88
0848
0828
0828
0848
1F9C
0000
0000
ENDCHAR
STARTCHAR (for_rename)
ENCODING 10094
SWIDTH 1024 0
DWIDTH 16 0
BBX 16 16 0 -2
BITMAP
0000
0000
0000
0000
0000
0E00
0400
0400
07E0
0410
0408
0408
0410
0FE0
0000
0000
ENDCHAR
STARTCHAR (for_rename)
ENCODING 10095
SWIDTH 1024 0
DWIDTH 16 0
BBX 16 16 0 -2
BITMAP
0000
0000
0000
0000
0000
03E0
0410
0008
00C8
0338
0008
0008
0410
03E0
0000
0000
ENDCHAR
STARTCHAR (for_rename)
ENCODING 10096
SWIDTH 1024 0
DWIDTH 16 0
BBX 16 16 0 -2
BITMAP
0000
0000
0000
0000
0000
1C70
0888
0904
0904
0F04
0904
0904
0888
1C70
0000
0000
ENDCHAR
STARTCHAR (for_rename)
ENCODING 10097
SWIDTH 1024 0
DWIDTH 16 0
BBX 16 16 0 -2
BITMAP
0000
0000
0000
0000
0000
03F8
0410
0810
0810
0410
03F0
0110
0210
0C38
0000
0000
ENDCHAR
STARTCHAR (for_rename)
ENCODING 10529
SWIDTH 512 0
DWIDTH 8 0
BBX 8 16 0 -2
BITMAP
00
10
10
10
10
10
10
10
10
10
10
00
00
18
18
00
ENDCHAR
STARTCHAR (for_rename)
ENCODING 10530
SWIDTH 512 0
DWIDTH 8 0
BBX 8 16 0 -2
BITMAP
00
6C
6C
24
48
00
00
00
00
00
00
00
00
00
00
00
ENDCHAR
STARTCHAR (for_rename)
ENCODING 10531
SWIDTH 512 0
DWIDTH 8 0
BBX 8 16 0 -2
BITMAP
00
24
24
24
26
3C
64
24
24
26
3C
64
24
24
24
00
ENDCHAR
STARTCHAR (for_rename)
ENCODING 10532
SWIDTH 512 0
DWIDTH 8 0
BBX 8 16 0 -2
BITMAP
00
08
1C
2A
49
48
28
1C
0A
09
09
49
2A
1C
08
00
ENDCHAR
STARTCHAR (for_rename)
ENCODING 10533
SWIDTH 512 0
DWIDTH 8 0
BBX 8 16 0 -2
BITMAP
00
22
54
54
24
08
08
08
10
10
10
24
2A
2A
44
00
ENDCHAR
STARTCHAR (for_rename)
ENCODING 10534
SWIDTH 512 0
DWIDTH 8 0
BBX 8 16 0 -2
BITMAP
00
38
44
44
44
44
58
20
20
52
52
4A
4A
44
3A
00
ENDCHAR
STARTCHAR (for_rename)
ENCODING 10535
SWIDTH 512 0
DWIDTH 8 0
BBX 8 16 0 -2
BITMAP
00
60
60
20
40
00
00
00
00
00
00
00
00
00
00
00
ENDCHAR
STARTCHAR (for_rename)
ENCODING 10536
SWIDTH 512 0
DWIDTH 8 0
BBX 8 16 0 -2
BITMAP
04
08
08
10
10
20
20
20
20
20
20
10
10
08
08
04
ENDCHAR
STARTCHAR (for_rename)
ENCODING 10537
SWIDTH 512 0
DWIDTH 8 0
BBX 8 16 0 -2
BITMAP
20
10
10
08
08
04
04
04
04
04
04
08
08
10
10
20
ENDCHAR
STARTCHAR (for_rename)
ENCODING 10538
SWIDTH 512 0
DWIDTH 8 0
BBX 8 16 0 -2
BITMAP
00
00
08
08
49
49
2A
1C
08
1C
2A
49
49
08
08
00
ENDCHAR
STARTCHAR (for_rename)
ENCODING 10539
SWIDTH 512 0
DWIDTH 8 0
BBX 8 16 0 -2
BITMAP
00
00
00
08
08
08
08
7F
08
08
08
08
08
00
00
00
ENDCHAR
STARTCHAR (for_rename)
ENCODING 10540
SWIDTH 512 0
DWIDTH 8 0
BBX 8 16 0 -2
BITMAP
00
00
00
00
00
00
00
00
00
00
00
00
60
60
20
40
ENDCHAR
STARTCHAR (for_rename)
ENCODING 10541
SWIDTH 512 0
DWIDTH 8 0
BBX 8 16 0 -2
BITMAP
00
00
00
00
00
00
00
7E
00
00
00
00
00
00
00
00
ENDCHAR
STARTCHAR (for_rename)
ENCODING 10542
SWIDTH 512 0
DWIDTH 8 0
BBX 8 16 0 -2
BITMAP
00
00
00
00
00
00
00
00
00
00
00
00
00
60
60
00
ENDCHAR
STARTCHAR (for_rename)
ENCODING 10543
SWIDTH 512 0
DWIDTH 8 0
BBX 8 16 0 -2
BITMAP
00
02
04
04
04
08
08
08
10
10
10
20
20
20
40
00
ENDCHAR
STARTCHAR (for_rename)
ENCODING 10544
SWIDTH 512 0
DWIDTH 8 0
BBX 8 16 0 -2
BITMAP
00
3C
42
42
42
42
42
42
42
42
42
42
42
42
3C
00
ENDCHAR
STARTCHAR (for_rename)
ENCODING 10545
SWIDTH 512 0
DWIDTH 8 0
BBX 8 16 0 -2
BITMAP
00
08
18
28
08
08
08
08
08
08
08
08
08
08
1C
00
ENDCHAR
STARTCHAR (for_rename)
ENCODING 10546
SWIDTH 512 0
DWIDTH 8 0
BBX 8 16 0 -2
BITMAP
00
18
24
42
42
42
02
04
08
10
20
20
40
40
7E
00
ENDCHAR
STARTCHAR (for_rename)
ENCODING 10547
SWIDTH 512 0
DWIDTH 8 0
BBX 8 16 0 -2
BITMAP
00
18
24
42
42
02
04
18
04
02
42
42
42
24
18
00
ENDCHAR
STARTCHAR (for_rename)
ENCODING 10548
SWIDTH 512 0
DWIDTH 8 0
BBX 8 16 0 -2
BITMAP
00
04
0C
0C
14
14
14
24
24
44
44
7E
04
04
04
00
ENDCHAR
STARTCHAR (for_rename)
ENCODING 10549
SWIDTH 512 0
DWIDTH 8 0
BBX 8 16 0 -2
BITMAP
00
7E
40
40
40
58
64
42
02
02
02
42
42
24
18
00
ENDCHAR
STARTCHAR (for_rename)
ENCODING 10550
SWIDTH 512 0
DWIDTH 8 0
BBX 8 16 0 -2
BITMAP
00
18
24
42
42
40
58
64
42
42
42
42
42
24
18
00
ENDCHAR
STARTCHAR (for_rename)
ENCODING 10551
SWIDTH 512 0
DWIDTH 8 0
BBX 8 16 0 -2
BITMAP
00
7E
42
42
42
04
04
08
08
08
08
08
08
08
08
00
ENDCHAR
STARTCHAR (for_rename)
ENCODING 10552
SWIDTH 512 0
DWIDTH 8 0
BBX 8 16 0 -2
BITMAP
00
18
24
42
42
42
24
18
24
42
42
42
42
24
18
00
ENDCHAR
STARTCHAR (for_rename)
ENCODING 10553
SWIDTH 512 0
DWIDTH 8 0
BBX 8 16 0 -2
BITMAP
00
18
24
42
42
42
42
42
26
1A
02
42
42
24
18
00
ENDCHAR
STARTCHAR (for_rename)
ENCODING 10554
SWIDTH 512 0
DWIDTH 8 0
BBX 8 16 0 -2
BITMAP
00
00
00
00
18
18
00
00
00
00
00
00
18
18
00
00
ENDCHAR
STARTCHAR (for_rename)
ENCODING 10555
SWIDTH 512 0
DWIDTH 8 0
BBX 8 16 0 -2
BITMAP
00
00
00
00
18
18
00
00
00
00
00
00
18
18
08
10
ENDCHAR
STARTCHAR (for_rename)
ENCODING 10556
SWIDTH 512 0
DWIDTH 8 0
BBX 8 16 0 -2
BITMAP
00
00
02
04
08
10
20
40
40
20
10
08
04
02
00
00
ENDCHAR
STARTCHAR (for_rename)
ENCODING 10557
SWIDTH 512 0
DWIDTH 8 0
BBX 8 16 0 -2
BITMAP
00
00
00
00
00
00
7E
00
00
7E
00
00
00
00
00
00
ENDCHAR
STARTCHAR (for_rename)
ENCODING 10558
SWIDTH 512 0
DWIDTH 8 0
BBX 8 16 0 -2
BITMAP
00
00
40
20
10
08
04
02
02
04
08
10
20
40
00
00
ENDCHAR
STARTCHAR (for_rename)
ENCODING 10559
SWIDTH 512 0
DWIDTH 8 0
BBX 8 16 0 -2
BITMAP
00
18
24
42
42
42
04
08
10
10
10
00
00
18
18
00
ENDCHAR
STARTCHAR (for_rename)
ENCODING 10560
SWIDTH 512 0
DWIDTH 8 0
BBX 8 16 0 -2
BITMAP
00
1C
22
41
49
55
55
55
55
55
55
4A
40
21
1E
00
ENDCHAR
STARTCHAR (for_rename)
ENCODING 10561
SWIDTH 512 0
DWIDTH 8 0
BBX 8 16 0 -2
BITMAP
00
18
18
24
24
24
24
24
3C
42
42
42
42
42
00
00
ENDCHAR
STARTCHAR (for_rename)
ENCODING 10562
SWIDTH 512 0
DWIDTH 8 0
BBX 8 16 0 -2
BITMAP
00
78
44
42
42
42
44
78
44
42
42
42
44
78
00
00
ENDCHAR
STARTCHAR (for_rename)
ENCODING 10563
SWIDTH 512 0
DWIDTH 8 0
BBX 8 16 0 -2
BITMAP
00
18
24
42
42
40
40
40
40
42
42
42
24
18
00
00
ENDCHAR
STARTCHAR (for_rename)
ENCODING 10564
SWIDTH 512 0
DWIDTH 8 0
BBX 8 16 0 -2
BITMAP
00
78
44
42
42
42
42
42
42
42
42
42
44
78
00
00
ENDCHAR
STARTCHAR (for_rename)
ENCODING 10565
SWIDTH 512 0
DWIDTH 8 0
BBX 8 16 0 -2
BITMAP
00
7E
40
40
40
40
40
7C
40
40
40
40
40
7E
00
00
ENDCHAR
STARTCHAR (for_rename)
ENCODING 10566
SWIDTH 512 0
DWIDTH 8 0
BBX 8 16 0 -2
BITMAP
00
7E
40
40
40
40
40
7C
40
40
40
40
40
40
00
00
ENDCHAR
STARTCHAR (for_rename)
ENCODING 10567
SWIDTH 512 0
DWIDTH 8 0
BBX 8 16 0 -2
BITMAP
00
18
24
42
40
40
40
4E
42
42
42
42
26
1A
00
00
ENDCHAR
STARTCHAR (for_rename)
ENCODING 10568
SWIDTH 512 0
DWIDTH 8 0
BBX 8 16 0 -2
BITMAP
00
42
42
42
42
42
42
7E
42
42
42
42
42
42
00
00
ENDCHAR
STARTCHAR (for_rename)
ENCODING 10569
SWIDTH 512 0
DWIDTH 8 0
BBX 8 16 0 -2
BITMAP
00
1C
08
08
08
08
08
08
08
08
08
08
08
1C
00
00
ENDCHAR
STARTCHAR (for_rename)
ENCODING 10570
SWIDTH 512 0
DWIDTH 8 0
BBX 8 16 0 -2
BITMAP
00
02
02
02
02
02
02
02
02
02
42
42
24
18
00
00
ENDCHAR
STARTCHAR (for_rename)
ENCODING 10571
SWIDTH 512 0
DWIDTH 8 0
BBX 8 16 0 -2
BITMAP
00
42
44
44
48
48
50
60
50
48
48
44
44
42
00
00
ENDCHAR
STARTCHAR (for_rename)
ENCODING 10572
SWIDTH 512 0
DWIDTH 8 0
BBX 8 16 0 -2
BITMAP
00
40
40
40
40
40
40
40
40
40
40
40
40
7E
00
00
ENDCHAR
STARTCHAR (for_rename)
ENCODING 10573
SWIDTH 512 0
DWIDTH 8 0
BBX 8 16 0 -2
BITMAP
00
41
63
63
55
55
49
49
41
41
41
41
41
41
00
00
ENDCHAR
STARTCHAR (for_rename)
ENCODING 10574
SWIDTH 512 0
DWIDTH 8 0
BBX 8 16 0 -2
BITMAP
00
42
62
62
52
52
52
52
4A
4A
4A
46
46
42
00
00
ENDCHAR
STARTCHAR (for_rename)
ENCODING 10575
SWIDTH 512 0
DWIDTH 8 0
BBX 8 16 0 -2
BITMAP
00
18
24
42
42
42
42
42
42
42
42
42
24
18
00
00
ENDCHAR
STARTCHAR (for_rename)
ENCODING 10576
SWIDTH 512 0
DWIDTH 8 0
BBX 8 16 0 -2
BITMAP
00
78
44
42
42
42
44
78
40
40
40
40
40
40
00
00
ENDCHAR
STARTCHAR (for_rename)
ENCODING 10577
SWIDTH 512 0
DWIDTH 8 0
BBX 8 16 0 -2
BITMAP
00
18
24
42
42
42
42
42
42
42
52
4A
24
1A
00
00
ENDCHAR
STARTCHAR (for_rename)
ENCODING 10578
SWIDTH 512 0
DWIDTH 8 0
BBX 8 16 0 -2
BITMAP
00
78
44
42
42
42
44
78
50
50
48
48
44
42
00
00
ENDCHAR
STARTCHAR (for_rename)
ENCODING 10579
SWIDTH 512 0
DWIDTH 8 0
BBX 8 16 0 -2
BITMAP
00
18
24
42
40
40
20
18
04
02
42
42
24
18
00
00
ENDCHAR
STARTCHAR (for_rename)
ENCODING 10580
SWIDTH 512 0
DWIDTH 8 0
BBX 8 16 0 -2
BITMAP
00
7F
08
08
08
08
08
08
08
08
08
08
08
08
00
00
ENDCHAR
STARTCHAR (for_rename)
ENCODING 10581
SWIDTH 512 0
DWIDTH 8 0
BBX 8 16 0 -2
BITMAP
00
42
42
42
42
42
42
42
42
42
42
42
24
18
00
00
ENDCHAR
STARTCHAR (for_rename)
ENCODING 10582
SWIDTH 512 0
DWIDTH 8 0
BBX 8 16 0 -2
BITMAP
00
41
41
41
41
22
22
22
22
14
14
14
08
08
00
00
ENDCHAR
STARTCHAR (for_rename)
ENCODING 10583
SWIDTH 512 0
DWIDTH 8 0
BBX 8 16 0 -2
BITMAP
00
41
41
41
41
49
49
49
55
55
55
55
22
22
22
00
ENDCHAR
STARTCHAR (for_rename)
ENCODING 10584
SWIDTH 512 0
DWIDTH 8 0
BBX 8 16 0 -2
BITMAP
00
42
42
42
24
24
18
18
24
24
24
42
42
42
00
00
ENDCHAR
STARTCHAR (for_rename)
ENCODING 10585
SWIDTH 512 0
DWIDTH 8 0
BBX 8 16 0 -2
BITMAP
00
41
41
41
22
22
14
14
08
08
08
08
08
08
00
00
ENDCHAR
STARTCHAR (for_rename)
ENCODING 10586
SWIDTH 512 0
DWIDTH 8 0
BBX 8 16 0 -2
BITMAP
00
7E
02
04
04
08
08
10
10
20
20
40
40
7E
00
00
ENDCHAR
STARTCHAR (for_rename)
ENCODING 10587
SWIDTH 512 0
DWIDTH 8 0
BBX 8 16 0 -2
BITMAP
0E
08
08
08
08
08
08
08
08
08
08
08
08
08
08
0E
ENDCHAR
STARTCHAR (for_rename)
ENCODING 10588
SWIDTH 512 0
DWIDTH 8 0
BBX 8 16 0 -2
BITMAP
00
41
41
22
22
14
14
7F
08
08
7F
08
08
08
08
00
ENDCHAR
STARTCHAR (for_rename)
ENCODING 10589
SWIDTH 512 0
DWIDTH 8 0
BBX 8 16 0 -2
BITMAP
38
08
08
08
08
08
08
08
08
08
08
08
08
08
08
38
ENDCHAR
STARTCHAR (for_rename)
ENCODING 10590
SWIDTH 512 0
DWIDTH 8 0
BBX 8 16 0 -2
BITMAP
18
24
42
00
00
00
00
00
00
00
00
00
00
00
00
00
ENDCHAR
STARTCHAR (for_rename)
ENCODING 10591
SWIDTH 512 0
DWIDTH 8 0
BBX 8 16 0 -2
BITMAP
00
00
00
00
00
00
00
00
00
00
00
00
00
7E
00
00
ENDCHAR
STARTCHAR (for_rename)
ENCODING 10592
SWIDTH 512 0
DWIDTH 8 0
BBX 8 16 0 -2
BITMAP
30
0C
00
00
00
00
00
00
00
00
00
00
00
00
00
00
ENDCHAR
STARTCHAR (for_rename)
ENCODING 10593
SWIDTH 512 0
DWIDTH 8 0
BBX 8 16 0 -2
BITMAP
00
00
00
00
00
18
24
42
1A
26
42
42
26
1A
00
00
ENDCHAR
STARTCHAR (for_rename)
ENCODING 10594
SWIDTH 512 0
DWIDTH 8 0
BBX 8 16 0 -2
BITMAP
00
40
40
40
40
58
64
42
42
42
42
42
64
58
00
00
ENDCHAR
STARTCHAR (for_rename)
ENCODING 10595
SWIDTH 512 0
DWIDTH 8 0
BBX 8 16 0 -2
BITMAP
00
00
00
00
00
18
24
42
40
40
40
42
24
18
00
00
ENDCHAR
STARTCHAR (for_rename)
ENCODING 10596
SWIDTH 512 0
DWIDTH 8 0
BBX 8 16 0 -2
BITMAP
00
02
02
02
02
1A
26
42
42
42
42
42
26
1A
00
00
ENDCHAR
STARTCHAR (for_rename)
ENCODING 10597
SWIDTH 512 0
DWIDTH 8 0
BBX 8 16 0 -2
BITMAP
00
00
00
00
00
18
24
42
42
7E
40
40
22
1C
00
00
ENDCHAR
STARTCHAR (for_rename)
ENCODING 10598
SWIDTH 512 0
DWIDTH 8 0
BBX 8 16 0 -2
BITMAP
00
08
14
10
10
7C
10
10
10
10
10
10
10
10
00
00
ENDCHAR
STARTCHAR (for_rename)
ENCODING 10599
SWIDTH 512 0
DWIDTH 8 0
BBX 8 16 0 -2
BITMAP
00
00
00
00
00
1A
26
42
42
42
42
26
1A
02
44
38
ENDCHAR
STARTCHAR (for_rename)
ENCODING 10600
SWIDTH 512 0
DWIDTH 8 0
BBX 8 16 0 -2
BITMAP
00
40
40
40
40
58
64
42
42
42
42
42
42
42
00
00
ENDCHAR
STARTCHAR (for_rename)
ENCODING 10601
SWIDTH 512 0
DWIDTH 8 0
BBX 8 16 0 -2
BITMAP
00
00
10
10
00
00
10
10
10
10
10
10
10
10
00
00
ENDCHAR
STARTCHAR (for_rename)
ENCODING 10602
SWIDTH 512 0
DWIDTH 8 0
BBX 8 16 0 -2
BITMAP
00
00
04
04
00
00
04
04
04
04
04
04
04
24
24
18
ENDCHAR
STARTCHAR (for_rename)
ENCODING 10603
SWIDTH 512 0
DWIDTH 8 0
BBX 8 16 0 -2
BITMAP
00
40
40
40
40
42
44
48
50
60
50
48
44
42
00
00
ENDCHAR
STARTCHAR (for_rename)
ENCODING 10604
SWIDTH 512 0
DWIDTH 8 0
BBX 8 16 0 -2
BITMAP
00
30
10
10
10
10
10
10
10
10
10
10
10
10
00
00
ENDCHAR
STARTCHAR (for_rename)
ENCODING 10605
SWIDTH 512 0
DWIDTH 8 0
BBX 8 16 0 -2
BITMAP
00
00
00
00
00
56
69
49
49
49
49
49
49
49
00
00
ENDCHAR
STARTCHAR (for_rename)
ENCODING 10606
SWIDTH 512 0
DWIDTH 8 0
BBX 8 16 0 -2
BITMAP
00
00
00
00
00
58
64
42
42
42
42
42
42
42
00
00
ENDCHAR
STARTCHAR (for_rename)
ENCODING 10607
SWIDTH 512 0
DWIDTH 8 0
BBX 8 16 0 -2
BITMAP
00
00
00
00
00
18
24
42
42
42
42
42
24
18
00
00
ENDCHAR
STARTCHAR (for_rename)
ENCODING 10608
SWIDTH 512 0
DWIDTH 8 0
BBX 8 16 0 -2
BITMAP
00
00
00
00
00
58
64
42
42
42
42
64
58
40
40
40
ENDCHAR
STARTCHAR (for_rename)
ENCODING 10609
SWIDTH 512 0
DWIDTH 8 0
BBX 8 16 0 -2
BITMAP
00
00
00
00
00
1A
26
42
42
42
42
26
1A
02
02
02
ENDCHAR
STARTCHAR (for_rename)
ENCODING 10610
SWIDTH 512 0
DWIDTH 8 0
BBX 8 16 0 -2
BITMAP
00
00
00
00
00
2C
32
22
20
20
20
20
20
20
00
00
ENDCHAR
STARTCHAR (for_rename)
ENCODING 10611
SWIDTH 512 0
DWIDTH 8 0
BBX 8 16 0 -2
BITMAP
00
00
00
00
00
18
24
42
40
3C
02
42
24
18
00
00
ENDCHAR
STARTCHAR (for_rename)
ENCODING 10612
SWIDTH 512 0
DWIDTH 8 0
BBX 8 16 0 -2
BITMAP
00
00
00
10
10
7C
10
10
10
10
10
12
12
0C
00
00
ENDCHAR
STARTCHAR (for_rename)
ENCODING 10613
SWIDTH 512 0
DWIDTH 8 0
BBX 8 16 0 -2
BITMAP
00
00
00
00
00
42
42
42
42
42
42
42
26
1A
00
00
ENDCHAR
STARTCHAR (for_rename)
ENCODING 10614
SWIDTH 512 0
DWIDTH 8 0
BBX 8 16 0 -2
BITMAP
00
00
00
00
00
42
42
42
42
24
24
24
18
18
00
00
ENDCHAR
STARTCHAR (for_rename)
ENCODING 10615
SWIDTH 512 0
DWIDTH 8 0
BBX 8 16 0 -2
BITMAP
00
00
00
00
00
41
49
49
55
55
55
55
22
22
00
00
ENDCHAR
STARTCHAR (for_rename)
ENCODING 10616
SWIDTH 512 0
DWIDTH 8 0
BBX 8 16 0 -2
BITMAP
00
00
00
00
00
42
42
24
18
18
24
42
42
42
00
00
ENDCHAR
STARTCHAR (for_rename)
ENCODING 10617
SWIDTH 512 0
DWIDTH 8 0
BBX 8 16 0 -2
BITMAP
00
00
00
00
00
42
42
42
44
24
24
18
08
10
20
40
ENDCHAR
STARTCHAR (for_rename)
ENCODING 10618
SWIDTH 512 0
DWIDTH 8 0
BBX 8 16 0 -2
BITMAP
00
00
00
00
00
7E
02
04
08
08
10
20
40
7E
00
00
ENDCHAR
STARTCHAR (for_rename)
ENCODING 10619
SWIDTH 512 0
DWIDTH 8 0
BBX 8 16 0 -2
BITMAP
06
08
08
08
08
08
08
10
10
08
08
08
08
08
08
06
ENDCHAR
STARTCHAR (for_rename)
ENCODING 10620
SWIDTH 512 0
DWIDTH 8 0
BBX 8 16 0 -2
BITMAP
00
00
00
00
00
10
10
10
10
10
10
10
10
10
00
00
ENDCHAR
STARTCHAR (for_rename)
ENCODING 10621
SWIDTH 512 0
DWIDTH 8 0
BBX 8 16 0 -2
BITMAP
30
08
08
08
08
08
08
04
04
08
08
08
08
08
08
30
ENDCHAR
STARTCHAR (for_rename)
ENCODING 10622
SWIDTH 512 0
DWIDTH 8 0
BBX 8 16 0 -2
BITMAP
7E
00
00
00
00
00
00
00
00
00
00
00
00
00
00
00
ENDCHAR
STARTCHAR (for_rename)
ENCODING 10785
SWIDTH 512 0
DWIDTH 8 0
BBX 8 16 0 -2
BITMAP
00
00
00
00
00
00
00
00
00
00
00
00
20
50
50
20
ENDCHAR
STARTCHAR (for_rename)
ENCODING 10786
SWIDTH 512 0
DWIDTH 8 0
BBX 8 16 0 -2
BITMAP
1E
10
10
10
10
10
10
10
10
10
10
10
10
10
10
10
ENDCHAR
STARTCHAR (for_rename)
ENCODING 10787
SWIDTH 512 0
DWIDTH 8 0
BBX 8 16 0 -2
BITMAP
04
04
04
04
04
04
04
04
04
04
04
04
04
04
04
3C
ENDCHAR
STARTCHAR (for_rename)
ENCODING 10788
SWIDTH 512 0
DWIDTH 8 0
BBX 8 16 0 -2
BITMAP
00
00
00
00
00
00
00
00
00
00
00
00
00
40
20
20
ENDCHAR
STARTCHAR (for_rename)
ENCODING 10789
SWIDTH 512 0
DWIDTH 8 0
BBX 8 16 0 -2
BITMAP
00
00
00
00
00
00
00
30
30
00
00
00
00
00
00
00
ENDCHAR
STARTCHAR (for_rename)
ENCODING 10790
SWIDTH 512 0
DWIDTH 8 0
BBX 8 16 0 -2
BITMAP
00
00
7E
02
02
02
7E
02
02
04
04
08
08
10
20
00
ENDCHAR
STARTCHAR (for_rename)
ENCODING 10791
SWIDTH 512 0
DWIDTH 8 0
BBX 8 16 0 -2
BITMAP
00
00
00
00
00
7E
02
02
14
18
10
10
10
20
40
00
ENDCHAR
STARTCHAR (for_rename)
ENCODING 10792
SWIDTH 512 0
DWIDTH 8 0
BBX 8 16 0 -2
BITMAP
00
00
00
00
02
02
04
04
08
18
68
08
08
08
08
00
ENDCHAR
STARTCHAR (for_rename)
ENCODING 10793
SWIDTH 512 0
DWIDTH 8 0
BBX 8 16 0 -2
BITMAP
00
00
00
00
08
08
7E
42
42
42
02
04
04
08
30
00
ENDCHAR
STARTCHAR (for_rename)
ENCODING 10794
SWIDTH 512 0
DWIDTH 8 0
BBX 8 16 0 -2
BITMAP
00
00
00
00
00
3E
08
08
08
08
08
08
08
7F
00
00
ENDCHAR
STARTCHAR (for_rename)
ENCODING 10795
SWIDTH 512 0
DWIDTH 8 0
BBX 8 16 0 -2
BITMAP
00
00
00
00
08
08
7E
08
18
18
28
28
48
08
18
00
ENDCHAR
STARTCHAR (for_rename)
ENCODING 10796
SWIDTH 512 0
DWIDTH 8 0
BBX 8 16 0 -2
BITMAP
00
00
00
00
10
10
10
1F
71
12
14
10
10
10
10
00
ENDCHAR
STARTCHAR (for_rename)
ENCODING 10797
SWIDTH 512 0
DWIDTH 8 0
BBX 8 16 0 -2
BITMAP
00
00
00
00
00
00
38
08
08
08
08
08
08
7E
00
00
ENDCHAR
STARTCHAR (for_rename)
ENCODING 10798
SWIDTH 512 0
DWIDTH 8 0
BBX 8 16 0 -2
BITMAP
00
00
00
00
00
7C
04
04
04
7C
04
04
04
7C
00
00
ENDCHAR
STARTCHAR (for_rename)
ENCODING 10799
SWIDTH 512 0
DWIDTH 8 0
BBX 8 16 0 -2
BITMAP
00
00
00
00
00
52
52
52
52
02
02
04
04
08
30
00
ENDCHAR
STARTCHAR (for_rename)
ENCODING 10800
SWIDTH 512 0
DWIDTH 8 0
BBX 8 16 0 -2
BITMAP
00
00
00
00
00
00
00
7E
00
00
00
00
00
00
00
00
ENDCHAR
STARTCHAR (for_rename)
ENCODING 10801
SWIDTH 512 0
DWIDTH 8 0
BBX 8 16 0 -2
BITMAP
00
00
7E
02
02
04
14
18
10
10
10
10
10
20
40
00
ENDCHAR
STARTCHAR (for_rename)
ENCODING 10802
SWIDTH 512 0
DWIDTH 8 0
BBX 8 16 0 -2
BITMAP
00
02
02
02
04
04
04
08
18
68
08
08
08
08
08
00
ENDCHAR
STARTCHAR (for_rename)
ENCODING 10803
SWIDTH 512 0
DWIDTH 8 0
BBX 8 16 0 -2
BITMAP
00
08
08
7E
42
42
42
42
02
04
04
08
08
10
20
00
ENDCHAR
STARTCHAR (for_rename)
ENCODING 10804
SWIDTH 512 0
DWIDTH 8 0
BBX 8 16 0 -2
BITMAP
00
00
00
3E
08
08
08
08
08
08
08
08
08
7F
00
00
ENDCHAR
STARTCHAR (for_rename)
ENCODING 10805
SWIDTH 512 0
DWIDTH 8 0
BBX 8 16 0 -2
BITMAP
00
04
04
04
7F
04
0C
0C
14
14
14
24
44
04
0C
00
ENDCHAR
STARTCHAR (for_rename)
ENCODING 10806
SWIDTH 512 0
DWIDTH 8 0
BBX 8 16 0 -2
BITMAP
00
10
10
10
7E
12
12
12
12
12
12
22
22
22
46
00
ENDCHAR
STARTCHAR (for_rename)
ENCODING 10807
SWIDTH 512 0
DWIDTH 8 0
BBX 8 16 0 -2
BITMAP
00
10
10
10
10
7E
10
10
08
08
7E
08
08
08
08
00
ENDCHAR
STARTCHAR (for_rename)
ENCODING 10808
SWIDTH 512 0
DWIDTH 8 0
BBX 8 16 0 -2
BITMAP
00
10
10
1E
12
22
22
42
04
04
08
08
10
20
40
00
ENDCHAR
STARTCHAR (for_rename)
ENCODING 10809
SWIDTH 512 0
DWIDTH 8 0
BBX 8 16 0 -2
BITMAP
00
20
20
20
3E
24
24
44
04
04
08
08
10
20
40
00
ENDCHAR
STARTCHAR (for_rename)
ENCODING 10810
SWIDTH 512 0
DWIDTH 8 0
BBX 8 16 0 -2
BITMAP
00
00
00
7E
02
02
02
02
02
02
02
02
02
7E
00
00
ENDCHAR
STARTCHAR (for_rename)
ENCODING 10811
SWIDTH 512 0
DWIDTH 8 0
BBX 8 16 0 -2
BITMAP
00
24
24
24
24
7E
24
24
24
24
04
08
08
10
20
00
ENDCHAR
STARTCHAR (for_rename)
ENCODING 10812
SWIDTH 512 0
DWIDTH 8 0
BBX 8 16 0 -2
BITMAP
00
00
60
10
02
02
62
12
02
02
04
04
08
10
60
00
ENDCHAR
STARTCHAR (for_rename)
ENCODING 10813
SWIDTH 512 0
DWIDTH 8 0
BBX 8 16 0 -2
BITMAP
00
00
7C
04
04
04
04
08
08
08
14
14
12
22
42
00
ENDCHAR
STARTCHAR (for_rename)
ENCODING 10814
SWIDTH 512 0
DWIDTH 8 0
BBX 8 16 0 -2
BITMAP
00
20
20
20
3E
62
24
28
20
20
20
20
20
1E
00
00
ENDCHAR
STARTCHAR (for_rename)
ENCODING 10815
SWIDTH 512 0
DWIDTH 8 0
BBX 8 16 0 -2
BITMAP
00
00
42
22
22
12
12
02
04
04
08
08
10
20
40
00
ENDCHAR
STARTCHAR (for_rename)
ENCODING 10816
SWIDTH 512 0
DWIDTH 8 0
BBX 8 16 0 -2
BITMAP
00
10
10
1E
12
22
32
4A
04
04
08
08
10
20
40
00
ENDCHAR
STARTCHAR (for_rename)
ENCODING 10817
SWIDTH 512 0
DWIDTH 8 0
BBX 8 16 0 -2
BITMAP
00
02
0C
78
08
08
08
7E
08
08
08
10
10
20
40
00
ENDCHAR
STARTCHAR (for_rename)
ENCODING 10818
SWIDTH 512 0
DWIDTH 8 0
BBX 8 16 0 -2
BITMAP
00
00
52
52
52
52
52
52
02
04
04
08
08
10
20
00
ENDCHAR
STARTCHAR (for_rename)
ENCODING 10819
SWIDTH 512 0
DWIDTH 8 0
BBX 8 16 0 -2
BITMAP
00
00
3C
00
00
00
7E
08
08
08
08
10
10
20
40
00
ENDCHAR
STARTCHAR (for_rename)
ENCODING 10820
SWIDTH 512 0
DWIDTH 8 0
BBX 8 16 0 -2
BITMAP
00
20
20
20
20
20
30
2C
22
20
20
20
20
20
20
00
ENDCHAR
STARTCHAR (for_rename)
ENCODING 10821
SWIDTH 512 0
DWIDTH 8 0
BBX 8 16 0 -2
BITMAP
00
08
08
08
08
7E
08
08
08
08
08
10
10
20
40
00
ENDCHAR
STARTCHAR (for_rename)
ENCODING 10822
SWIDTH 512 0
DWIDTH 8 0
BBX 8 16 0 -2
BITMAP
00
00
00
3C
00
00
00
00
00
00
00
00
00
7E
00
00
ENDCHAR
STARTCHAR (for_rename)
ENCODING 10823
SWIDTH 512 0
DWIDTH 8 0
BBX 8 16 0 -2
BITMAP
00
00
7C
04
04
04
24
14
08
08
14
12
10
20
40
00
ENDCHAR
STARTCHAR (for_rename)
ENCODING 10824
SWIDTH 512 0
DWIDTH 8 0
BBX 8 16 0 -2
BITMAP
00
10
08
00
7E
02
04
04
08
1C
2A
48
08
08
08
00
ENDCHAR
STARTCHAR (for_rename)
ENCODING 10825
SWIDTH 512 0
DWIDTH 8 0
BBX 8 16 0 -2
BITMAP
00
00
02
02
02
02
02
04
04
04
08
08
10
20
40
00
ENDCHAR
STARTCHAR (for_rename)
ENCODING 10826
SWIDTH 512 0
DWIDTH 8 0
BBX 8 16 0 -2
BITMAP
00
00
04
02
12
12
12
12
11
11
21
21
21
41
00
00
ENDCHAR
STARTCHAR (for_rename)
ENCODING 10827
SWIDTH 512 0
DWIDTH 8 0
BBX 8 16 0 -2
BITMAP
00
00
40
40
42
4C
70
40
40
40
40
40
40
3E
00
00
ENDCHAR
STARTCHAR (for_rename)
ENCODING 10828
SWIDTH 512 0
DWIDTH 8 0
BBX 8 16 0 -2
BITMAP
00
00
7E
02
02
02
02
02
04
04
08
08
10
20
40
00
ENDCHAR
STARTCHAR (for_rename)
ENCODING 10829
SWIDTH 512 0
DWIDTH 8 0
BBX 8 16 0 -2
BITMAP
00
00
00
10
28
28
28
44
04
04
02
02
02
01
00
00
ENDCHAR
STARTCHAR (for_rename)
ENCODING 10830
SWIDTH 512 0
DWIDTH 8 0
BBX 8 16 0 -2
BITMAP
00
08
08
08
7F
08
08
2A
2A
2A
2A
2A
49
08
08
00
ENDCHAR
STARTCHAR (for_rename)
ENCODING 10831
SWIDTH 512 0
DWIDTH 8 0
BBX 8 16 0 -2
BITMAP
00
00
7E
02
02
02
02
02
04
44
28
10
08
04
04
00
ENDCHAR
STARTCHAR (for_rename)
ENCODING 10832
SWIDTH 512 0
DWIDTH 8 0
BBX 8 16 0 -2
BITMAP
00
60
18
04
00
00
60
18
04
00
00
60
18
04
02
00
ENDCHAR
STARTCHAR (for_rename)
ENCODING 10833
SWIDTH 512 0
DWIDTH 8 0
BBX 8 16 0 -2
BITMAP
00
08
08
08
08
10
10
10
10
24
22
22
2E
72
02
00
ENDCHAR
STARTCHAR (for_rename)
ENCODING 10834
SWIDTH 512 0
DWIDTH 8 0
BBX 8 16 0 -2
BITMAP
00
04
04
04
04
44
24
14
08
08
14
12
10
20
40
00
ENDCHAR
STARTCHAR (for_rename)
ENCODING 10835
SWIDTH 512 0
DWIDTH 8 0
BBX 8 16 0 -2
BITMAP
00
00
7E
10
10
10
10
7E
10
10
10
10
10
0E
00
00
ENDCHAR
STARTCHAR (for_rename)
ENCODING 10836
SWIDTH 512 0
DWIDTH 8 0
BBX 8 16 0 -2
BITMAP
00
10
10
10
10
1F
71
12
14
10
10
10
10
10
10
00
ENDCHAR
STARTCHAR (for_rename)
ENCODING 10837
SWIDTH 512 0
DWIDTH 8 0
BBX 8 16 0 -2
BITMAP
00
00
3C
04
04
04
04
04
04
04
04
04
04
7F
00
00
ENDCHAR
STARTCHAR (for_rename)
ENCODING 10838
SWIDTH 512 0
DWIDTH 8 0
BBX 8 16 0 -2
BITMAP
00
00
7E
02
02
02
02
3E
02
02
02
02
02
7E
00
00
ENDCHAR
STARTCHAR (for_rename)
ENCODING 10839
SWIDTH 512 0
DWIDTH 8 0
BBX 8 16 0 -2
BITMAP
00
00
3C
00
00
00
7E
02
02
02
04
04
08
10
20
00
ENDCHAR
STARTCHAR (for_rename)
ENCODING 10840
SWIDTH 512 0
DWIDTH 8 0
BBX 8 16 0 -2
BITMAP
00
02
42
42
42
42
42
42
42
42
04
04
08
10
20
00
ENDCHAR
STARTCHAR (for_rename)
ENCODING 10841
SWIDTH 512 0
DWIDTH 8 0
BBX 8 16 0 -2
BITMAP
00
08
28
28
28
28
28
28
28
2A
2A
2A
2A
2C
48
00
ENDCHAR
STARTCHAR (for_rename)
ENCODING 10842
SWIDTH 512 0
DWIDTH 8 0
BBX 8 16 0 -2
BITMAP
00
40
40
40
40
40
42
42
42
44
44
48
48
50
60
00
ENDCHAR
STARTCHAR (for_rename)
ENCODING 10843
SWIDTH 512 0
DWIDTH 8 0
BBX 8 16 0 -2
BITMAP
00
00
00
7E
42
42
42
42
42
42
42
42
42
7E
00
00
ENDCHAR
STARTCHAR (for_rename)
ENCODING 10844
SWIDTH 512 0
DWIDTH 8 0
BBX 8 16 0 -2
BITMAP
00
00
7E
42
42
42
42
42
02
04
04
08
08
10
20
00
ENDCHAR
STARTCHAR (for_rename)
ENCODING 10845
SWIDTH 512 0
DWIDTH 8 0
BBX 8 16 0 -2
BITMAP
00
00
00
70
02
02
02
02
02
02
04
04
08
10
60
00
ENDCHAR
STARTCHAR (for_rename)
ENCODING 10846
SWIDTH 512 0
DWIDTH 8 0
BBX 8 16 0 -2
BITMAP
28
28
00
00
00
00
00
00
00
00
00
00
00
00
00
00
ENDCHAR
STARTCHAR (for_rename)
ENCODING 10847
SWIDTH 512 0
DWIDTH 8 0
BBX 8 16 0 -2
BITMAP
10
28
28
10
00
00
00
00
00
00
00
00
00
00
00
00
ENDCHAR
STARTCHAR (for_rename)
ENCODING 10848
SWIDTH 512 0
DWIDTH 8 0
BBX 8 16 0 -2
BITMAP
00
04
04
04
7E
24
24
24
24
24
7E
04
04
04
04
00
ENDCHAR
STARTCHAR (for_rename)
ENCODING 10849
SWIDTH 512 0
DWIDTH 8 0
BBX 8 16 0 -2
BITMAP
00
00
00
7E
02
02
14
18
10
10
10
10
10
7E
00
00
ENDCHAR
STARTCHAR (for_rename)
ENCODING 10850
SWIDTH 512 0
DWIDTH 8 0
BBX 8 16 0 -2
BITMAP
00
00
00
00
00
7E
42
42
42
02
04
04
08
10
20
00
ENDCHAR
STARTCHAR (for_rename)
ENCODING 10851
SWIDTH 512 0
DWIDTH 8 0
BBX 8 16 0 -2
BITMAP
00
00
00
00
10
10
7E
12
12
12
12
22
22
22
46
00
ENDCHAR
STARTCHAR (for_rename)
ENCODING 10852
SWIDTH 512 0
DWIDTH 8 0
BBX 8 16 0 -2
BITMAP
00
00
00
00
20
20
3E
24
24
44
04
08
08
10
20
00
ENDCHAR
STARTCHAR (for_rename)
ENCODING 10853
SWIDTH 512 0
DWIDTH 8 0
BBX 8 16 0 -2
BITMAP
05
05
10
10
7E
42
42
42
42
04
04
08
08
10
20
00
ENDCHAR
STARTCHAR (for_rename)
ENCODING 10854
SWIDTH 512 0
DWIDTH 8 0
BBX 8 16 0 -2
BITMAP
05
15
10
10
7E
12
12
12
12
12
12
22
22
22
46
00
ENDCHAR
STARTCHAR (for_rename)
ENCODING 10855
SWIDTH 512 0
DWIDTH 8 0
BBX 8 16 0 -2
BITMAP
05
15
10
10
10
7E
10
10
08
08
7E
08
08
08
08
00
ENDCHAR
STARTCHAR (for_rename)
ENCODING 10856
SWIDTH 512 0
DWIDTH 8 0
BBX 8 16 0 -2
BITMAP
05
05
10
10
1E
22
22
42
04
04
08
08
10
20
40
00
ENDCHAR
STARTCHAR (for_rename)
ENCODING 10857
SWIDTH 512 0
DWIDTH 8 0
BBX 8 16 0 -2
BITMAP
0A
0A
20
20
3E
24
24
44
04
04
08
08
10
20
40
00
ENDCHAR
STARTCHAR (for_rename)
ENCODING 10858
SWIDTH 512 0
DWIDTH 8 0
BBX 8 16 0 -2
BITMAP
0A
0A
00
00
7E
02
02
02
02
02
02
02
02
7E
00
00
ENDCHAR
STARTCHAR (for_rename)
ENCODING 10859
SWIDTH 512 0
DWIDTH 8 0
BBX 8 16 0 -2
BITMAP
0A
0A
20
24
24
7E
24
24
24
24
04
08
08
10
20
00
ENDCHAR
STARTCHAR (for_rename)
ENCODING 10860
SWIDTH 512 0
DWIDTH 8 0
BBX 8 16 0 -2
BITMAP
0A
0A
60
10
02
02
62
12
02
02
04
04
08
10
60
00
ENDCHAR
STARTCHAR (for_rename)
ENCODING 10861
SWIDTH 512 0
DWIDTH 8 0
BBX 8 16 0 -2
BITMAP
0A
0A
00
7C
04
04
04
04
08
08
08
14
14
12
22
42
ENDCHAR
STARTCHAR (for_rename)
ENCODING 10862
SWIDTH 512 0
DWIDTH 8 0
BBX 8 16 0 -2
BITMAP
0A
0A
20
20
7E
22
24
28
20
20
20
20
20
1E
00
00
ENDCHAR
STARTCHAR (for_rename)
ENCODING 10863
SWIDTH 512 0
DWIDTH 8 0
BBX 8 16 0 -2
BITMAP
0A
0A
40
20
22
12
12
02
04
04
08
08
10
20
40
00
ENDCHAR
STARTCHAR (for_rename)
ENCODING 10864
SWIDTH 512 0
DWIDTH 8 0
BBX 8 16 0 -2
BITMAP
05
05
10
10
1E
22
32
4A
04
04
08
08
10
20
40
00
ENDCHAR
STARTCHAR (for_rename)
ENCODING 10865
SWIDTH 512 0
DWIDTH 8 0
BBX 8 16 0 -2
BITMAP
0A
0A
00
0E
78
08
08
7E
08
08
08
10
10
20
40
00
ENDCHAR
STARTCHAR (for_rename)
ENCODING 10866
SWIDTH 512 0
DWIDTH 8 0
BBX 8 16 0 -2
BITMAP
0A
0A
00
50
52
52
52
52
02
04
04
08
08
10
60
00
ENDCHAR
STARTCHAR (for_rename)
ENCODING 10867
SWIDTH 512 0
DWIDTH 8 0
BBX 8 16 0 -2
BITMAP
0A
0A
00
3C
00
00
00
7E
08
08
08
08
10
10
20
00
ENDCHAR
STARTCHAR (for_rename)
ENCODING 10868
SWIDTH 512 0
DWIDTH 8 0
BBX 8 16 0 -2
BITMAP
0A
0A
20
20
20
20
30
2C
22
20
20
20
20
20
20
00
ENDCHAR
STARTCHAR (for_rename)
ENCODING 10869
SWIDTH 512 0
DWIDTH 8 0
BBX 8 16 0 -2
BITMAP
05
05
00
04
12
12
12
12
11
11
21
21
21
41
00
00
ENDCHAR
STARTCHAR (for_rename)
ENCODING 10870
SWIDTH 512 0
DWIDTH 8 0
BBX 8 16 0 -2
BITMAP
02
05
05
02
00
12
12
12
11
11
21
21
21
41
00
00
ENDCHAR
STARTCHAR (for_rename)
ENCODING 10871
SWIDTH 512 0
DWIDTH 8 0
BBX 8 16 0 -2
BITMAP
0A
0A
40
40
42
4C
70
40
40
40
40
40
40
3E
00
00
ENDCHAR
STARTCHAR (for_rename)
ENCODING 10872
SWIDTH 512 0
DWIDTH 8 0
BBX 8 16 0 -2
BITMAP
04
0A
4A
44
40
46
78
40
40
40
40
40
40
3E
00
00
ENDCHAR
STARTCHAR (for_rename)
ENCODING 10873
SWIDTH 512 0
DWIDTH 8 0
BBX 8 16 0 -2
BITMAP
0A
0A
00
00
7E
02
02
02
02
04
04
08
08
10
20
00
ENDCHAR
STARTCHAR (for_rename)
ENCODING 10874
SWIDTH 512 0
DWIDTH 8 0
BBX 8 16 0 -2
BITMAP
04
0A
0A
04
7E
02
02
02
02
04
04
08
08
10
20
00
ENDCHAR
STARTCHAR (for_rename)
ENCODING 10875
SWIDTH 512 0
DWIDTH 8 0
BBX 8 16 0 -2
BITMAP
0A
0A
00
10
28
28
28
44
04
04
02
02
02
01
00
00
ENDCHAR
STARTCHAR (for_rename)
ENCODING 10876
SWIDTH 512 0
DWIDTH 8 0
BBX 8 16 0 -2
BITMAP
04
0A
0A
04
00
10
28
28
44
04
04
02
02
02
01
00
ENDCHAR
STARTCHAR (for_rename)
ENCODING 10877
SWIDTH 512 0
DWIDTH 8 0
BBX 8 16 0 -2
BITMAP
05
05
00
08
08
7F
08
08
2A
2A
2A
2A
2A
49
08
00
ENDCHAR
STARTCHAR (for_rename)
ENCODING 10878
SWIDTH 512 0
DWIDTH 8 0
BBX 8 16 0 -2
BITMAP
02
05
05
0A
08
7F
08
08
2A
2A
2A
2A
2A
49
08
00
ENDCHAR
STARTCHAR (for_rename)
ENCODING 11042
SWIDTH 512 0
DWIDTH 8 0
BBX 8 16 0 -2
BITMAP
24
24
48
00
00
00
00
00
00
00
00
00
00
00
00
00
ENDCHAR
STARTCHAR (for_rename)
ENCODING 11043
SWIDTH 512 0
DWIDTH 8 0
BBX 8 16 0 -2
BITMAP
00
00
00
00
00
00
00
00
00
00
00
00
00
24
24
48
ENDCHAR
STARTCHAR (for_rename)
ENCODING 11044
SWIDTH 512 0
DWIDTH 8 0
BBX 8 16 0 -2
BITMAP
00
00
00
00
00
00
00
FF
00
00
00
00
00
00
00
00
ENDCHAR
STARTCHAR (for_rename)
ENCODING 11045
SWIDTH 512 0
DWIDTH 8 0
BBX 8 16 0 -2
BITMAP
00
00
00
00
00
00
00
FF
FF
00
00
00
00
00
00
00
ENDCHAR
STARTCHAR (for_rename)
ENCODING 11046
SWIDTH 512 0
DWIDTH 8 0
BBX 8 16 0 -2
BITMAP
08
08
08
08
08
08
08
08
08
08
08
08
08
08
08
08
ENDCHAR
STARTCHAR (for_rename)
ENCODING 11047
SWIDTH 512 0
DWIDTH 8 0
BBX 8 16 0 -2
BITMAP
18
18
18
18
18
18
18
18
18
18
18
18
18
18
18
18
ENDCHAR
STARTCHAR (for_rename)
ENCODING 11048
SWIDTH 512 0
DWIDTH 8 0
BBX 8 16 0 -2
BITMAP
00
00
00
00
00
00
00
77
00
00
00
00
00
00
00
00
ENDCHAR
STARTCHAR (for_rename)
ENCODING 11049
SWIDTH 512 0
DWIDTH 8 0
BBX 8 16 0 -2
BITMAP
00
00
00
00
00
00
00
77
77
00
00
00
00
00
00
00
ENDCHAR
STARTCHAR (for_rename)
ENCODING 11050
SWIDTH 512 0
DWIDTH 8 0
BBX 8 16 0 -2
BITMAP
08
08
08
00
08
08
08
00
08
08
08
00
08
08
08
00
ENDCHAR
STARTCHAR (for_rename)
ENCODING 11051
SWIDTH 512 0
DWIDTH 8 0
BBX 8 16 0 -2
BITMAP
18
18
18
00
18
18
18
00
18
18
18
00
18
18
18
00
ENDCHAR
STARTCHAR (for_rename)
ENCODING 11052
SWIDTH 512 0
DWIDTH 8 0
BBX 8 16 0 -2
BITMAP
00
00
00
00
00
00
00
66
00
00
00
00
00
00
00
00
ENDCHAR
STARTCHAR (for_rename)
ENCODING 11053
SWIDTH 512 0
DWIDTH 8 0
BBX 8 16 0 -2
BITMAP
00
00
00
00
00
00
00
66
66
00
00
00
00
00
00
00
ENDCHAR
STARTCHAR (for_rename)
ENCODING 11054
SWIDTH 512 0
DWIDTH 8 0
BBX 8 16 0 -2
BITMAP
00
08
08
00
00
08
08
00
00
08
08
00
00
08
08
00
ENDCHAR
STARTCHAR (for_rename)
ENCODING 11055
SWIDTH 512 0
DWIDTH 8 0
BBX 8 16 0 -2
BITMAP
00
18
18
00
00
18
18
00
00
18
18
00
00
18
18
00
ENDCHAR
STARTCHAR (for_rename)
ENCODING 11056
SWIDTH 512 0
DWIDTH 8 0
BBX 8 16 0 -2
BITMAP
00
00
00
00
00
00
00
0F
08
08
08
08
08
08
08
08
ENDCHAR
STARTCHAR (for_rename)
ENCODING 11057
SWIDTH 512 0
DWIDTH 8 0
BBX 8 16 0 -2
BITMAP
00
00
00
00
00
00
00
0F
0F
08
08
08
08
08
08
08
ENDCHAR
STARTCHAR (for_rename)
ENCODING 11058
SWIDTH 512 0
DWIDTH 8 0
BBX 8 16 0 -2
BITMAP
00
00
00
00
00
00
00
1F
18
18
18
18
18
18
18
18
ENDCHAR
STARTCHAR (for_rename)
ENCODING 11059
SWIDTH 512 0
DWIDTH 8 0
BBX 8 16 0 -2
BITMAP
00
00
00
00
00
00
00
1F
1F
18
18
18
18
18
18
18
ENDCHAR
STARTCHAR (for_rename)
ENCODING 11060
SWIDTH 512 0
DWIDTH 8 0
BBX 8 16 0 -2
BITMAP
00
00
00
00
00
00
00
F8
08
08
08
08
08
08
08
08
ENDCHAR
STARTCHAR (for_rename)
ENCODING 11061
SWIDTH 512 0
DWIDTH 8 0
BBX 8 16 0 -2
BITMAP
00
00
00
00
00
00
00
F8
F8
08
08
08
08
08
08
08
ENDCHAR
STARTCHAR (for_rename)
ENCODING 11062
SWIDTH 512 0
DWIDTH 8 0
BBX 8 16 0 -2
BITMAP
00
00
00
00
00
00
00
F8
18
18
18
18
18
18
18
18
ENDCHAR
STARTCHAR (for_rename)
ENCODING 11063
SWIDTH 512 0
DWIDTH 8 0
BBX 8 16 0 -2
BITMAP
00
00
00
00
00
00
00
F8
F8
18
18
18
18
18
18
18
ENDCHAR
STARTCHAR (for_rename)
ENCODING 11064
SWIDTH 512 0
DWIDTH 8 0
BBX 8 16 0 -2
BITMAP
08
08
08
08
08
08
08
0F
00
00
00
00
00
00
00
00
ENDCHAR
STARTCHAR (for_rename)
ENCODING 11065
SWIDTH 512 0
DWIDTH 8 0
BBX 8 16 0 -2
BITMAP
08
08
08
08
08
08
08
0F
0F
00
00
00
00
00
00
00
ENDCHAR
STARTCHAR (for_rename)
ENCODING 11066
SWIDTH 512 0
DWIDTH 8 0
BBX 8 16 0 -2
BITMAP
18
18
18
18
18
18
18
1F
00
00
00
00
00
00
00
00
ENDCHAR
STARTCHAR (for_rename)
ENCODING 11067
SWIDTH 512 0
DWIDTH 8 0
BBX 8 16 0 -2
BITMAP
18
18
18
18
18
18
18
1F
1F
00
00
00
00
00
00
00
ENDCHAR
STARTCHAR (for_rename)
ENCODING 11068
SWIDTH 512 0
DWIDTH 8 0
BBX 8 16 0 -2
BITMAP
08
08
08
08
08
08
08
F8
00
00
00
00
00
00
00
00
ENDCHAR
STARTCHAR (for_rename)
ENCODING 11069
SWIDTH 512 0
DWIDTH 8 0
BBX 8 16 0 -2
BITMAP
08
08
08
08
08
08
08
F8
F8
00
00
00
00
00
00
00
ENDCHAR
STARTCHAR (for_rename)
ENCODING 11070
SWIDTH 512 0
DWIDTH 8 0
BBX 8 16 0 -2
BITMAP
18
18
18
18
18
18
18
F8
00
00
00
00
00
00
00
00
ENDCHAR
STARTCHAR (for_rename)
ENCODING 11071
SWIDTH 512 0
DWIDTH 8 0
BBX 8 16 0 -2
BITMAP
18
18
18
18
18
18
18
F8
F8
00
00
00
00
00
00
00
ENDCHAR
STARTCHAR (for_rename)
ENCODING 11072
SWIDTH 512 0
DWIDTH 8 0
BBX 8 16 0 -2
BITMAP
08
08
08
08
08
08
08
0F
08
08
08
08
08
08
08
08
ENDCHAR
STARTCHAR (for_rename)
ENCODING 11073
SWIDTH 512 0
DWIDTH 8 0
BBX 8 16 0 -2
BITMAP
08
08
08
08
08
08
08
0F
0F
08
08
08
08
08
08
08
ENDCHAR
STARTCHAR (for_rename)
ENCODING 11074
SWIDTH 512 0
DWIDTH 8 0
BBX 8 16 0 -2
BITMAP
18
18
18
18
18
18
18
1F
08
08
08
08
08
08
08
08
ENDCHAR
STARTCHAR (for_rename)
ENCODING 11075
SWIDTH 512 0
DWIDTH 8 0
BBX 8 16 0 -2
BITMAP
08
08
08
08
08
08
08
1F
18
18
18
18
18
18
18
18
ENDCHAR
STARTCHAR (for_rename)
ENCODING 11076
SWIDTH 512 0
DWIDTH 8 0
BBX 8 16 0 -2
BITMAP
18
18
18
18
18
18
18
1F
18
18
18
18
18
18
18
18
ENDCHAR
STARTCHAR (for_rename)
ENCODING 11077
SWIDTH 512 0
DWIDTH 8 0
BBX 8 16 0 -2
BITMAP
18
18
18
18
18
18
18
1F
1F
08
08
08
08
08
08
08
ENDCHAR
STARTCHAR (for_rename)
ENCODING 11078
SWIDTH 512 0
DWIDTH 8 0
BBX 8 16 0 -2
BITMAP
08
08
08
08
08
08
08
1F
1F
18
18
18
18
18
18
18
ENDCHAR
STARTCHAR (for_rename)
ENCODING 11079
SWIDTH 512 0
DWIDTH 8 0
BBX 8 16 0 -2
BITMAP
18
18
18
18
18
18
18
1F
1F
18
18
18
18
18
18
18
ENDCHAR
STARTCHAR (for_rename)
ENCODING 11080
SWIDTH 512 0
DWIDTH 8 0
BBX 8 16 0 -2
BITMAP
08
08
08
08
08
08
08
F8
08
08
08
08
08
08
08
08
ENDCHAR
STARTCHAR (for_rename)
ENCODING 11081
SWIDTH 512 0
DWIDTH 8 0
BBX 8 16 0 -2
BITMAP
08
08
08
08
08
08
08
F8
F8
08
08
08
08
08
08
08
ENDCHAR
STARTCHAR (for_rename)
ENCODING 11082
SWIDTH 512 0
DWIDTH 8 0
BBX 8 16 0 -2
BITMAP
18
18
18
18
18
18
18
F8
08
08
08
08
08
08
08
08
ENDCHAR
STARTCHAR (for_rename)
ENCODING 11083
SWIDTH 512 0
DWIDTH 8 0
BBX 8 16 0 -2
BITMAP
08
08
08
08
08
08
08
F8
18
18
18
18
18
18
18
18
ENDCHAR
STARTCHAR (for_rename)
ENCODING 11084
SWIDTH 512 0
DWIDTH 8 0
BBX 8 16 0 -2
BITMAP
18
18
18
18
18
18
18
F8
18
18
18
18
18
18
18
18
ENDCHAR
STARTCHAR (for_rename)
ENCODING 11085
SWIDTH 512 0
DWIDTH 8 0
BBX 8 16 0 -2
BITMAP
18
18
18
18
18
18
18
F8
F8
08
08
08
08
08
08
08
ENDCHAR
STARTCHAR (for_rename)
ENCODING 11086
SWIDTH 512 0
DWIDTH 8 0
BBX 8 16 0 -2
BITMAP
08
08
08
08
08
08
08
F8
F8
18
18
18
18
18
18
18
ENDCHAR
STARTCHAR (for_rename)
ENCODING 11087
SWIDTH 512 0
DWIDTH 8 0
BBX 8 16 0 -2
BITMAP
18
18
18
18
18
18
18
F8
F8
18
18
18
18
18
18
18
ENDCHAR
STARTCHAR (for_rename)
ENCODING 11088
SWIDTH 512 0
DWIDTH 8 0
BBX 8 16 0 -2
BITMAP
00
00
00
00
00
00
00
FF
08
08
08
08
08
08
08
08
ENDCHAR
STARTCHAR (for_rename)
ENCODING 11089
SWIDTH 512 0
DWIDTH 8 0
BBX 8 16 0 -2
BITMAP
00
00
00
00
00
00
00
FF
F8
08
08
08
08
08
08
08
ENDCHAR
STARTCHAR (for_rename)
ENCODING 11090
SWIDTH 512 0
DWIDTH 8 0
BBX 8 16 0 -2
BITMAP
00
00
00
00
00
00
00
FF
0F
08
08
08
08
08
08
08
ENDCHAR
STARTCHAR (for_rename)
ENCODING 11091
SWIDTH 512 0
DWIDTH 8 0
BBX 8 16 0 -2
BITMAP
00
00
00
00
00
00
00
FF
FF
08
08
08
08
08
08
08
ENDCHAR
STARTCHAR (for_rename)
ENCODING 11092
SWIDTH 512 0
DWIDTH 8 0
BBX 8 16 0 -2
BITMAP
00
00
00
00
00
00
00
FF
18
18
18
18
18
18
18
18
ENDCHAR
STARTCHAR (for_rename)
ENCODING 11093
SWIDTH 512 0
DWIDTH 8 0
BBX 8 16 0 -2
BITMAP
00
00
00
00
00
00
00
FF
F8
18
18
18
18
18
18
18
ENDCHAR
STARTCHAR (for_rename)
ENCODING 11094
SWIDTH 512 0
DWIDTH 8 0
BBX 8 16 0 -2
BITMAP
00
00
00
00
00
00
00
FF
1F
18
18
18
18
18
18
18
ENDCHAR
STARTCHAR (for_rename)
ENCODING 11095
SWIDTH 512 0
DWIDTH 8 0
BBX 8 16 0 -2
BITMAP
00
00
00
00
00
00
00
FF
FF
18
18
18
18
18
18
18
ENDCHAR
STARTCHAR (for_rename)
ENCODING 11096
SWIDTH 512 0
DWIDTH 8 0
BBX 8 16 0 -2
BITMAP
08
08
08
08
08
08
08
FF
00
00
00
00
00
00
00
00
ENDCHAR
STARTCHAR (for_rename)
ENCODING 11097
SWIDTH 512 0
DWIDTH 8 0
BBX 8 16 0 -2
BITMAP
08
08
08
08
08
08
08
FF
F8
00
00
00
00
00
00
00
ENDCHAR
STARTCHAR (for_rename)
ENCODING 11098
SWIDTH 512 0
DWIDTH 8 0
BBX 8 16 0 -2
BITMAP
08
08
08
08
08
08
08
FF
0F
00
00
00
00
00
00
00
ENDCHAR
STARTCHAR (for_rename)
ENCODING 11099
SWIDTH 512 0
DWIDTH 8 0
BBX 8 16 0 -2
BITMAP
08
08
08
08
08
08
08
FF
FF
00
00
00
00
00
00
00
ENDCHAR
STARTCHAR (for_rename)
ENCODING 11100
SWIDTH 512 0
DWIDTH 8 0
BBX 8 16 0 -2
BITMAP
18
18
18
18
18
18
18
FF
00
00
00
00
00
00
00
00
ENDCHAR
STARTCHAR (for_rename)
ENCODING 11101
SWIDTH 512 0
DWIDTH 8 0
BBX 8 16 0 -2
BITMAP
18
18
18
18
18
18
18
FF
F8
00
00
00
00
00
00
00
ENDCHAR
STARTCHAR (for_rename)
ENCODING 11102
SWIDTH 512 0
DWIDTH 8 0
BBX 8 16 0 -2
BITMAP
18
18
18
18
18
18
18
FF
1F
00
00
00
00
00
00
00
ENDCHAR
STARTCHAR (for_rename)
ENCODING 11103
SWIDTH 512 0
DWIDTH 8 0
BBX 8 16 0 -2
BITMAP
18
18
18
18
18
18
18
FF
FF
00
00
00
00
00
00
00
ENDCHAR
STARTCHAR (for_rename)
ENCODING 11104
SWIDTH 512 0
DWIDTH 8 0
BBX 8 16 0 -2
BITMAP
08
08
08
08
08
08
08
FF
08
08
08
08
08
08
08
08
ENDCHAR
STARTCHAR (for_rename)
ENCODING 11105
SWIDTH 512 0
DWIDTH 8 0
BBX 8 16 0 -2
BITMAP
08
08
08
08
08
08
08
FF
F8
08
08
08
08
08
08
08
ENDCHAR
STARTCHAR (for_rename)
ENCODING 11106
SWIDTH 512 0
DWIDTH 8 0
BBX 8 16 0 -2
BITMAP
08
08
08
08
08
08
08
FF
0F
08
08
08
08
08
08
08
ENDCHAR
STARTCHAR (for_rename)
ENCODING 11107
SWIDTH 512 0
DWIDTH 8 0
BBX 8 16 0 -2
BITMAP
08
08
08
08
08
08
08
FF
FF
08
08
08
08
08
08
08
ENDCHAR
STARTCHAR (for_rename)
ENCODING 11108
SWIDTH 512 0
DWIDTH 8 0
BBX 8 16 0 -2
BITMAP
18
18
18
18
18
18
18
FF
08
08
08
08
08
08
08
08
ENDCHAR
STARTCHAR (for_rename)
ENCODING 11109
SWIDTH 512 0
DWIDTH 8 0
BBX 8 16 0 -2
BITMAP
08
08
08
08
08
08
08
FF
18
18
18
18
18
18
18
18
ENDCHAR
STARTCHAR (for_rename)
ENCODING 11110
SWIDTH 512 0
DWIDTH 8 0
BBX 8 16 0 -2
BITMAP
18
18
18
18
18
18
18
FF
18
18
18
18
18
18
18
18
ENDCHAR
STARTCHAR (for_rename)
ENCODING 11111
SWIDTH 512 0
DWIDTH 8 0
BBX 8 16 0 -2
BITMAP
18
18
18
18
18
18
18
FF
F8
08
08
08
08
08
08
08
ENDCHAR
STARTCHAR (for_rename)
ENCODING 11112
SWIDTH 512 0
DWIDTH 8 0
BBX 8 16 0 -2
BITMAP
18
18
18
18
18
18
18
FF
1F
08
08
08
08
08
08
08
ENDCHAR
STARTCHAR (for_rename)
ENCODING 11113
SWIDTH 512 0
DWIDTH 8 0
BBX 8 16 0 -2
BITMAP
08
08
08
08
08
08
08
FF
F8
18
18
18
18
18
18
18
ENDCHAR
STARTCHAR (for_rename)
ENCODING 11114
SWIDTH 512 0
DWIDTH 8 0
BBX 8 16 0 -2
BITMAP
08
08
08
08
08
08
08
FF
1F
18
18
18
18
18
18
18
ENDCHAR
STARTCHAR (for_rename)
ENCODING 11115
SWIDTH 512 0
DWIDTH 8 0
BBX 8 16 0 -2
BITMAP
18
18
18
18
18
18
18
FF
FF
08
08
08
08
08
08
08
ENDCHAR
STARTCHAR (for_rename)
ENCODING 11116
SWIDTH 512 0
DWIDTH 8 0
BBX 8 16 0 -2
BITMAP
08
08
08
08
08
08
08
FF
FF
18
18
18
18
18
18
18
ENDCHAR
STARTCHAR (for_rename)
ENCODING 11117
SWIDTH 512 0
DWIDTH 8 0
BBX 8 16 0 -2
BITMAP
18
18
18
18
18
18
18
FF
F8
18
18
18
18
18
18
18
ENDCHAR
STARTCHAR (for_rename)
ENCODING 11118
SWIDTH 512 0
DWIDTH 8 0
BBX 8 16 0 -2
BITMAP
18
18
18
18
18
18
18
FF
1F
18
18
18
18
18
18
18
ENDCHAR
STARTCHAR (for_rename)
ENCODING 11119
SWIDTH 512 0
DWIDTH 8 0
BBX 8 16 0 -2
BITMAP
18
18
18
18
18
18
18
FF
FF
18
18
18
18
18
18
18
ENDCHAR
STARTCHAR (for_rename)
ENCODING 11120
SWIDTH 512 0
DWIDTH 8 0
BBX 8 16 0 -2
BITMAP
20
20
40
00
00
00
00
00
00
00
00
00
00
00
00
00
ENDCHAR
STARTCHAR (for_rename)
ENCODING 11121
SWIDTH 512 0
DWIDTH 8 0
BBX 8 16 0 -2
BITMAP
6C
6C
00
00
00
00
00
00
00
00
00
00
00
00
00
00
ENDCHAR
STARTCHAR (for_rename)
ENCODING 11122
SWIDTH 512 0
DWIDTH 8 0
BBX 8 16 0 -2
BITMAP
20
40
60
60
00
00
00
00
00
00
00
00
00
00
00
00
ENDCHAR
STARTCHAR (for_rename)
ENCODING 11123
SWIDTH 512 0
DWIDTH 8 0
BBX 8 16 0 -2
BITMAP
24
48
6C
6C
00
00
00
00
00
00
00
00
00
00
00
00
ENDCHAR
STARTCHAR (for_rename)
ENCODING 11124
SWIDTH 512 0
DWIDTH 8 0
BBX 8 16 0 -2
BITMAP
02
04
08
08
08
08
08
08
08
08
08
08
08
08
04
02
ENDCHAR
STARTCHAR (for_rename)
ENCODING 11125
SWIDTH 512 0
DWIDTH 8 0
BBX 8 16 0 -2
BITMAP
20
10
08
08
08
08
08
08
08
08
08
08
08
08
10
20
ENDCHAR
STARTCHAR (for_rename)
ENCODING 11126
SWIDTH 512 0
DWIDTH 8 0
BBX 8 16 0 -2
BITMAP
02
04
04
08
08
10
10
20
20
10
10
08
08
04
04
02
ENDCHAR
STARTCHAR (for_rename)
ENCODING 11127
SWIDTH 512 0
DWIDTH 8 0
BBX 8 16 0 -2
BITMAP
20
10
10
08
08
04
04
02
02
04
04
08
08
10
10
20
ENDCHAR
STARTCHAR (for_rename)
ENCODING 11128
SWIDTH 512 0
DWIDTH 8 0
BBX 8 16 0 -2
BITMAP
09
09
12
12
12
24
24
48
48
24
24
12
12
12
09
09
ENDCHAR
STARTCHAR (for_rename)
ENCODING 11129
SWIDTH 512 0
DWIDTH 8 0
BBX 8 16 0 -2
BITMAP
48
48
24
24
24
12
12
09
09
12
12
24
24
24
48
48
ENDCHAR
STARTCHAR (for_rename)
ENCODING 11130
SWIDTH 512 0
DWIDTH 8 0
BBX 8 16 0 -2
BITMAP
3E
22
2E
28
28
28
28
28
28
28
28
28
28
28
28
38
ENDCHAR
STARTCHAR (for_rename)
ENCODING 11131
SWIDTH 512 0
DWIDTH 8 0
BBX 8 16 0 -2
BITMAP
0E
0A
0A
0A
0A
0A
0A
0A
0A
0A
0A
0A
0A
3A
22
3E
ENDCHAR
STARTCHAR (for_rename)
ENCODING 11132
SWIDTH 512 0
DWIDTH 8 0
BBX 8 16 0 -2
BITMAP
3E
3C
3C
38
38
30
30
30
30
30
30
38
38
3C
3C
3E
ENDCHAR
STARTCHAR (for_rename)
ENCODING 11133
SWIDTH 512 0
DWIDTH 8 0
BBX 8 16 0 -2
BITMAP
3E
1E
1E
0E
0E
06
06
06
06
06
06
0E
0E
1E
1E
3E
ENDCHAR
STARTCHAR (for_rename)
ENCODING 11134
SWIDTH 512 0
DWIDTH 8 0
BBX 8 16 0 -2
BITMAP
00
00
00
00
00
00
00
7F
00
00
00
00
00
00
00
00
ENDCHAR
STARTCHAR (for_rename)
ENCODING 11300
SWIDTH 1024 0
DWIDTH 16 0
BBX 16 16 0 -2
BITMAP
0000
0000
0000
0000
0000
0000
0000
FFFF
0000
0000
0000
0000
0000
0000
0000
0000
ENDCHAR
STARTCHAR (for_rename)
ENCODING 11301
SWIDTH 1024 0
DWIDTH 16 0
BBX 16 16 0 -2
BITMAP
0000
0000
0000
0000
0000
0000
0000
FFFF
FFFF
0000
0000
0000
0000
0000
0000
0000
ENDCHAR
STARTCHAR (for_rename)
ENCODING 11302
SWIDTH 1024 0
DWIDTH 16 0
BBX 16 16 0 -2
BITMAP
0080
0080
0080
0080
0080
0080
0080
0080
0080
0080
0080
0080
0080
0080
0080
0080
ENDCHAR
STARTCHAR (for_rename)
ENCODING 11303
SWIDTH 1024 0
DWIDTH 16 0
BBX 16 16 0 -2
BITMAP
0180
0180
0180
0180
0180
0180
0180
0180
0180
0180
0180
0180
0180
0180
0180
0180
ENDCHAR
STARTCHAR (for_rename)
ENCODING 11304
SWIDTH 1024 0
DWIDTH 16 0
BBX 16 16 0 -2
BITMAP
0000
0000
0000
0000
0000
0000
0000
7777
0000
0000
0000
0000
0000
0000
0000
0000
ENDCHAR
STARTCHAR (for_rename)
ENCODING 11305
SWIDTH 1024 0
DWIDTH 16 0
BBX 16 16 0 -2
BITMAP
0000
0000
0000
0000
0000
0000
0000
7777
7777
0000
0000
0000
0000
0000
0000
0000
ENDCHAR
STARTCHAR (for_rename)
ENCODING 11306
SWIDTH 1024 0
DWIDTH 16 0
BBX 16 16 0 -2
BITMAP
0080
0080
0080
0000
0080
0080
0080
0000
0080
0080
0080
0000
0080
0080
0080
0000
ENDCHAR
STARTCHAR (for_rename)
ENCODING 11307
SWIDTH 1024 0
DWIDTH 16 0
BBX 16 16 0 -2
BITMAP
0180
0180
0180
0000
0180
0180
0180
0000
0180
0180
0180
0000
0180
0180
0180
0000
ENDCHAR
STARTCHAR (for_rename)
ENCODING 11308
SWIDTH 1024 0
DWIDTH 16 0
BBX 16 16 0 -2
BITMAP
0000
0000
0000
0000
0000
0000
0000
6666
0000
0000
0000
0000
0000
0000
0000
0000
ENDCHAR
STARTCHAR (for_rename)
ENCODING 11309
SWIDTH 1024 0
DWIDTH 16 0
BBX 16 16 0 -2
BITMAP
0000
0000
0000
0000
0000
0000
0000
6666
6666
0000
0000
0000
0000
0000
0000
0000
ENDCHAR
STARTCHAR (for_rename)
ENCODING 11310
SWIDTH 1024 0
DWIDTH 16 0
BBX 16 16 0 -2
BITMAP
0000
0080
0080
0000
0000
0080
0080
0000
0000
0080
0080
0000
0000
0080
0080
0000
ENDCHAR
STARTCHAR (for_rename)
ENCODING 11311
SWIDTH 1024 0
DWIDTH 16 0
BBX 16 16 0 -2
BITMAP
0000
0180
0180
0000
0000
0180
0180
0000
0000
0180
0180
0000
0000
0180
0180
0000
ENDCHAR
STARTCHAR (for_rename)
ENCODING 11312
SWIDTH 1024 0
DWIDTH 16 0
BBX 16 16 0 -2
BITMAP
0000
0000
0000
0000
0000
0000
0000
00FF
0080
0080
0080
0080
0080
0080
0080
0080
ENDCHAR
STARTCHAR (for_rename)
ENCODING 11313
SWIDTH 1024 0
DWIDTH 16 0
BBX 16 16 0 -2
BITMAP
0000
0000
0000
0000
0000
0000
0000
00FF
00FF
0080
0080
0080
0080
0080
0080
0080
ENDCHAR
STARTCHAR (for_rename)
ENCODING 11314
SWIDTH 1024 0
DWIDTH 16 0
BBX 16 16 0 -2
BITMAP
0000
0000
0000
0000
0000
0000
0000
01FF
0180
0180
0180
0180
0180
0180
0180
0180
ENDCHAR
STARTCHAR (for_rename)
ENCODING 11315
SWIDTH 1024 0
DWIDTH 16 0
BBX 16 16 0 -2
BITMAP
0000
0000
0000
0000
0000
0000
0000
01FF
01FF
0180
0180
0180
0180
0180
0180
0180
ENDCHAR
STARTCHAR (for_rename)
ENCODING 11316
SWIDTH 1024 0
DWIDTH 16 0
BBX 16 16 0 -2
BITMAP
0000
0000
0000
0000
0000
0000
0000
FF80
0080
0080
0080
0080
0080
0080
0080
0080
ENDCHAR
STARTCHAR (for_rename)
ENCODING 11317
SWIDTH 1024 0
DWIDTH 16 0
BBX 16 16 0 -2
BITMAP
0000
0000
0000
0000
0000
0000
0000
FF80
FF80
0080
0080
0080
0080
0080
0080
0080
ENDCHAR
STARTCHAR (for_rename)
ENCODING 11318
SWIDTH 1024 0
DWIDTH 16 0
BBX 16 16 0 -2
BITMAP
0000
0000
0000
0000
0000
0000
0000
FF80
0180
0180
0180
0180
0180
0180
0180
0180
ENDCHAR
STARTCHAR (for_rename)
ENCODING 11319
SWIDTH 1024 0
DWIDTH 16 0
BBX 16 16 0 -2
BITMAP
0000
0000
0000
0000
0000
0000
0000
FF80
FF80
0180
0180
0180
0180
0180
0180
0180
ENDCHAR
STARTCHAR (for_rename)
ENCODING 11320
SWIDTH 1024 0
DWIDTH 16 0
BBX 16 16 0 -2
BITMAP
0080
0080
0080
0080
0080
0080
0080
00FF
0000
0000
0000
0000
0000
0000
0000
0000
ENDCHAR
STARTCHAR (for_rename)
ENCODING 11321
SWIDTH 1024 0
DWIDTH 16 0
BBX 16 16 0 -2
BITMAP
0080
0080
0080
0080
0080
0080
0080
00FF
00FF
0000
0000
0000
0000
0000
0000
0000
ENDCHAR
STARTCHAR (for_rename)
ENCODING 11322
SWIDTH 1024 0
DWIDTH 16 0
BBX 16 16 0 -2
BITMAP
0180
0180
0180
0180
0180
0180
0180
01FF
0000
0000
0000
0000
0000
0000
0000
0000
ENDCHAR
STARTCHAR (for_rename)
ENCODING 11323
SWIDTH 1024 0
DWIDTH 16 0
BBX 16 16 0 -2
BITMAP
0180
0180
0180
0180
0180
0180
0180
01FF
01FF
0000
0000
0000
0000
0000
0000
0000
ENDCHAR
STARTCHAR (for_rename)
ENCODING 11324
SWIDTH 1024 0
DWIDTH 16 0
BBX 16 16 0 -2
BITMAP
0080
0080
0080
0080
0080
0080
0080
FF80
0000
0000
0000
0000
0000
0000
0000
0000
ENDCHAR
STARTCHAR (for_rename)
ENCODING 11325
SWIDTH 1024 0
DWIDTH 16 0
BBX 16 16 0 -2
BITMAP
0080
0080
0080
0080
0080
0080
0080
FF80
FF80
0000
0000
0000
0000
0000
0000
0000
ENDCHAR
STARTCHAR (for_rename)
ENCODING 11326
SWIDTH 1024 0
DWIDTH 16 0
BBX 16 16 0 -2
BITMAP
0180
0180
0180
0180
0180
0180
0180
FF80
0000
0000
0000
0000
0000
0000
0000
0000
ENDCHAR
STARTCHAR (for_rename)
ENCODING 11327
SWIDTH 1024 0
DWIDTH 16 0
BBX 16 16 0 -2
BITMAP
0180
0180
0180
0180
0180
0180
0180
FF80
FF80
0000
0000
0000
0000
0000
0000
0000
ENDCHAR
STARTCHAR (for_rename)
ENCODING 11328
SWIDTH 1024 0
DWIDTH 16 0
BBX 16 16 0 -2
BITMAP
0080
0080
0080
0080
0080
0080
0080
00FF
0080
0080
0080
0080
0080
0080
0080
0080
ENDCHAR
STARTCHAR (for_rename)
ENCODING 11329
SWIDTH 1024 0
DWIDTH 16 0
BBX 16 16 0 -2
BITMAP
0080
0080
0080
0080
0080
0080
0080
00FF
00FF
0080
0080
0080
0080
0080
0080
0080
ENDCHAR
STARTCHAR (for_rename)
ENCODING 11330
SWIDTH 1024 0
DWIDTH 16 0
BBX 16 16 0 -2
BITMAP
0180
0180
0180
0180
0180
0180
0180
01FF
0080
0080
0080
0080
0080
0080
0080
0080
ENDCHAR
STARTCHAR (for_rename)
ENCODING 11331
SWIDTH 1024 0
DWIDTH 16 0
BBX 16 16 0 -2
BITMAP
0080
0080
0080
0080
0080
0080
0080
01FF
0180
0180
0180
0180
0180
0180
0180
0180
ENDCHAR
STARTCHAR (for_rename)
ENCODING 11332
SWIDTH 1024 0
DWIDTH 16 0
BBX 16 16 0 -2
BITMAP
0180
0180
0180
0180
0180
0180
0180
01FF
0180
0180
0180
0180
0180
0180
0180
0180
ENDCHAR
STARTCHAR (for_rename)
ENCODING 11333
SWIDTH 1024 0
DWIDTH 16 0
BBX 16 16 0 -2
BITMAP
0180
0180
0180
0180
0180
0180
0180
01FF
01FF
0080
0080
0080
0080
0080
0080
0080
ENDCHAR
STARTCHAR (for_rename)
ENCODING 11334
SWIDTH 1024 0
DWIDTH 16 0
BBX 16 16 0 -2
BITMAP
0080
0080
0080
0080
0080
0080
0080
01FF
01FF
0180
0180
0180
0180
0180
0180
0180
ENDCHAR
STARTCHAR (for_rename)
ENCODING 11335
SWIDTH 1024 0
DWIDTH 16 0
BBX 16 16 0 -2
BITMAP
0180
0180
0180
0180
0180
0180
0180
01FF
01FF
0180
0180
0180
0180
0180
0180
0180
ENDCHAR
STARTCHAR (for_rename)
ENCODING 11336
SWIDTH 1024 0
DWIDTH 16 0
BBX 16 16 0 -2
BITMAP
0080
0080
0080
0080
0080
0080
0080
FF80
0080
0080
0080
0080
0080
0080
0080
0080
ENDCHAR
STARTCHAR (for_rename)
ENCODING 11337
SWIDTH 1024 0
DWIDTH 16 0
BBX 16 16 0 -2
BITMAP
0080
0080
0080
0080
0080
0080
0080
FF80
FF80
0080
0080
0080
0080
0080
0080
0080
ENDCHAR
STARTCHAR (for_rename)
ENCODING 11338
SWIDTH 1024 0
DWIDTH 16 0
BBX 16 16 0 -2
BITMAP
0180
0180
0180
0180
0180
0180
0180
FF80
0080
0080
0080
0080
0080
0080
0080
0080
ENDCHAR
STARTCHAR (for_rename)
ENCODING 11339
SWIDTH 1024 0
DWIDTH 16 0
BBX 16 16 0 -2
BITMAP
0080
0080
0080
0080
0080
0080
0080
FF80
0180
0180
0180
0180
0180
0180
0180
0180
ENDCHAR
STARTCHAR (for_rename)
ENCODING 11340
SWIDTH 1024 0
DWIDTH 16 0
BBX 16 16 0 -2
BITMAP
0180
0180
0180
0180
0180
0180
0180
FF80
0180
0180
0180
0180
0180
0180
0180
0180
ENDCHAR
STARTCHAR (for_rename)
ENCODING 11341
SWIDTH 1024 0
DWIDTH 16 0
BBX 16 16 0 -2
BITMAP
0180
0180
0180
0180
0180
0180
0180
FF80
FF80
0080
0080
0080
0080
0080
0080
0080
ENDCHAR
STARTCHAR (for_rename)
ENCODING 11342
SWIDTH 1024 0
DWIDTH 16 0
BBX 16 16 0 -2
BITMAP
0080
0080
0080
0080
0080
0080
0080
FF80
FF80
0180
0180
0180
0180
0180
0180
0180
ENDCHAR
STARTCHAR (for_rename)
ENCODING 11343
SWIDTH 1024 0
DWIDTH 16 0
BBX 16 16 0 -2
BITMAP
0180
0180
0180
0180
0180
0180
0180
FF80
FF80
0180
0180
0180
0180
0180
0180
0180
ENDCHAR
STARTCHAR (for_rename)
ENCODING 11344
SWIDTH 1024 0
DWIDTH 16 0
BBX 16 16 0 -2
BITMAP
0000
0000
0000
0000
0000
0000
0000
FFFF
0080
0080
0080
0080
0080
0080
0080
0080
ENDCHAR
STARTCHAR (for_rename)
ENCODING 11345
SWIDTH 1024 0
DWIDTH 16 0
BBX 16 16 0 -2
BITMAP
0000
0000
0000
0000
0000
0000
0000
FFFF
FF80
0080
0080
0080
0080
0080
0080
0080
ENDCHAR
STARTCHAR (for_rename)
ENCODING 11346
SWIDTH 1024 0
DWIDTH 16 0
BBX 16 16 0 -2
BITMAP
0000
0000
0000
0000
0000
0000
0000
FFFF
00FF
0080
0080
0080
0080
0080
0080
0080
ENDCHAR
STARTCHAR (for_rename)
ENCODING 11347
SWIDTH 1024 0
DWIDTH 16 0
BBX 16 16 0 -2
BITMAP
0000
0000
0000
0000
0000
0000
0000
FFFF
FFFF
0080
0080
0080
0080
0080
0080
0080
ENDCHAR
STARTCHAR (for_rename)
ENCODING 11348
SWIDTH 1024 0
DWIDTH 16 0
BBX 16 16 0 -2
BITMAP
0000
0000
0000
0000
0000
0000
0000
FFFF
0180
0180
0180
0180
0180
0180
0180
0180
ENDCHAR
STARTCHAR (for_rename)
ENCODING 11349
SWIDTH 1024 0
DWIDTH 16 0
BBX 16 16 0 -2
BITMAP
0000
0000
0000
0000
0000
0000
0000
FFFF
FF80
0180
0180
0180
0180
0180
0180
0180
ENDCHAR
STARTCHAR (for_rename)
ENCODING 11350
SWIDTH 1024 0
DWIDTH 16 0
BBX 16 16 0 -2
BITMAP
0000
0000
0000
0000
0000
0000
0000
FFFF
01FF
0180
0180
0180
0180
0180
0180
0180
ENDCHAR
STARTCHAR (for_rename)
ENCODING 11351
SWIDTH 1024 0
DWIDTH 16 0
BBX 16 16 0 -2
BITMAP
0000
0000
0000
0000
0000
0000
0000
FFFF
FFFF
0180
0180
0180
0180
0180
0180
0180
ENDCHAR
STARTCHAR (for_rename)
ENCODING 11352
SWIDTH 1024 0
DWIDTH 16 0
BBX 16 16 0 -2
BITMAP
0080
0080
0080
0080
0080
0080
0080
FFFF
0000
0000
0000
0000
0000
0000
0000
0000
ENDCHAR
STARTCHAR (for_rename)
ENCODING 11353
SWIDTH 1024 0
DWIDTH 16 0
BBX 16 16 0 -2
BITMAP
0080
0080
0080
0080
0080
0080
0080
FFFF
FF80
0000
0000
0000
0000
0000
0000
0000
ENDCHAR
STARTCHAR (for_rename)
ENCODING 11354
SWIDTH 1024 0
DWIDTH 16 0
BBX 16 16 0 -2
BITMAP
0080
0080
0080
0080
0080
0080
0080
FFFF
00FF
0000
0000
0000
0000
0000
0000
0000
ENDCHAR
STARTCHAR (for_rename)
ENCODING 11355
SWIDTH 1024 0
DWIDTH 16 0
BBX 16 16 0 -2
BITMAP
0080
0080
0080
0080
0080
0080
0080
FFFF
FFFF
0000
0000
0000
0000
0000
0000
0000
ENDCHAR
STARTCHAR (for_rename)
ENCODING 11356
SWIDTH 1024 0
DWIDTH 16 0
BBX 16 16 0 -2
BITMAP
0180
0180
0180
0180
0180
0180
0180
FFFF
0000
0000
0000
0000
0000
0000
0000
0000
ENDCHAR
STARTCHAR (for_rename)
ENCODING 11357
SWIDTH 1024 0
DWIDTH 16 0
BBX 16 16 0 -2
BITMAP
0180
0180
0180
0180
0180
0180
0180
FFFF
FF80
0000
0000
0000
0000
0000
0000
0000
ENDCHAR
STARTCHAR (for_rename)
ENCODING 11358
SWIDTH 1024 0
DWIDTH 16 0
BBX 16 16 0 -2
BITMAP
0180
0180
0180
0180
0180
0180
0180
FFFF
01FF
0000
0000
0000
0000
0000
0000
0000
ENDCHAR
STARTCHAR (for_rename)
ENCODING 11359
SWIDTH 1024 0
DWIDTH 16 0
BBX 16 16 0 -2
BITMAP
0180
0180
0180
0180
0180
0180
0180
FFFF
FFFF
0000
0000
0000
0000
0000
0000
0000
ENDCHAR
STARTCHAR (for_rename)
ENCODING 11360
SWIDTH 1024 0
DWIDTH 16 0
BBX 16 16 0 -2
BITMAP
0080
0080
0080
0080
0080
0080
0080
FFFF
0080
0080
0080
0080
0080
0080
0080
0080
ENDCHAR
STARTCHAR (for_rename)
ENCODING 11361
SWIDTH 1024 0
DWIDTH 16 0
BBX 16 16 0 -2
BITMAP
0080
0080
0080
0080
0080
0080
0080
FFFF
FF80
0080
0080
0080
0080
0080
0080
0080
ENDCHAR
STARTCHAR (for_rename)
ENCODING 11362
SWIDTH 1024 0
DWIDTH 16 0
BBX 16 16 0 -2
BITMAP
0080
0080
0080
0080
0080
0080
0080
FFFF
00FF
0080
0080
0080
0080
0080
0080
0080
ENDCHAR
STARTCHAR (for_rename)
ENCODING 11363
SWIDTH 1024 0
DWIDTH 16 0
BBX 16 16 0 -2
BITMAP
0080
0080
0080
0080
0080
0080
0080
FFFF
FFFF
0080
0080
0080
0080
0080
0080
0080
ENDCHAR
STARTCHAR (for_rename)
ENCODING 11364
SWIDTH 1024 0
DWIDTH 16 0
BBX 16 16 0 -2
BITMAP
0180
0180
0180
0180
0180
0180
0180
FFFF
0080
0080
0080
0080
0080
0080
0080
0080
ENDCHAR
STARTCHAR (for_rename)
ENCODING 11365
SWIDTH 1024 0
DWIDTH 16 0
BBX 16 16 0 -2
BITMAP
0080
0080
0080
0080
0080
0080
0080
FFFF
0180
0180
0180
0180
0180
0180
0180
0180
ENDCHAR
STARTCHAR (for_rename)
ENCODING 11366
SWIDTH 1024 0
DWIDTH 16 0
BBX 16 16 0 -2
BITMAP
0180
0180
0180
0180
0180
0180
0180
FFFF
0180
0180
0180
0180
0180
0180
0180
0180
ENDCHAR
STARTCHAR (for_rename)
ENCODING 11367
SWIDTH 1024 0
DWIDTH 16 0
BBX 16 16 0 -2
BITMAP
0180
0180
0180
0180
0180
0180
0180
FFFF
FF80
0080
0080
0080
0080
0080
0080
0080
ENDCHAR
STARTCHAR (for_rename)
ENCODING 11368
SWIDTH 1024 0
DWIDTH 16 0
BBX 16 16 0 -2
BITMAP
0180
0180
0180
0180
0180
0180
0180
FFFF
01FF
0080
0080
0080
0080
0080
0080
0080
ENDCHAR
STARTCHAR (for_rename)
ENCODING 11369
SWIDTH 1024 0
DWIDTH 16 0
BBX 16 16 0 -2
BITMAP
0080
0080
0080
0080
0080
0080
0080
FFFF
FF80
0180
0180
0180
0180
0180
0180
0180
ENDCHAR
STARTCHAR (for_rename)
ENCODING 11370
SWIDTH 1024 0
DWIDTH 16 0
BBX 16 16 0 -2
BITMAP
0080
0080
0080
0080
0080
0080
0080
FFFF
01FF
0180
0180
0180
0180
0180
0180
0180
ENDCHAR
STARTCHAR (for_rename)
ENCODING 11371
SWIDTH 1024 0
DWIDTH 16 0
BBX 16 16 0 -2
BITMAP
0180
0180
0180
0180
0180
0180
0180
FFFF
FFFF
0080
0080
0080
0080
0080
0080
0080
ENDCHAR
STARTCHAR (for_rename)
ENCODING 11372
SWIDTH 1024 0
DWIDTH 16 0
BBX 16 16 0 -2
BITMAP
0080
0080
0080
0080
0080
0080
0080
FFFF
FFFF
0180
0180
0180
0180
0180
0180
0180
ENDCHAR
STARTCHAR (for_rename)
ENCODING 11373
SWIDTH 1024 0
DWIDTH 16 0
BBX 16 16 0 -2
BITMAP
0180
0180
0180
0180
0180
0180
0180
FFFF
FF80
0180
0180
0180
0180
0180
0180
0180
ENDCHAR
STARTCHAR (for_rename)
ENCODING 11374
SWIDTH 1024 0
DWIDTH 16 0
BBX 16 16 0 -2
BITMAP
0180
0180
0180
0180
0180
0180
0180
FFFF
01FF
0180
0180
0180
0180
0180
0180
0180
ENDCHAR
STARTCHAR (for_rename)
ENCODING 11375
SWIDTH 1024 0
DWIDTH 16 0
BBX 16 16 0 -2
BITMAP
0180
0180
0180
0180
0180
0180
0180
FFFF
FFFF
0180
0180
0180
0180
0180
0180
0180
ENDCHAR
STARTCHAR (for_rename)
ENCODING 11553
SWIDTH 1024 0
DWIDTH 16 0
BBX 16 16 0 -2
BITMAP
03E0
0C18
1004
2082
2182
4281
4081
4081
4081
4081
4081
2082
21C2
1004
0C18
03E0
ENDCHAR
STARTCHAR (for_rename)
ENCODING 11554
SWIDTH 1024 0
DWIDTH 16 0
BBX 16 16 0 -2
BITMAP
03E0
0C18
1004
23E2
2412
4809
4809
4009
4071
4381
4401
2802
2FFA
1004
0C18
03E0
ENDCHAR
STARTCHAR (for_rename)
ENCODING 11555
SWIDTH 1024 0
DWIDTH 16 0
BBX 16 16 0 -2
BITMAP
03E0
0C18
1004
23E2
2412
4809
4009
41F1
4009
4009
4809
2412
23E2
1004
0C18
03E0
ENDCHAR
STARTCHAR (for_rename)
ENCODING 11556
SWIDTH 1024 0
DWIDTH 16 0
BBX 16 16 0 -2
BITMAP
03E0
0C18
1004
2022
2062
40A1
4121
4221
4421
4821
4FF9
2022
2022
1004
0C18
03E0
ENDCHAR
STARTCHAR (for_rename)
ENCODING 11557
SWIDTH 1024 0
DWIDTH 16 0
BBX 16 16 0 -2
BITMAP
03E0
0C18
1004
27FA
2402
4401
47E1
4411
4009
4009
4809
2412
23E2
1004
0C18
03E0
ENDCHAR
STARTCHAR (for_rename)
ENCODING 11558
SWIDTH 1024 0
DWIDTH 16 0
BBX 16 16 0 -2
BITMAP
03E0
0C18
1004
23E2
2412
4809
4BE1
4C11
4809
4809
4809
2412
23E2
1004
0C18
03E0
ENDCHAR
STARTCHAR (for_rename)
ENCODING 11559
SWIDTH 1024 0
DWIDTH 16 0
BBX 16 16 0 -2
BITMAP
03E0
0C18
1004
2FFA
200A
4011
4061
4081
4081
4081
4081
2082
2082
1004
0C18
03E0
ENDCHAR
STARTCHAR (for_rename)
ENCODING 11560
SWIDTH 1024 0
DWIDTH 16 0
BBX 16 16 0 -2
BITMAP
03E0
0C18
1004
23E2
2412
4809
4809
47F1
4809
4809
4809
2412
23E2
1004
0C18
03E0
ENDCHAR
STARTCHAR (for_rename)
ENCODING 11561
SWIDTH 1024 0
DWIDTH 16 0
BBX 16 16 0 -2
BITMAP
03E0
0C18
1004
23E2
2412
4809
4809
4419
43E9
4009
4809
2412
23E2
1004
0C18
03E0
ENDCHAR
STARTCHAR (for_rename)
ENCODING 11562
SWIDTH 1024 0
DWIDTH 16 0
BBX 16 16 0 -2
BITMAP
03E0
0C18
1004
2472
2C8A
5489
4489
4489
4489
4489
4489
248A
2E72
1004
0C18
03E0
ENDCHAR
STARTCHAR (for_rename)
ENCODING 11563
SWIDTH 1024 0
DWIDTH 16 0
BBX 16 16 0 -2
BITMAP
03E0
0C18
1004
2212
2632
4A51
4211
4211
4211
4211
4211
2212
273A
1004
0C18
03E0
ENDCHAR
STARTCHAR (for_rename)
ENCODING 11564
SWIDTH 1024 0
DWIDTH 16 0
BBX 16 16 0 -2
BITMAP
03E0
0C18
1004
2472
2C8A
5489
4409
4411
4421
4441
4441
2482
2EFA
1004
0C18
03E0
ENDCHAR
STARTCHAR (for_rename)
ENCODING 11565
SWIDTH 1024 0
DWIDTH 16 0
BBX 16 16 0 -2
BITMAP
03E0
0C18
1004
2472
2C8A
5489
4409
4471
4409
4409
4489
248A
2E72
1004
0C18
03E0
ENDCHAR
STARTCHAR (for_rename)
ENCODING 11566
SWIDTH 1024 0
DWIDTH 16 0
BBX 16 16 0 -2
BITMAP
03E0
0C18
1004
2412
2C32
5451
4451
4491
4491
4511
45FD
2412
2E12
1004
0C18
03E0
ENDCHAR
STARTCHAR (for_rename)
ENCODING 11567
SWIDTH 1024 0
DWIDTH 16 0
BBX 16 16 0 -2
BITMAP
03E0
0C18
1004
24FA
2C82
5481
44F1
4489
4409
4409
4489
248A
2E72
1004
0C18
03E0
ENDCHAR
STARTCHAR (for_rename)
ENCODING 11568
SWIDTH 1024 0
DWIDTH 16 0
BBX 16 16 0 -2
BITMAP
03E0
0C18
1004
2472
2C8A
5489
4481
44F1
4489
4489
4489
248A
2E72
1004
0C18
03E0
ENDCHAR
STARTCHAR (for_rename)
ENCODING 11569
SWIDTH 1024 0
DWIDTH 16 0
BBX 16 16 0 -2
BITMAP
03E0
0C18
1004
24FA
2C0A
5411
4411
4421
4421
4421
4421
2422
2E22
1004
0C18
03E0
ENDCHAR
STARTCHAR (for_rename)
ENCODING 11570
SWIDTH 1024 0
DWIDTH 16 0
BBX 16 16 0 -2
BITMAP
03E0
0C18
1004
2472
2C8A
5489
4489
4471
4489
4489
4489
248A
2E72
1004
0C18
03E0
ENDCHAR
STARTCHAR (for_rename)
ENCODING 11571
SWIDTH 1024 0
DWIDTH 16 0
BBX 16 16 0 -2
BITMAP
03E0
0C18
1004
2472
2C8A
5489
4489
4489
4479
4409
4489
248A
2E72
1004
0C18
03E0
ENDCHAR
STARTCHAR (for_rename)
ENCODING 11572
SWIDTH 1024 0
DWIDTH 16 0
BBX 16 16 0 -2
BITMAP
03E0
0C18
1004
2632
294A
4949
4149
4249
4249
4449
4449
284A
2F32
1004
0C18
03E0
ENDCHAR
STARTCHAR (for_rename)
ENCODING 11573
SWIDTH 1024 0
DWIDTH 16 0
BBX 16 16 0 -2
BITMAP
0000
01C0
0080
0080
0080
0080
0080
0080
0080
0080
0080
0080
0080
0080
01C0
0000
ENDCHAR
STARTCHAR (for_rename)
ENCODING 11574
SWIDTH 1024 0
DWIDTH 16 0
BBX 16 16 0 -2
BITMAP
0000
07F0
0220
0220
0220
0220
0220
0220
0220
0220
0220
0220
0220
0220
07F0
0000
ENDCHAR
STARTCHAR (for_rename)
ENCODING 11575
SWIDTH 1024 0
DWIDTH 16 0
BBX 16 16 0 -2
BITMAP
0000
0FF8
0490
0490
0490
0490
0490
0490
0490
0490
0490
0490
0490
0490
0FF8
0000
ENDCHAR
STARTCHAR (for_rename)
ENCODING 11576
SWIDTH 1024 0
DWIDTH 16 0
BBX 16 16 0 -2
BITMAP
0000
3E0E
1404
1404
1208
1208
1208
1110
1110
1110
10A0
10A0
10A0
1040
3840
0000
ENDCHAR
STARTCHAR (for_rename)
ENCODING 11577
SWIDTH 1024 0
DWIDTH 16 0
BBX 16 16 0 -2
BITMAP
0000
1C1C
0808
0808
0410
0410
0410
0220
0220
0220
0140
0140
0140
0080
0080
0000
ENDCHAR
STARTCHAR (for_rename)
ENCODING 11578
SWIDTH 1024 0
DWIDTH 16 0
BBX 16 16 0 -2
BITMAP
0000
383E
1014
1014
0824
0824
0824
0444
0444
0444
0284
0284
0284
0104
010E
0000
ENDCHAR
STARTCHAR (for_rename)
ENCODING 11579
SWIDTH 1024 0
DWIDTH 16 0
BBX 16 16 0 -2
BITMAP
0000
71FE
20A4
20A4
20A4
1124
1124
1124
1124
0A24
0A24
0A24
0A24
0424
047E
0000
ENDCHAR
STARTCHAR (for_rename)
ENCODING 11580
SWIDTH 1024 0
DWIDTH 16 0
BBX 16 16 0 -2
BITMAP
0000
71FF
20AA
20AA
20AA
112A
112A
112A
112A
0A2A
0A2A
0A2A
0A2A
042A
047F
0000
ENDCHAR
STARTCHAR (for_rename)
ENCODING 11581
SWIDTH 1024 0
DWIDTH 16 0
BBX 16 16 0 -2
BITMAP
0000
3E0E
1404
1208
1110
1110
10A0
1040
1040
10A0
1110
1110
1208
1404
3E0E
0000
ENDCHAR
STARTCHAR (for_rename)
ENCODING 11582
SWIDTH 1024 0
DWIDTH 16 0
BBX 16 16 0 -2
BITMAP
0000
380E
1004
0808
0410
0220
0140
0080
0080
0140
0220
0410
0808
1004
380E
0000
ENDCHAR
STARTCHAR (for_rename)
ENCODING 11584
SWIDTH 1024 0
DWIDTH 16 0
BBX 16 16 0 -2
BITMAP
3E00
0100
0000
3C00
0000
0000
7E00
0100
0000
0022
0022
0022
0022
0002
0004
0018
ENDCHAR
STARTCHAR (for_rename)
ENCODING 11585
SWIDTH 1024 0
DWIDTH 16 0
BBX 16 16 0 -2
BITMAP
1000
1000
7F00
0800
0800
7F00
0400
0400
0400
007E
0042
0042
0042
0042
0042
007E
ENDCHAR
STARTCHAR (for_rename)
ENCODING 11586
SWIDTH 1024 0
DWIDTH 16 0
BBX 16 16 0 -2
BITMAP
2000
2079
7F01
2102
2202
200C
1E70
0000
0020
07C0
0080
0080
0FF0
0080
0100
0600
ENDCHAR
STARTCHAR (for_rename)
ENCODING 11587
SWIDTH 1024 0
DWIDTH 16 0
BBX 16 16 0 -2
BITMAP
0200
1200
0A00
047E
0400
0A00
3000
0000
0000
2008
2028
3028
2C29
2229
204A
208C
ENDCHAR
STARTCHAR (for_rename)
ENCODING 11588
SWIDTH 1024 0
DWIDTH 16 0
BBX 16 16 0 -2
BITMAP
101E
1F00
2100
423F
0201
0401
0A82
329C
0000
0000
0100
0100
0240
0220
0460
0F90
ENDCHAR
STARTCHAR (for_rename)
ENCODING 11589
SWIDTH 1024 0
DWIDTH 16 0
BBX 16 16 0 -2
BITMAP
1000
1000
1C00
1300
1080
1000
1000
1000
0000
0078
0001
0001
0002
0002
000C
0070
ENDCHAR
STARTCHAR (for_rename)
ENCODING 11590
SWIDTH 1024 0
DWIDTH 16 0
BBX 16 16 0 -2
BITMAP
7F00
0100
0A00
0C7F
1000
1000
6000
0000
0080
0280
0280
0290
0290
0290
04A0
08C0
ENDCHAR
STARTCHAR (for_rename)
ENCODING 11591
SWIDTH 1024 0
DWIDTH 16 0
BBX 16 16 0 -2
BITMAP
0810
141F
2221
4242
0102
0104
0088
0030
2000
3C00
2414
5414
09D4
0815
1026
6044
ENDCHAR
STARTCHAR (for_rename)
ENCODING 11592
SWIDTH 1024 0
DWIDTH 16 0
BBX 16 16 0 -2
BITMAP
2200
2200
2229
2229
2229
0402
181C
0000
0000
2008
2028
3828
2629
2129
204A
208C
ENDCHAR
STARTCHAR (for_rename)
ENCODING 11593
SWIDTH 1024 0
DWIDTH 16 0
BBX 16 16 0 -2
BITMAP
3F00
2100
2129
0129
0129
0202
1C1C
0000
0200
0200
0200
0380
0260
0210
0200
0200
ENDCHAR
STARTCHAR (for_rename)
ENCODING 11594
SWIDTH 1024 0
DWIDTH 16 0
BBX 16 16 0 -2
BITMAP
1000
103F
7F21
1121
2121
2121
463F
0000
0000
2200
2200
2200
227E
2200
0400
1800
ENDCHAR
STARTCHAR (for_rename)
ENCODING 11595
SWIDTH 1024 0
DWIDTH 16 0
BBX 16 16 0 -2
BITMAP
2500
2500
2000
3800
2600
2100
2000
2000
0008
0028
0028
0028
0029
0029
004A
008C
ENDCHAR
STARTCHAR (for_rename)
ENCODING 11596
SWIDTH 1024 0
DWIDTH 16 0
BBX 16 16 0 -2
BITMAP
2000
2078
7F01
2101
2202
2402
200C
1E70
0000
0200
0200
0380
0260
0210
0200
0200
ENDCHAR
STARTCHAR (for_rename)
ENCODING 11597
SWIDTH 1024 0
DWIDTH 16 0
BBX 16 16 0 -2
BITMAP
14C0
1520
1520
22C0
221F
2200
4100
0000
2008
2188
7C08
242E
2829
2028
2048
1988
ENDCHAR
STARTCHAR (for_rename)
ENCODING 11598
SWIDTH 1024 0
DWIDTH 16 0
BBX 16 16 0 -2
BITMAP
3E22
0122
0022
3C22
0022
0002
7E04
0118
0000
1544
1554
1414
22D4
2215
2226
4144
ENDCHAR
STARTCHAR (for_rename)
ENCODING 11599
SWIDTH 1024 0
DWIDTH 16 0
BBX 16 16 0 -2
BITMAP
00C0
0920
1520
24C0
421F
0100
0100
0080
0000
0E50
0050
0000
0E20
0040
0180
0E00
ENDCHAR
STARTCHAR (for_rename)
ENCODING 11600
SWIDTH 1024 0
DWIDTH 16 0
BBX 16 16 0 -2
BITMAP
0000
0000
0000
0000
0000
2A54
152A
152A
152A
152A
152A
152A
152A
152A
0000
0000
ENDCHAR
STARTCHAR (for_rename)
ENCODING 11601
SWIDTH 1024 0
DWIDTH 16 0
BBX 16 16 0 -2
BITMAP
0000
0000
0000
0000
0000
1CB6
2249
4149
4049
4049
4049
4149
2249
1C49
0000
0000
ENDCHAR
STARTCHAR (for_rename)
ENCODING 11602
SWIDTH 1024 0
DWIDTH 16 0
BBX 16 16 0 -2
BITMAP
0000
2000
2000
2000
2000
22B6
2449
2849
3049
2849
2849
2449
2249
2149
0000
0000
ENDCHAR
STARTCHAR (for_rename)
ENCODING 11603
SWIDTH 1024 0
DWIDTH 16 0
BBX 16 16 0 -2
BITMAP
0000
0000
0000
0000
0000
5B1F
24A2
24A2
24A2
249C
24A0
249E
24A1
24A1
0021
001E
ENDCHAR
STARTCHAR (for_rename)
ENCODING 11604
SWIDTH 1024 0
DWIDTH 16 0
BBX 16 16 0 -2
BITMAP
0000
2000
2000
2000
2000
223E
2444
2844
3044
2838
2840
243C
2242
2142
0042
003C
ENDCHAR
STARTCHAR (for_rename)
ENCODING 11605
SWIDTH 1024 0
DWIDTH 16 0
BBX 16 16 0 -2
BITMAP
0000
0000
0000
0000
0000
1C1C
2222
4141
4040
4040
4040
4141
2222
1C1C
0000
0000
ENDCHAR
STARTCHAR (for_rename)
ENCODING 11606
SWIDTH 1024 0
DWIDTH 16 0
BBX 16 16 0 -2
BITMAP
0006
0009
0001
0006
0008
5DC8
222F
2220
2220
2220
2220
2220
2220
2220
0000
0000
ENDCHAR
STARTCHAR (for_rename)
ENCODING 11615
SWIDTH 1024 0
DWIDTH 16 0
BBX 16 16 0 -2
BITMAP
0005
7F05
0804
497F
4944
4944
2A45
2A75
0855
7F55
0852
0852
0892
08B5
0885
0889
ENDCHAR
STARTCHAR (for_rename)
ENCODING 11616
SWIDTH 1024 0
DWIDTH 16 0
BBX 16 16 0 -2
BITMAP
0009
0009
0012
0000
0000
0000
0000
0000
0000
0000
0000
0000
0000
0000
0000
0000
ENDCHAR
STARTCHAR (for_rename)
ENCODING 11617
SWIDTH 1024 0
DWIDTH 16 0
BBX 16 16 0 -2
BITMAP
0000
0000
0000
0000
0000
0000
0000
0000
0000
0000
0000
0000
0000
2400
2400
4800
ENDCHAR
STARTCHAR (for_rename)
ENCODING 11618
SWIDTH 1024 0
DWIDTH 16 0
BBX 16 16 0 -2
BITMAP
0000
4100
6100
5100
5100
5130
4948
4948
4948
4948
4548
4548
4548
434B
4133
0000
ENDCHAR
STARTCHAR (for_rename)
ENCODING 11619
SWIDTH 1024 0
DWIDTH 16 0
BBX 16 16 0 -2
BITMAP
0000
4422
4422
4824
4824
5028
5028
6030
5028
5028
4824
4824
4422
45A2
45A1
0000
ENDCHAR
STARTCHAR (for_rename)
ENCODING 11620
SWIDTH 1024 0
DWIDTH 16 0
BBX 16 16 0 -2
BITMAP
0000
7DE8
1108
1108
1108
1108
1108
11E8
1108
1108
1108
1108
1108
1108
11EF
0000
ENDCHAR
STARTCHAR (for_rename)
ENCODING 11621
SWIDTH 1024 0
DWIDTH 16 0
BBX 16 16 0 -2
BITMAP
03E0
0C18
1004
2082
2082
4081
4081
40F9
4081
4081
4081
2082
2FFA
1004
0C18
03E0
ENDCHAR
STARTCHAR (for_rename)
ENCODING 11622
SWIDTH 1024 0
DWIDTH 16 0
BBX 16 16 0 -2
BITMAP
03E0
0C18
1004
2082
2082
4FF9
4889
4889
4889
4889
4FF9
2082
2082
1004
0C18
03E0
ENDCHAR
STARTCHAR (for_rename)
ENCODING 11623
SWIDTH 1024 0
DWIDTH 16 0
BBX 16 16 0 -2
BITMAP
03E0
0C18
1004
2FFA
2082
4081
40C1
40B1
4089
4081
4081
2082
2082
1004
0C18
03E0
ENDCHAR
STARTCHAR (for_rename)
ENCODING 11624
SWIDTH 1024 0
DWIDTH 16 0
BBX 16 16 0 -2
BITMAP
03E0
0C18
1004
2102
2102
4FF9
4201
4201
45F1
4441
4841
2042
23FA
1004
0C18
03E0
ENDCHAR
STARTCHAR (for_rename)
ENCODING 11625
SWIDTH 1024 0
DWIDTH 16 0
BBX 16 16 0 -2
BITMAP
03E0
0C18
1004
2102
2102
4FF9
4201
4201
45F9
4509
4909
210A
21FA
1004
0C18
03E0
ENDCHAR
STARTCHAR (for_rename)
ENCODING 11626
SWIDTH 1024 0
DWIDTH 16 0
BBX 16 16 0 -2
BITMAP
1424
24A2
24A2
24FA
5FA1
44A1
4D21
4E21
55FD
5421
4471
44A9
2526
2422
2422
1424
ENDCHAR
STARTCHAR (for_rename)
ENCODING 11627
SWIDTH 1024 0
DWIDTH 16 0
BBX 16 16 0 -2
BITMAP
1084
2082
2082
2FFA
4101
4101
41F1
4311
4511
45F1
4911
4111
21F2
2112
2112
1134
ENDCHAR
STARTCHAR (for_rename)
ENCODING 11628
SWIDTH 1024 0
DWIDTH 16 0
BBX 16 16 0 -2
BITMAP
1244
2252
224A
2442
45F9
4841
4841
5441
4441
4441
4421
4421
242A
242A
241A
140C
ENDCHAR
STARTCHAR (for_rename)
ENCODING 11629
SWIDTH 1024 0
DWIDTH 16 0
BBX 16 16 0 -2
BITMAP
0744
0524
7504
5504
5548
5729
5509
751F
5500
5520
572F
5529
7529
0529
0929
134F
ENDCHAR
STARTCHAR (for_rename)
ENCODING 11630
SWIDTH 1024 0
DWIDTH 16 0
BBX 16 16 0 -2
BITMAP
0800
087F
0804
0804
7F04
0804
0824
0827
1424
1424
1424
1424
2224
2224
2224
417F
ENDCHAR
STARTCHAR (for_rename)
ENCODING 11631
SWIDTH 1024 0
DWIDTH 16 0
BBX 16 16 0 -2
BITMAP
0008
07B0
7297
5295
5295
52BD
5495
7595
503D
5055
5795
5495
7495
0495
0495
0797
ENDCHAR
STARTCHAR (for_rename)
ENCODING 11632
SWIDTH 1024 0
DWIDTH 16 0
BBX 16 16 0 -2
BITMAP
0000
0000
1000
3800
1000
0000
7FFF
0000
0000
7FFF
0000
0004
000E
0004
0000
0000
ENDCHAR
STARTCHAR (for_rename)
ENCODING 11633
SWIDTH 1024 0
DWIDTH 16 0
BBX 16 16 0 -2
BITMAP
0000
0000
0000
0000
7FFF
0000
0000
7FFF
0000
0000
7FFF
0000
0000
0000
0000
0000
ENDCHAR
STARTCHAR (for_rename)
ENCODING 11634
SWIDTH 1024 0
DWIDTH 16 0
BBX 16 16 0 -2
BITMAP
0000
0060
0090
0090
0080
0080
0080
0080
0080
0080
0080
0080
0480
0480
0300
0000
ENDCHAR
STARTCHAR (for_rename)
ENCODING 11635
SWIDTH 1024 0
DWIDTH 16 0
BBX 16 16 0 -2
BITMAP
0000
0060
0090
0090
0080
03E0
0490
0888
0888
0490
03E0
0080
0480
0480
0300
0000
ENDCHAR
STARTCHAR (for_rename)
ENCODING 11636
SWIDTH 1024 0
DWIDTH 16 0
BBX 16 16 0 -2
BITMAP
0000
3FFE
1002
0800
0400
0200
0100
0080
0080
0100
0200
0400
0800
1002
3FFE
0000
ENDCHAR
STARTCHAR (for_rename)
ENCODING 11637
SWIDTH 1024 0
DWIDTH 16 0
BBX 16 16 0 -2
BITMAP
0000
00FE
0080
0080
0080
0100
0100
0100
0100
1200
3200
4A00
0A00
0400
0400
0000
ENDCHAR
STARTCHAR (for_rename)
ENCODING 11638
SWIDTH 1024 0
DWIDTH 16 0
BBX 16 16 0 -2
BITMAP
0000
0080
0080
0080
0080
0080
0080
0080
0080
0080
0080
0080
0080
0080
3FFE
0000
ENDCHAR
STARTCHAR (for_rename)
ENCODING 11639
SWIDTH 1024 0
DWIDTH 16 0
BBX 16 16 0 -2
BITMAP
0000
0000
0002
0004
0008
0010
0020
0040
0080
0100
0200
0400
0800
1000
3FFE
0000
ENDCHAR
STARTCHAR (for_rename)
ENCODING 11640
SWIDTH 1024 0
DWIDTH 16 0
BBX 16 16 0 -2
BITMAP
0000
2000
2000
2000
2000
2000
2000
2000
2000
2000
2000
2000
2000
2000
3FFE
0000
ENDCHAR
STARTCHAR (for_rename)
ENCODING 11641
SWIDTH 1024 0
DWIDTH 16 0
BBX 16 16 0 -2
BITMAP
0000
0000
0002
0006
000A
0012
0022
0042
0082
0102
0202
0402
0802
1002
3FFE
0000
ENDCHAR
STARTCHAR (for_rename)
ENCODING 11642
SWIDTH 1024 0
DWIDTH 16 0
BBX 16 16 0 -2
BITMAP
0000
0000
1004
380E
1004
0000
0000
0000
0000
0000
0000
0080
01C0
0080
0000
0000
ENDCHAR
STARTCHAR (for_rename)
ENCODING 11643
SWIDTH 1024 0
DWIDTH 16 0
BBX 16 16 0 -2
BITMAP
0000
03E0
0410
0808
0808
0808
0808
0808
0808
0808
0808
0808
0808
0808
0808
0000
ENDCHAR
STARTCHAR (for_rename)
ENCODING 11644
SWIDTH 1024 0
DWIDTH 16 0
BBX 16 16 0 -2
BITMAP
0000
0808
0808
0808
0808
0808
0808
0808
0808
0808
0808
0808
0808
0410
03E0
0000
ENDCHAR
STARTCHAR (for_rename)
ENCODING 12321
SWIDTH 1024 0
DWIDTH 16 0
BBX 16 16 0 -2
BITMAP
0000
3FFE
0220
0220
0220
3FFE
2222
2222
2222
2222
2222
3FFE
0220
0220
0220
7FFF
ENDCHAR
STARTCHAR (for_rename)
ENCODING 12322
SWIDTH 1024 0
DWIDTH 16 0
BBX 16 16 0 -2
BITMAP
0000
01FE
3C48
2448
2448
25CE
2502
2502
2502
2502
2502
25CE
3C48
0048
0048
03FF
ENDCHAR
ENDFONT
